<?xml version="1.0" encoding="utf-8" ?>
<svg baseProfile="full" height="300mm" version="1.1" viewBox="0,0,200,300" width="200mm" xmlns="http://www.w3.org/2000/svg" xmlns:ev="http://www.w3.org/2001/xml-events" xmlns:xlink="http://www.w3.org/1999/xlink"><defs /><rect fill="#222222" height="300" width="200" x="0" y="0" /><text fill="#FFFFFF" style="font-size:12px; font-family:Arial; font-weight:bold;" x="10" y="20">Running</text><text fill="#FFFFFF" style="font-size:4px; font-family:Arial" x="10" y="280">ATHLETE</text><text fill="#FFFFFF" style="font-size:9px; font-family:Arial" x="10" y="290">zhanyu</text><text fill="#FFFFFF" style="font-size:4px; font-family:Arial" x="65" y="280">SPECIAL TRACKS</text><rect fill="yellow" height="2.6" width="2.6" x="65" y="283" /><text fill="#FFFFFF" style="font-size:3px; font-family:Arial" x="70" y="285.5">Over 20.0 km</text><rect fill="red" height="2.6" width="2.6" x="65" y="287" /><text fill="#FFFFFF" style="font-size:3px; font-family:Arial" x="70" y="289.5">Over 40.0 km</text><text fill="#FFFFFF" style="font-size:4px; font-family:Arial" x="120" y="280">STATISTICS</text><text fill="#FFFFFF" style="font-size:3px; font-family:Arial" x="120" y="285">Number: 2</text><text fill="#FFFFFF" style="font-size:3px; font-family:Arial" x="120" y="290">Weekly: 1.0</text><text fill="#FFFFFF" style="font-size:3px; font-family:Arial" x="141" y="285">Total: 23.4 km</text><text fill="#FFFFFF" style="font-size:3px; font-family:Arial" x="141" y="290">Avg: 11.7 km</text><text fill="#FFFFFF" style="font-size:3px; font-family:Arial" x="167" y="285">Min: 10.2 km</text><text fill="#FFFFFF" style="font-size:3px; font-family:Arial" x="167" y="290">Max: 13.1 km</text><polyline fill="none" points="130.64864864875562,65.87763205019291 131.14619164622854,65.80235913736396 132.04176904179621,65.4636308553163 132.97051597048994,65.04962923430139 134.0651105651632,64.89908308468875 135.02702702698298,64.56035404186696 136.08845208841376,64.37217111705104 136.61916461924557,63.50652852884377 137.05036855034996,62.45270025442005 137.64742014743388,61.51177981888759 138.47665847663302,60.721404951793374 139.50491400493775,60.420309355686186 140.599508599611,60.19448751077289 141.66093366092537,59.931028531398624 142.75552825559862,59.89339152027969 143.816953316913,60.19448751077289 144.84520884533413,60.608494129701285 145.77395577402785,60.75904188546701 146.8685503685847,60.721404951793374 147.79729729727842,60.38267239037668 148.72604422620498,59.931028531398624 149.85380835388787,59.780480465706205 150.88206388207618,59.44174711179221 151.6449631450232,59.554658261477016 151.8439803441288,60.721404951793374 152.0761670761276,61.73760092424345 152.2751842752332,62.82906781224301 152.6068796069594,63.95816837248276 152.80589680594858,65.12490228802199 153.20393120404333,66.21635998354759 153.63513513526414,67.23254207195714 154.0,68.24872159288498 153.8341523342533,69.30253468058072 153.33660933666397,70.28107293258654 152.6068796069594,70.99615707260091 151.67813267814927,71.56069628513069 150.81572481570765,72.16287057183217 149.85380835388787,72.50159321195679 148.82555282558315,72.57686487093451 147.79729729727842,72.84031556671835 146.73587223596405,72.6521365159133 145.70761670765933,72.35104985153885 144.6793611793546,72.08759883538005 143.61793611792382,71.82414764649002 142.55651105660945,71.71123994141817 141.56142506143078,71.86178354124422 140.53316953312606,72.04996296175523 139.50491400493775,72.31341400262318 138.5761670761276,72.91558716236614 137.51474201469682,73.06613031149027 136.5859950860031,73.55539515681448 135.65724815730937,73.89411662420025 134.76167076162528,74.15756645714282 133.7997542998055,74.49628741748165 132.93734643736389,74.94791492077638 132.10810810816474,75.47481303371023 131.07985257997643,75.70062629939639 130.18427518429235,76.41570080432575 129.38820638821926,77.05550323112402 128.5921375922626,77.69530464036507 127.66339066345245,78.14692855181056 126.7346437346423,78.52328142389888 125.8722358723171,78.29746974288719 125.00982800987549,78.7490929782507 124.2137592138024,79.31362130923662 123.35135135136079,79.7276082484459 122.98648648650851,80.3297703085118 122.45577395590954,80.8566613716248 122.15724815730937,81.53409172440297 121.26167076162528,81.79753655349487 120.36609336605761,82.02334626964875 119.50368550373241,82.3620606061013 118.60810810804833,82.70077465754002 117.77886977884918,83.11475811066339 116.9828009827761,82.77604440800496 116.21990171994548,82.6631397769961 115.52334152336698,82.32442569392151 114.62776412779931,82.81367927786778 113.89803439797834,83.26529744255822 113.83169533172622,84.13089750759536 113.53316953324247,84.8459570260602 112.70393120404333,85.25993827151251 111.90786240785383,85.63628448854433 111.1449631449068,86.16316860096413 110.31572481570765,86.5018794517091 109.48648648662493,86.95349347559386 108.75675675680395,87.21693475538632 108.1928746929625,86.61478300520685 107.33046683052089,86.95349347559386 106.50122850120533,87.44274142937502 105.63882063876372,87.93198878812836 105.07493857480586,88.6094072254491 105.20761670765933,89.512630034209 105.43980343977455,90.30294832822983 104.61056511045899,90.82982632829226 103.81449631450232,91.20616733451607 104.1793611793546,92.0341163087287 103.41646191652399,92.59862599591725 102.58722358732484,93.01259926316561 101.79115479113534,93.46420597788529 100.9619164619362,93.57710757729365 100.1658476657467,94.02871365836472 99.3034398034215,94.48031923235976 98.47420147410594,94.93192429948249 97.81081081076991,94.32978409729549 97.34643734642304,93.50183984791511 96.45085995085537,93.61474143681698 95.62162162165623,93.91581218567444 94.69287469284609,93.9534460134164 93.83046683040448,93.61474143681698 92.93488943495322,93.27603657505824 91.97297297301702,93.12550098937936 91.17690417694394,92.71152783834259 90.38083538087085,92.52335808344651 89.48525798518676,92.52335808344651 88.7555282554822,92.86206357894116 88.52334152325056,93.69000914521166 88.68918918911368,94.55558677876252 88.92137592134532,95.34589516554843 89.25307125318795,96.09856837621192 89.18673218670301,96.92650728148874 89.38574938569218,97.79207795142429 89.58476658468135,98.6200133714301 89.68427518440876,99.63611360362847 89.85012285015546,100.42641201001243 90.04914004902821,101.21670886382344 90.44717444712296,102.00700416514883 90.21498771500774,102.7972979141341 90.38083538087085,103.54995718420832 90.71253071248066,104.41551360409358 90.54668304661755,105.24343539361143 89.85012285015546,105.80792654602556 88.95454545458779,106.10898817016277 88.12530712527223,106.6358454702131 87.62776412779931,107.46376269074972 87.32923832919914,108.32931069057668 86.96437346434686,109.19485682845698 86.89803439797834,110.13566573589924 86.89803439797834,111.07647244341206 86.20147420151625,111.4151623196376 85.50491400493775,111.90438052630634 84.60933660937008,112.28070181899238 83.68058968067635,112.54412651443272 82.98402948398143,112.99571130541153 82.81818181823473,113.93651132544619 83.58108108118176,114.61388597774203 84.11179361178074,115.40415496411151 83.18304668308701,115.81810476604733 82.18796068802476,115.85573654517066 81.29238329245709,116.11915890005184 80.33046683040448,116.38258108246373 79.36855036858469,116.79652987781446 78.60565110552125,117.09758327971213 78.37346437352244,116.08152714557946 78.34029484027997,115.14073214109521 77.54422604420688,114.65151786938077 76.61547911551315,114.38809455363662 76.05159705155529,115.0654684457113 75.58722358709201,115.85573654517066 74.89066339062992,116.53310796641745 74.09459459455684,117.05995161677129 73.29852579848375,117.54916296014562 73.43120393122081,118.2641630845319 73.89557739556767,119.01679342170246 74.09459459455684,119.76942235117895 73.92874692881014,120.44678718401701 74.49262899265159,121.16178215947002 74.393120393157,121.95203828567173 74.92383292375598,122.59176829876378 75.55405405396596,122.96807959617581 76.11793611792382,123.68307009155978 76.91400491388049,124.02174935635412 77.74324324319605,124.17227338271914 77.80958230968099,125.07541635763482 77.47788697783835,125.94092647326761 77.11302211298607,126.80643472721567 76.41646191640757,127.25800351201906 75.6203931204509,127.37089562907931 74.75798525800928,127.4837877144455 73.92874692881014,127.7848331205023 73.03316953324247,128.16113956150366 72.07125307130627,128.42455386085203 71.14250614237972,128.61270682618488 70.18058968055993,128.76322913501645 69.21867321862374,128.83849026839016 68.25675675680395,128.72559856312 67.29484029486775,128.57507624011487 66.36609336617403,128.31166203937028 65.43734643724747,128.0482476662146 64.5417690416798,127.63431044569006 63.71253071259707,127.22037279934739 62.98280098289251,126.65591168642277 62.253071252955124,126.01618813438108 61.58968058961909,125.71514140520594 60.992628992535174,125.82803395509836 60.1965601965785,125.60224882364855 59.63267813262064,125.03778544077068 58.869778869790025,124.5485832018312 57.90786240773741,124.09701137649245 57.078624078654684,123.38202161673689 56.2825552825816,122.81755511939991 55.38697788701393,122.70466172494343 54.69041769031901,121.876775864308 53.76167076162528,121.57572603810695 53.23095823102631,120.86073179834057 52.89926289918367,119.95757936351583 52.036855036742054,120.10810491017764 51.57248157239519,120.8983631056908 50.94226044230163,121.50046354637016 49.914004913996905,121.68861974938773 49.05159705155529,121.50046354637016 48.45454545447137,120.59731254752842 47.791154791018926,119.9199479680974 47.45945945952553,119.12968785082921 47.09459459455684,118.15126841256279 46.79606879607309,117.21047824743437 46.59705159708392,116.38258108246373 46.364864864735864,115.40415496411151 46.23218673223164,114.5009902814927 46.132678132737055,113.59782357164659 46.06633906636853,112.6570227596385 46.06633906636853,111.7162197480211 46.364864864735864,110.81304678707966 46.82923832908273,110.02276878306293 47.890663390629925,110.02276878306293 48.68673218681943,110.0604011042451 49.515970515902154,109.98513645850471 49.98034398024902,109.42065116696176 50.11302211310249,108.44220811859122 50.312039312091656,107.46376269074972 50.57739557744935,106.5605801838683 50.21253071248066,105.80792654602556 49.28378378378693,105.46923194971168 48.38820638821926,105.16816984681645 47.62530712527223,104.79184190140222 47.59213759202976,103.85102049796842 47.99017199012451,102.98546286369674 48.487714987713844,102.19516948438832 48.98525798530318,101.40487455256516 49.54914004926104,100.53931165559334 50.013513513607904,99.71138018550118 50.643734643701464,99.07161379145691 51.273955773795024,98.39421297132503 51.90417690423783,97.67917753491201 52.6007371005835,97.03940790920751 53.330466830404475,96.47490445346921 54.06019656022545,95.87276656084578 54.823095823056065,95.34589516554843 55.78501228510868,95.12009292774019 56.41523341520224,94.89429056318477 57.211302211275324,94.51795300736558 58.00737100734841,94.10398128916859 58.770270270179026,93.84054451945121 59.56633906625211,93.53947371439426 60.42874692869373,93.20076878927648 61.22481572476681,92.97496534738457 62.05405405408237,92.67389389447635 62.91646191640757,92.25992027873872 63.71253071259707,91.95884829058195 64.5417690416798,91.62014203460421 65.37100737087894,91.35670363841928 66.23341523332056,91.09326506961952 67.02948402951006,90.86746044480242 67.89189189183526,90.6040215556568 68.75429975427687,90.34058249401278 69.6830466829706,89.92660647712182 70.51228501228616,89.66316697184811 71.40786240785383,89.36209304022486 72.20393120392691,89.02338459796738 73.03316953324247,88.72231018755701 73.89557739556767,88.42123555173748 74.69164619175717,88.15779506062972 75.3550368550932,87.9696231756534 76.11793611792382,87.63091356083169 76.94717444723938,87.29220366076333 77.67690417682752,87.14166583586484 78.50614250614308,86.8782245067996 79.36855036858469,86.5018794517091 80.29729729727842,86.2384377036069 81.0933660933515,85.86209204985062 81.85626535629854,85.56101527332794 82.4864864863921,85.41047680063639 83.24938574933913,85.07176503090886 84.01228501228616,84.8083223462163 84.84152334136888,84.35670591387316 85.60442260431591,83.79218466053135 86.53316953335889,83.22766261489596 87.46191646205261,82.58787000540178 88.35749385738745,82.02334626964875 89.12039312033448,81.34591674082913 89.8169533170294,80.63085100057651 90.34766584762838,79.95341912662843 91.0442260443233,79.2759861118393 91.64127764117438,78.52328142389888 92.13882063876372,77.69530464036507 92.66953316959552,76.82969072606647 93.13390663382597,76.00171045644674 93.39926289930008,75.28663521548151 93.96314496314153,74.57155870323186 94.5933660933515,73.93175232515205 95.19041769043542,73.25430916860932 95.85380835388787,72.6521365159133 96.5171990172239,71.97469120417372 97.28009828017093,71.4101525725564 98.07616707601119,70.88324913498946 98.90540540555958,70.39398103908752 99.66830466827378,69.82944018900162 100.46437346434686,69.34017081116326 101.39312039304059,68.92617318051634 102.22235872235615,68.66271992094698 103.01842751842923,68.47453891555779 103.88083538087085,68.36163027002476 104.77641277643852,68.2863578221586 105.70515970524866,68.2110853601771 106.60073710069992,67.94763163215248 107.46314496314153,67.72181401363923 108.35872235882562,67.4959962683497 109.3206388206454,67.6465414459235 110.28255528246518,67.75945029224386 111.1449631449068,67.68417773162946 111.84152334160171,67.30781471708906 112.77027027029544,67.34545103440178 113.63267813273706,67.27017839634209 114.52825552818831,67.30781471708906 115.25798525800928,67.7970865672396 116.15356265357696,67.94763163215248 116.94963144965004,67.75945029224386 117.81203931197524,67.45835996521055 118.70761670754291,67.30781471708906 119.57002456998453,67.27017839634209 120.49877149867825,67.5336325680837 121.32800982799381,67.6089051568124 122.2899262898136,67.38308734819293 123.21867321874015,67.04436039744178 124.08108108094893,66.78090590520878 125.00982800987549,66.5927240193123 125.90540540544316,66.32926923123887 126.90049140050542,66.14108713413589 127.86240786244161,65.95290494893561 128.8243243242614,65.65181326950551 129.686732186703,65.4636308553163 130.64864864875562,65.08726576284971 130.44963144965004,64.18398810419603 130.21744471765123,63.24307171907276 129.91891891905107,62.377426700579235 129.71990171994548,61.474142955674324 129.55405405408237,60.53322023068904 129.28869778860826,59.62993234361056 129.15601965610404,58.72664242782048 128.95700245711487,57.748076062707696 128.7248157247668,56.8447819200228 128.45945945952553,55.94148574848077 128.42628992628306,54.962912606366444 129.05651105660945,54.36071256600553 129.98525798530318,54.210162415140076 130.88083538087085,54.09724976486177 131.77641277643852,53.87142436931026 132.77149877138436,53.57032364470069 133.60073710081633,53.457410814851755 134.59582309576217,53.457410814851755 135.22604422608856,52.968121519108536 135.1928746929625,52.17772986079217 135.06019656010903,51.274423206195934 134.19778869766742,51.274423206195934" stroke="#4DD2FF" stroke-linecap="round" stroke-linejoin="round" stroke-width="0.5"><title>2025-04-13 10.2km</title><desc>1744542968000</desc></polyline><polyline fill="none" points="130.25061425054446,182.17031117767328 131.57739557733294,181.56812742433976 132.80466830462683,181.07885246080696 134.2309582309099,180.74012329123798 135.6240786240669,180.40139383624773 136.51965601963457,179.49811389530078 137.05036855034996,178.29373748481157 137.81326781318057,177.16463132426725 138.77518427511677,176.4495291164203 140.00245700241067,176.3742551258183 141.1965601965785,175.9978849615436 142.4238329239888,175.88497384361108 143.68427518417593,176.18607008771505 144.91154791146982,176.63771403121063 146.10565110575408,176.7882618997246 147.33292383293156,176.60007705536555 148.36117936123628,176.03552199382102 149.4889434890356,175.8473367972474 150.64987714984454,175.58387737403973 151.57862407865468,175.3956919660559 151.84398034401238,176.75062493782025 152.0761670761276,177.91736911682528 152.34152334160171,179.15938339437707 152.6068796069594,180.3637572127045 152.80589680594858,181.6434004426992 153.36977886979003,182.77249402948655 153.86732186737936,183.97685702805757 153.90049140050542,185.18121642034384 153.3034398034215,186.31030007530353 152.4410319410963,187.17592873092508 151.37960687966552,187.8157400181226 150.31818181811832,188.45555028747185 149.05773955781478,188.56845787647762 147.76412776415236,188.9448162773333 146.57002457010094,188.56845787647762 145.27641277643852,188.4179144175141 144.14864864875562,187.96628370240796 143.05405405408237,187.77810408818186 141.85995086003095,187.9286477866117 140.6658476658631,188.15446322862408 139.50491400493775,188.49318615396623 138.4103194102645,189.09535953914747 137.24938574945554,189.28353853709996 136.3206388206454,189.96098220083513 135.15970515960362,190.0738893672533 134.19778869778384,190.67606038576923 133.07002456998453,190.93950992295868 132.30712530727033,191.39113729950623 131.04668304673396,191.72985749907093 130.08476658479776,192.55783900845563 129.15601965598762,193.23527715739328 128.19410319405142,193.87507880604244 127.16584766586311,194.36433820362436 126.17076167080086,194.40197351720417 125.24201474199072,194.66542061395012 124.37960687966552,195.34285521347192 123.35135135124438,195.9450183439767 122.68796068790834,196.735356084886 122.32309582305606,197.6385973157303 121.22850122861564,197.9773122543411 120.10073710081633,198.27839196048444 119.0724815725116,198.69237618823536 118.01105651108082,199.1816297264304 117.04914004914463,198.95582047506468 116.05405405408237,198.391296792106 114.95945945940912,198.84291580197169 113.89803439797834,199.4827085310244 113.93120393122081,200.53648257264285 113.03562653553672,201.17627260819427 111.97420147433877,201.6278884912026 110.91277641279157,202.19240763198468 109.85135135136079,202.79456050897716 108.88943488930818,203.24617457503336 108.0270270270994,202.64402237412287 106.9656019655522,203.20854008893366 105.93734643736389,203.77305701150908 105.17444717441685,204.52574500924675 105.17444717441685,205.50423730074544 105.27395577391144,206.4827272122202 104.1793611793546,206.9719712754595 103.98034398024902,207.91282357060118 103.35012285015546,208.70313779829303 102.22235872235615,209.30528092951863 100.99508599517867,209.49345047326642 99.90049140050542,210.17086010158528 98.77272727258969,210.84826858949964 97.74447174440138,210.43429687130265 96.98157248145435,209.64398604477174 95.78746928751934,209.9074231594277 94.52702702698298,210.02032472734572 93.33292383293156,209.41818266629707 92.10565110563766,209.19237916107522 91.04422604420688,208.62786984350532 89.8832923831651,208.59023586087278 88.78869778872468,208.9665755291062 88.49017199012451,210.02032472734572 88.85503685497679,211.22460614531883 89.21990171982907,212.31598306653905 89.25307125307154,213.55789113402716 89.5515970516717,214.61162830589456 89.75061425066087,215.8158959800203 89.78378378367051,216.7567275921465 90.21498771500774,217.8480895056564 90.18181818176527,218.90181544073857 90.48034398036543,219.91790569291334 90.61302211298607,221.08452466974268 89.81695331691299,221.9124457621656 88.6560196558712,222.28877296837163 87.793611793546,223.07905895553995 87.36240786244161,224.13277119022678 86.89803439809475,225.2617455223226 86.79852579848375,226.50361362850526 86.59950859949458,227.29389133682707 85.70393120392691,227.783110092656 84.70884520886466,228.2346961084404 83.64742014731746,228.53575317081413 82.85135135136079,229.3260268875456 83.0171990172239,230.26682690758025 83.87960687966552,231.01946533974842 83.54791154782288,231.84736598894233 82.42014742002357,231.88499779615086 81.32555282558315,232.1484203481814 80.46314496314153,232.41184272771352 79.33538083534222,232.82579183284543 78.53931203926913,233.0515820743749 78.37346437340602,231.88499779615086 77.90909090905916,230.8689377658011 76.78132678137626,230.41735470667481 75.98525798518676,231.24525659478968 75.32186732173432,232.2989474433707 74.26044226041995,232.93868696934078 73.23218673199881,233.65368876545108 73.53071253059898,234.51921555551235 73.82923832919914,235.49763490239275 73.89557739556767,236.4384204923117 74.49262899253517,237.4168351723347 74.59213759214617,238.50814104743768 75.48771498771384,238.959715026489 76.2174447174184,239.86286146429484 77.37837837834377,240.01338567369385 77.77641277643852,241.02942261323915 77.34520884521771,242.15834953723243 76.81449631450232,243.28727329400135 75.71990171982907,243.4001654953754 74.52579852589406,243.55068838148145 73.33169533172622,243.96462602782412 72.13759213755839,244.41619388366234 70.84398034389596,244.71723883930827 69.58353808347601,244.83013063960243 68.35626535629854,244.71723883930827 67.1621621621307,244.64197762150434 65.9348894348368,244.2656713213364 64.77395577391144,243.81410329657956 63.71253071248066,243.24964255315717 62.75061425054446,242.57228861565818 61.8550368550932,241.81967179258936 60.99262899265159,241.9325644057826 60.0970515969675,241.59388647109154 59.367321867262945,240.95416070561623 58.339066339074634,240.4273269586265 57.34398034401238,239.78759933865513 56.54791154793929,238.959715026489 55.45331695326604,238.84682157915086 54.69041769031901,238.05656656151405 53.62899262900464,237.7178853645164 53.164619164541364,236.62657734623645 52.26904176897369,236.02447510368074 51.50614250602666,236.92762812966248 50.61056511057541,237.68025410277187 49.515970515902154,237.68025410277187 48.71990171982907,236.92762812966248 47.890663390629925,236.099737933313 47.426289926166646,235.0836885460012 47.02825552818831,233.99237338328385 46.663390663219616,232.82579183284543 46.398034397978336,231.62157507168013 46.16584766586311,230.41735470667481 46.06633906636853,229.2507627909945 46.06633906636853,228.12179965194082 46.36486486485228,226.9552010804182 47.19410319416784,226.16492270695744 48.421375921345316,226.1272903648205 49.61547911539674,226.0896580190165 50.0798525797436,225.1864806653175 50.312039312091656,223.98224104003748 50.544226044090465,222.77799781010253 50.01351351349149,221.9124457621656 48.81941031944007,221.46085265028523 47.890663390629925,220.93399337885785 47.72481572476681,219.8802727663424 48.388206388102844,218.8265493940271 49.018427518429235,217.81045638563228 49.64864864863921,216.83199402605533 50.41154791158624,216.04169576763525 51.07493857492227,215.10086248331936 51.837837837752886,214.23529391840566 52.7002457001945,213.44499055895722 53.695331695256755,212.69231924935593 54.69041769031901,212.01491386676207 55.75184275174979,211.3751410691766 56.78009828005452,210.77300103608286 57.90786240797024,210.28376159555046 59.002457002410665,209.83215543004917 60.130221130209975,209.41818266629707 61.2248157246504,209.04184342047665 62.38574938569218,208.62786984350532 63.44717444712296,208.13862779416377 64.50859950867016,207.68701922055334 65.73587223596405,207.3859465564019 66.79729729727842,207.0472395400284 68.02457002457231,206.67089807614684 69.15233415225521,206.33219045764417 70.28009828017093,205.88057985599153 71.37469287461136,205.39133446541382 72.30343980330508,205.0149914524809 73.39803439797834,204.71391678860527 74.62530712538864,204.29993875778746 75.68673218670301,203.84832587468554 76.78132678137626,203.43434695299948 77.80958230956458,203.05800210917369 78.90417690412141,202.68165691319155 79.99877149879467,202.26767679088516 81.09336609323509,201.9666000706784 82.18796068802476,201.6655231252662 83.1830466829706,201.2139072844293 84.17813267826568,200.72465621808078 85.14004914008547,200.19776978885056 86.26781326776836,199.82142191691673 87.26289926283062,199.10635999013903 88.22481572488323,198.391296792106 89.12039312033448,197.48805725137936 89.91646191640757,196.66008589064586 90.64619164611213,195.98265350965085 91.34275184280705,195.00413805633434 92.03931203926913,194.02562022249913 92.57002456998453,192.97182912396966 93.10073710069992,192.03094188153045 93.66461916454136,191.12768805815722 94.39434889436234,190.18679650174454 95.2235872236779,189.28353853709996 96.08599508588668,188.49318615396623 96.98157248145435,187.74046815469046 97.97665847674944,187.06302075108397 99.00491400493775,186.38557220631628 100.06633906648494,185.97157531153061 101.02825552830473,185.51994184975047 102.12285012286156,184.99303550308105 103.18427518440876,184.5037647060235 104.31203931209166,184.31558347167447 105.53931203938555,184.39085597591475 106.60073710069992,184.01449331376352 107.72850122849923,183.60049397847615 108.98894348891918,183.67576661653584 110.14987714984454,183.7886755473446 111.14496314502321,183.713402930327 112.04054054059088,183.37467597957584 113.10196560202166,183.2617669326719 114.0970515969675,183.33703963414882 115.0589680589037,183.86394815021777 116.05405405408237,184.0521295957733 117.14864864863921,183.82631185048376 118.30958230968099,183.5252213262429 119.4373464374803,183.37467597957584 120.66461916465778,183.713402930327 121.82555282558315,183.60049397847615 122.9864864863921,183.22413057659287 124.1142506141914,182.81013042770792 125.30835380847566,182.6219484010653 126.50245700241067,182.39612985271378 127.6965601965785,182.20794763232698 128.89066339074634,182.13267471949803 130.01842751842923,182.0950382578303 131.37837837846018,181.8315829273488 132.47297297301702,181.37994481643545 133.66707616706844,181.07885246080696 134.79484029475134,180.74012329123798 136.02211302204523,180.5895769020426 136.4864864863921,179.79920743440744 136.98402948398143,178.6701055004669 137.58108108118176,177.72918480078806 138.47665847663302,176.97644665598636 139.57125307130627,176.60007705536555 140.69901719910558,176.3742551258183 141.85995086003095,176.11079604784027 142.98771498783026,176.18607008771505 144.0491400490282,176.60007705536555 145.14373464381788,176.93880971183535 146.27149877150077,176.97644665598636 147.3660933660576,176.8258988581074 148.2616707617417,176.2613441135327 149.35626535618212,176.03552199382102 150.45085995085537,175.80969974739128 151.41277641279157,175.43332905476564 151.7444717445178,176.67535100359237 152.00982800975908,177.87973226068425 152.24201474210713,179.12174665444763 152.6068796069594,180.28848395461682 152.7727272727061,181.49285439177766 153.23710073705297,182.58431198517792 153.7346437346423,183.713402930327 154.0,184.8424907058361 153.5687960688956,185.8963031032181 153.07125307130627,186.9124767286121 152.10933660937008,187.58992438591667 151.14742014743388,188.11682733043563 150.05282555287704,188.6813654336729 148.8587223587092,188.71900127906702 147.7309582310263,189.0577237290272 146.63636363635305,188.79427295920323 145.54176904179621,188.6060937323782 144.38083538087085,188.19209912337828 143.21990171982907,187.96628370240796 142.15847665839829,188.00391961474088 141.09705159708392,188.19209912337828 139.9692874692846,188.3802785438893 138.90786240797024,188.9448162773333 137.78009828017093,189.2459027445002 136.75184275198262,189.77280351985246 135.78992629004642,190.14916079374962 134.69533169525675,190.45024635948357 133.60073710081633,190.82660299961572 132.80466830462683,191.42877289126045 131.90909090917557,191.65458636824042 130.6486486486392,192.18148398815538 129.71990171994548,192.89655822544592 128.8243243243778,193.5363604130107 127.82923832919914,194.1385262478725 126.80098280101083,194.59015003259992 125.80589680583216,194.43960882732063 124.94348894350696,195.00413805633434 124.0479115479393,195.56866649299627 123.05282555287704,196.09555898586405 122.52211302204523,196.84826134960167 122.22358722356148,197.6762323229632 121.22850122861564,198.0525822020427 120.06756756757386,198.35366185178282 119.00614250602666,198.73001109695178 117.91154791158624,199.25689944872283 116.94963144965004,199.10635999013903 115.9545454547042,198.73001109695178 114.893120393157,198.84291580197169 113.89803439797834,199.40743885104894 113.89803439797834,200.61175204141182 112.86977886967361,201.25154195725918 111.80835380835924,201.74079238277045 110.7137592138024,202.3429459357285 109.68550368549768,202.90746407295228 108.65724815730937,203.24617457503336 107.79484029486775,202.71929144853493 106.86609336617403,203.28380905772792 105.90417690423783,203.88596030091867 105.00859950855374,204.56337937223725 105.07493857492227,205.61714010423748 105.17444717441685,206.4827272122202 104.14619164622854,207.00960540949018 103.84766584762838,207.83755546808243 104.61056511057541,207.34831245755777 105.53931203938555,206.70853223843733 105.77149877138436,205.99348255398218 105.63882063888013,205.05262576969108 105.37346437352244,204.0741323796101 106.4348894348368,203.50961587956408 107.46314496314153,202.98273309806245 108.4582309583202,202.71929144853493 109.22113022115082,203.1709055992833 110.2825552825816,202.56875328574097 111.37714987713844,201.92896546490374 112.40540540532675,201.32681129223784 112.96928746928461,200.762290936691 112.37223587220069,199.78378711041296 111.80835380835924,198.80528090379084 111.31081081088632,197.82677231691196 110.94594594591763,196.77299117657822 110.78009828005452,195.56866649299627 110.58108108106535,194.43960882732063" stroke="#4DD2FF" stroke-linecap="round" stroke-linejoin="round" stroke-width="0.5"><title>2025-03-24 13.1km</title><desc>1742817466000</desc></polyline></svg>