<?xml version="1.0" encoding="utf-8" ?>
<svg baseProfile="full" height="300mm" version="1.1" viewBox="0,0,200,300" width="200mm" xmlns="http://www.w3.org/2000/svg" xmlns:ev="http://www.w3.org/2001/xml-events" xmlns:xlink="http://www.w3.org/1999/xlink"><defs /><rect fill="#222222" height="300" width="200" x="0" y="0" /><text fill="#FFFFFF" style="font-size:12px; font-family:Arial; font-weight:bold;" x="10" y="20">Running</text><text fill="#FFFFFF" style="font-size:4px; font-family:Arial" x="10" y="280">ATHLETE</text><text fill="#FFFFFF" style="font-size:9px; font-family:Arial" x="10" y="290">zhanyu</text><text fill="#FFFFFF" style="font-size:4px; font-family:Arial" x="65" y="280">SPECIAL TRACKS</text><rect fill="yellow" height="2.6" width="2.6" x="65" y="283" /><text fill="#FFFFFF" style="font-size:3px; font-family:Arial" x="70" y="285.5">Over 20.0 km</text><rect fill="red" height="2.6" width="2.6" x="65" y="287" /><text fill="#FFFFFF" style="font-size:3px; font-family:Arial" x="70" y="289.5">Over 40.0 km</text><text fill="#FFFFFF" style="font-size:4px; font-family:Arial" x="120" y="280">STATISTICS</text><text fill="#FFFFFF" style="font-size:3px; font-family:Arial" x="120" y="285">Number: 5</text><text fill="#FFFFFF" style="font-size:3px; font-family:Arial" x="120" y="290">Weekly: 1.2</text><text fill="#FFFFFF" style="font-size:3px; font-family:Arial" x="141" y="285">Total: 75.8 km</text><text fill="#FFFFFF" style="font-size:3px; font-family:Arial" x="141" y="290">Avg: 15.2 km</text><text fill="#FFFFFF" style="font-size:3px; font-family:Arial" x="167" y="285">Min: 10.2 km</text><text fill="#FFFFFF" style="font-size:3px; font-family:Arial" x="167" y="290">Max: 21.7 km</text><polyline fill="none" points="71.01687289087567,49.198490861745086 71.17885264346842,50.00259880759404 71.46231721050572,51.1742942421115 71.82677165360656,52.23111277866701 71.88751406082883,53.035210791480495 72.9201349831419,52.62167499952193 74.03374578186776,52.391932591897785 75.12710911140312,52.02434429245477 75.61304836906493,50.99049924964493 76.30146231723484,50.02557328157127 77.45556805410888,49.680955945310416 78.6501687290147,49.405261727952166 79.8447694038041,49.65798143899883 81.01912260975223,49.933675372521975 82.17322834650986,49.703930449453765 83.42857142863795,49.359312661603326 84.48143982014153,49.15254175673181 84.80539932509419,50.43911344659864 85.10911136108916,51.67972976199235 85.33183352090418,52.96628820787009 85.85826771659777,54.092021317454055 85.85826771659777,55.263697234971914 85.12935883027967,56.20562872212031 84.07649043877609,56.89484459393134 82.821147356648,57.14755659547518 81.62654668174218,57.19350420417322 80.43194600683637,56.940792249923106 79.25759280100465,56.64213233224291 78.02249718795065,56.848896929383045 76.82789651304483,57.26242560110404 75.61304836906493,57.60703229553474 74.47919010126498,57.997585964534665 73.34533183358144,58.388139012342435 72.41394825652242,59.123296005127486 71.28008998883888,59.605741585372016 70.24746906652581,60.3179214236734 69.09336332965177,60.80036465656303 68.08098987629637,61.16793981684896 67.06861642294098,61.742274903168436 66.64341957261786,62.54634176698164 65.55005624308251,62.959860843082424 64.29471316095442,63.396352445706725 63.07986501697451,63.48824531577702 62.006749156396836,63.46527210147178 61.520809898735024,64.49906461709179 60.22497187857516,65.14231109681714 59.05061867274344,65.80852888870868 58.07874015753623,65.60177183637279 56.96512935892679,66.19906951254234 56.09448818909004,67.00312178226886 56.15523059631232,68.05987218991504 55.40607424080372,68.79500022607681 54.63667041622102,69.62201663629094 53.52305961761158,69.98957859117945 52.429696287959814,70.63281068844663 51.57930258719716,70.17335936230666 50.506186726735905,70.12741418241058 49.352080989978276,70.05849639646476 48.13723284599837,69.75985243379546 47.064116985420696,69.34634480900422 46.01124859391712,69.7139071765414 46.19347581558395,70.93145358948095 46.41619797528256,72.0571043365344 46.659167604055256,73.25166683318093 46.800899887573905,74.3773069451272 47.124859392642975,75.45699771484942 47.34758155234158,76.62857169075869 46.59842519683298,77.54744932975154 45.60629921266809,78.14471795150894 45.14060742408037,79.29330737238342 44.95838020264637,80.53377791352978 44.249718785169534,81.10806770905037 43.13610798656009,81.49858400289668 42.67041619797237,82.41744342152379 43.237345331930555,83.35927075808286 42.103487064130604,83.58898419467732 41.07086614181753,83.88761134115339 40.098987626610324,84.37000827233715 39.83577052876353,83.22144259298511 38.9246344207786,82.60121489271114 38.215973003418185,83.42818481159338 37.32508436450735,84.16326684647356 36.656917885295115,84.89834668132244 37.08211473573465,85.86313562600117 37.34533183358144,86.71306560415542 37.64904386957642,87.7008183702128 38.45894263219088,88.41291673763772 39.491563554503955,88.78045057102281 39.10686164232902,89.97493173183466 38.398200224968605,90.80187682522228 37.28458942647558,90.73296484039747 36.11023622052744,91.19237770707696 34.87514060747344,91.44505441751971 33.70078740164172,91.44505441751971 32.52643419581,91.215348327838 31.433070866158232,90.77890616573859 30.420697412919253,90.20463898147864 29.509561304817908,89.60739968564303 28.456692913430743,89.35472108495014 27.525309336488135,88.73450887197396 26.553430821280926,87.93052774659009 25.601799775031395,87.51705071453762 24.650168729014695,87.03465996416344 23.77952755917795,86.4603840259515 23.070866141817532,87.40219585984596 21.99775028123986,87.7008183702128 20.701912261079997,88.04538235417567 19.446569178951904,88.09132418216905 18.231721034971997,88.32103319323505 16.93588301469572,88.57371285741101 15.903262092266232,88.11429509296431 15.295838020276278,86.91980488388799 14.789651293656789,85.7253088659345 14.50618672661949,84.41595078780665 14.242969628889114,83.08361435047118 14.040494938148186,81.86612818291178 14.060742407222278,80.67160758690443 14.263217097963206,79.38519429399457 14.526434195809998,78.2366053029109 14.72890888643451,77.22584254721005 15.113610798725858,76.10021549160592 15.599550056271255,75.06647181411972 16.2272215973353,73.73408465576358 16.895388076547533,72.60844159549742 17.62429696286563,71.80440767921391 18.413948256522417,70.88550855140784 19.325084364507347,69.96660598508606 20.296962879714556,69.34634480900422 21.329583802027628,68.7490547883499 22.341957255499437,68.26662717254658 23.435320585034788,67.71528016534285 24.629921259940602,67.18690478854114 25.84476940392051,67.00312178226886 27.100112485932186,66.81933863849554 28.233970753732137,66.65852827481285 29.327334083267488,66.35988017714408 30.359955005696975,65.96933980903123 31.392575928126462,65.71663688699482 32.46569178858772,65.3490685360157 33.55905511812307,64.8436611550569 34.57142857159488,64.47609149738855 35.52305961761158,64.03960181416187 36.81889763788786,63.120673629047815 38.05399325082544,62.43147523334483 39.005624297074974,61.742274903168436 39.916760405059904,60.915231953258626 40.84814398211893,60.29494791269826 41.739032621029764,59.559794428088935 42.52868391457014,58.755717783846194 43.29808773903642,57.85974356411316 44.067491563619114,57.07863516632642 44.755905511789024,56.25157650710025 45.54555680544581,55.53938487362757 46.294713160954416,54.75826909361058 47.18560179986525,53.839306170717464 48.01574803155381,53.08115916981478 48.78515185613651,52.50680382261635 49.59505061863456,51.95542142508202 50.425196850439534,51.33511474766419 51.31608548935037,50.82967851833382 52.28796400455758,50.20936899643857 53.28008998883888,49.8877264050825 54.231721034972,49.45121078565717 55.26434195728507,48.96874525057501 56.31721034878865,48.64710103379912 57.410573678324,48.3484310265776 58.48368953890167,48.14165927018621 59.536557930288836,48.02678599700448 60.52868391457014,48.04976065598021 61.601799775031395,47.95786200721341 62.715410573757254,48.02678599700448 63.78852643421851,48.003811335904174 64.88188976387028,47.93488733972481 66.0359955006279,47.82001396975829 67.14960629923735,47.751089921963285 68.34420697414316,47.59026706854638 69.4578177727526,47.45241882458504 70.57142857147846,47.29159577550308 70.83464566932525,48.50925338326488 71.09786276728846,49.589057907185634 71.34083239606116,50.69183209340554 71.60404949390795,51.771627017413266 71.72553430823609,52.8284429825726 70.7536557931453,53.21900425324566 69.66029246360995,53.35684925924579 68.56692913395818,53.54064248011855 67.49381327338051,53.770383812865475 66.42069741291925,54.13796949796961 65.2868391451193,54.13796949796961 64.15298087743577,54.0690472239512 63.01912260975223,54.0690472239512 61.92575928021688,54.0690472239512 60.8728908887133,54.092021317454055 59.77952755917795,54.092021317454055 58.72665916767437,54.11499540874502 57.61304836906493,54.11499540874502 56.539932508487254,54.29878806215129 55.46681664790958,54.59745083042071 54.41394825652242,54.988009286884335 53.421822272241116,55.49343695533753 52.429696287959814,55.998863583328784 51.5185601800913,56.573210761198425 50.688413948286325,57.308373188381665 49.95950506196823,57.974612236517714 49.21034870645963,58.70977046756889 48.764904387062415,59.62871516082669 48.19797525310423,60.593603387111216 47.631046119262464,61.489567630618694 46.861642294796184,62.270661995979026 46.07199100125581,63.05175387657073 45.26209223852493,63.62608455645386 44.330708661465906,64.20041389299149 43.419572553480975,64.75176879225182 42.32620922382921,65.14231109681714 41.25309336336795,65.46393370482838 40.1597300338326,65.80852888870868 39.005624297074974,66.17609655192064 38.033745781867765,66.58960951530025 36.980877390364185,66.98014889679325 35.86726659175474,67.34771480619384 34.87514060747344,67.80717141920468 33.86276715423446,68.19770886428887 32.769403824582696,68.519327470407 31.595050618750975,68.79500022607681 30.582677165511996,69.18553610017989 29.570303712040186,69.6679619106726 28.456692913430743,70.01255119509005 27.44431946007535,70.42605769807415 26.472440944984555,70.86253602917714 25.541057367925532,71.39090349715843 24.629921259940602,72.01115950914391 23.759280090103857,72.88410976082378 22.848143982118927,73.7111124000221 22.179977502906695,74.69891745802306 21.57255343091674,75.75563474929368 21.046119235106744,76.7664035557973 20.661417322815396,77.75419632480771 20.722159730037674,78.87981579969346 20.58042744663544,79.93651510177006 20.236220472492278,80.99320985733357 20.236220472492278,82.0958430160681 20.31721034878865,83.29035668511642 20.620922384783626,84.41595078780665 20.98537682800088,85.47262627161399 21.471316085662693,86.5063261504547 22.07874015753623,87.49407974793576 22.929133858298883,88.3669749697001 23.799775028135628,89.21689628405147 24.670416197972372,89.99790246644989 25.399325084406883,89.26283789292211 26.29021372331772,88.84936310362536 27.24184476956725,89.56145814122283 27.950506186811253,90.36543392838212 27.707536558038555,91.46802501470665 28.25421822280623,92.27199456165545 29.40832395956386,92.52467016156879 30.602924634469673,92.68546358977619 31.797525309491903,92.77734550152672 33.03262092242949,92.82328644454537 34.14623172103893,92.7543750268087 35.32058492687065,92.61655213343329 36.535433070966974,92.36387662806374 37.70978627668228,92.06525978661375 38.78290213725995,91.69773086800706 38.803149606334046,91.16940708417678 38.398200224968605,90.50325808484922 39.208098987699486,89.88304877189512 39.451068616472185,88.7574797225825 38.43869516311679,88.43588761829596 37.6895388077246,87.76973120569892 37.34533183358144,86.7819787167391 37.10236220480874,85.8401645047561 36.61642294714693,84.8753754698264 37.466816648026,84.09435299910547 38.31721034878865,83.31332804494014 39.22834645677358,82.7620148173155 39.93700787401758,83.70384083251702 40.362204724457115,84.23218067441485 41.415073115960695,83.77275478935917 42.48818897642195,83.58898419467732 43.33858267730102,83.22144259298511 42.650168729014695,82.41744342152379 43.03487064118963,81.52155553021294 44.04724409454502,81.19995395164005 45.03937007870991,80.71755079418654 45.03937007870991,79.66085485254007 45.44431946007535,78.5352389573527 46.27446569188032,77.63933690459817 47.24634420708753,77.08801094007504 47.08436445449479,75.9623832526122 47.00337457819842,74.99755541428749 46.800899887573905,73.91786262464302 46.59842519683298,72.79222040677269 46.41619797528256,71.73549036389159 46.13273340836167,70.79361844949017 46.07199100125581,69.736879806238 47.043869516346604,69.34634480900422 47.99550056247972,69.69093454469112 49.0483689539833,69.94363337688264 50.14173228351865,70.21930453360255 51.235095613170415,69.98957859117945 51.923509561340325,70.72470085052191 52.794150731293485,70.47200282209087 53.76602924638428,69.96660598508606 54.616422947263345,69.98957859117945 55.446569178951904,69.43823545241321 55.385826771729626,68.54230021190597 56.31721034878865,68.01392661458522 56.09448818909004,67.11798617729801 56.863892013556324,66.33690723153995 57.81552305968944,65.83150188380387 58.60517435322981,66.2909613337979 59.516310461214744,65.92339384257502 60.30596175487153,65.21123026260466 61.25759280088823,64.65987639501691 61.520809898735024,63.80987009029195 62.45219347591046,63.212566602320294 63.383577052969486,63.55716494581429 64.3352080991026,63.534191737941 65.38807649060618,63.120673629047815 66.48143982014153,62.79904795180482 66.94713160861284,62.10984865328646 67.65579302597325,61.44362082595762 68.52643419569358,60.82333812024444 69.4578177727526,60.77739119081525 70.38920134992804,60.34089493242209 71.2193475816166,59.74358300562017 72.08998875145335,59.07734875756432 73.04161979758646,58.77869143882708 73.9527559055714,58.43408638886467 74.90438695170451,57.974612236517714 75.83577052876353,57.60703229553474 76.86839145119302,57.33134697872447 77.8605174353579,56.940792249923106 78.8728908887133,56.8029492561036 79.8852643420687,56.848896929383045 80.91788526438177,57.14755659547518 81.91001124854665,57.446215898380615 82.92238470201846,57.21647800531355 83.89426321710926,57.05566135227855 84.78515185613651,56.4813153030118 85.61529808770865,55.88399398645561 85.97975253104232,55.01098329439992 85.79752530937549,54.00012493052054 85.39257592801005,53.08115916981478 85.16985376831144,52.070292860036716 84.88638920139056,51.05942238794523 84.68391451076604,50.00259880759404 84.33970753662288,49.10659264306014 83.38807649048977,49.543108875339385 82.43644544435665,49.77285394893261 81.44431946007535,50.09449669078458 80.37120359961409,50.00259880759404 79.48031496070325,49.61203241997282 78.48818897653837,49.61203241997282 77.47581552306656,49.91070088991546 76.50393700797576,50.140445619574166 75.85601799783763,50.89860170180327 75.43082114751451,51.886498538340675 74.62092238478363,52.41490684231394 73.60854893142823,52.69059767991712 72.55568054004107,52.98926240457513 71.52305961761158,53.21900425324566 70.38920134992804,53.26495259710646 69.41732283472084,53.60956490258104 68.48593925766181,53.56361662306881 67.49381327338051,53.839306170717464 66.50168728909921,54.229865833272925 65.46906636666972,54.229865833272925 64.41619797528256,54.0690472239512 63.383577052969486,54.04607312828011 62.330708661465906,54.0690472239512 61.25759280088823,54.0690472239512 60.245219347649254,54.11499540874502 60.71091113623697,53.70146143557213 61.70303712040186,53.65551317340578 62.735658042831346,53.65551317340578 63.748031496070325,53.60956490258104 64.8008998875739,53.56361662306881 65.81327334081288,53.35684925924579 66.94713160861284,53.26495259710646 67.93925759289414,53.150081721221795 68.91113610810135,53.01223659911193 69.90326209226623,52.80546877082088 70.89538807654753,52.57572653524403 71.64454443205614,52.16218996926909 71.42182227224112,51.19726860652736 71.17885264346842,50.1863945396326 70.9763779528439,49.175516310264356 70.7536557931453,48.187608564432594 70.49043869518209,47.245646313545876" stroke="yellow" stroke-linecap="round" stroke-linejoin="round" stroke-width="0.5"><title>2025-04-25 21.7km</title><desc>1745588549000</desc></polyline><polyline fill="none" points="169.52073732716963,49.14468696757103 169.58709677413572,49.57137148483889 169.7198156681843,50.09845142177073 169.83041474653874,50.65062929232954 170.00737327185925,51.227904941508314 170.1179723503301,51.80517934812815 170.2506912443787,52.40755131730111 170.42764976958279,52.93462568047107 170.40552995388862,53.43660030153114 170.40552995388862,53.73778462319751 170.89216589869466,53.71268594264984 171.4230414746562,53.58719250463764 171.93179723504,53.33620545253507 172.52903225808404,53.26090929104248 173.08202764985617,53.08521816547727 173.6350230415119,52.95972443386563 174.16589861747343,52.78403311103466 174.38709677418228,52.25695845182054 174.65253456227947,51.7298827568593 174.91797235037666,51.227904941508314 175.29400921671186,50.751025146688335 175.86912442394532,50.399639492097776 176.40000000002328,50.223946492158575 176.90875576040708,50.1486494569981 177.48387096775696,49.9980553232017 178.081105990801,49.872560147050535 178.67834101384506,49.8976591869141 179.27557603700552,50.1486494569981 179.80645161296707,50.37454049914959 180.33732718904503,50.42473848271766 180.86820276500657,50.42473848271766 181.3548387096962,50.42473848271766 181.7972350231139,50.24904549922212 182.21751152083743,49.9980553232017 182.72626728122123,49.84746110480046 183.3013824885711,49.79726301319897 183.83225806453265,49.6466686820786 184.29677419364452,49.42077702685492 184.45161290338729,49.97295629265136 184.60645161289722,50.50003544046194 184.7391705069458,51.05221248415182 184.80552995402832,51.604388391104294 184.96036866353825,52.131464332691394 185.09308755758684,52.70873679453507 185.1815668203635,53.28600801390712 185.33640552998986,53.83817932198872 185.60184331797063,54.34015225194162 185.82304147467948,54.89232138975058 186.0,55.44448939090944 186.0,55.99665625533089 185.6903225807473,56.47352672339184 185.4912442396162,57.00059309654171 185.02672811062075,57.35197010319098 184.51797235023696,57.653150028258096 184.09769585251343,57.979427898768336 183.56682027643546,58.205312345788116 183.01382488477975,58.255508863774594 182.46082949312404,58.35590187154594 181.92995391704608,58.50649131272803 181.42119815666229,58.53158954466926 180.95668202766683,58.255508863774594 180.49216589855496,58.23041060596006 179.93917050689925,58.10491928170086 179.43041474651545,57.929231329093454 178.87741935485974,57.8288381617167 178.39078341017012,57.80373986394261 177.837788018398,57.879034750076244 177.30691244243644,58.00452618004056 176.7539170506643,58.05472273554187 176.2672811059747,58.280607119202614 175.78064516128507,58.55668777428218 175.22764976962935,58.65708066924708 174.71889400924556,58.83276814519195 174.29861751152202,59.15904458073783 173.76774193556048,59.234339086397085 173.2589861751767,59.38492803441477 172.77235023048706,59.66100755284424 172.15299539174885,59.736301917611854 171.7990783409914,60.188067662587855 171.22396313364152,60.363754135672934 170.6709677419858,60.43904830311658 170.20645161287393,60.7653227847768 169.76405529957265,61.1166948597529 169.2995391705772,61.44296851722174 168.7907834101934,61.769241777743446 168.2820276498096,62.07041674290667 167.75115207373165,62.27119986520847 167.26451612904202,62.07041674290667 166.80000000004657,62.34649349737447 166.4018433180172,62.72296134082717 165.8930875576334,62.973939609655645 165.42857142852154,63.25001543408143 165.141013824963,63.67667751305271 164.78709677420557,64.00294805664453 164.7649769585114,64.37941357539967 164.21198156685568,64.55509730332415 163.65898617508356,64.68058560995269 163.0617511520395,64.90646441400168 162.48663594480604,65.08214779675473 161.91152073733974,65.33312385823228 161.38064516126178,65.13234302782803 160.82764976960607,65.05705017768196 160.3631336406106,64.80607385796611 159.85437788022682,65.10724541349919 159.34562211995944,65.35822145146085 159.14654377882835,65.83507527675829 159.14654377882835,66.33702575607458 158.59354838705622,66.61309811924002 158.08479262667242,66.9142676460906 157.5981566819828,67.19033941524685 157.08940092171542,67.46641090034973 156.55852534563746,67.7675794691022 155.9612903225934,68.01855301816249 155.54101382486988,67.64209260654752 155.0322580644861,67.7675794691022 154.50138248852454,68.06874769969727 153.97050691244658,68.36991559230955 153.5059907833347,68.67108314682264 153.30691244232003,69.1479310831055 153.5059907833347,69.72516692458885 153.41751152079087,70.20201298734173 152.842396313441,70.5282755944936 152.48847926268354,70.85453780487296 152.73179723508656,71.40667294920422 152.15668202773668,71.68274009536253 151.62580645165872,71.95880695735104 151.05069124419242,72.20977658531046 150.51981566823088,72.33526131126564 150.01105990784708,72.71171513697482 149.48018433176912,72.91249029463506 148.94930875580758,73.21365274951677 148.5511520737782,72.91249029463506 148.28571428568102,72.31016437080689 147.71059907833114,72.31016437080689 147.15760368667543,72.53603675070917 146.60460829501972,72.56113367003854 145.9852534562815,72.41055211858475 145.41013824893162,72.20977658531046 144.90138248854782,72.08429180059466 144.39262672816403,71.98390393066802 143.95023041474633,71.65764309378574 143.39723502309062,71.63254608993884 142.80000000004657,71.5823520750564 142.42396313371137,71.90861300352844 142.31336405535694,72.4607459785475 142.40184331790078,73.03797469194978 142.62304147472605,73.5650085194793 142.75576036877465,74.09204131166916 142.75576036877465,74.66926651523681 142.93271889409516,75.22139380857698 143.021198156639,75.74842334692948 143.0875576037215,76.3256449867331 143.22027649765369,76.80247931761551 143.26451612904202,77.27931280102348 143.50783410144504,77.78124186804052 143.5299539170228,78.28316999602248 143.44147465447895,78.78509718499845 143.7069124423433,79.33721600839635 143.72903225803748,79.8893336954643 143.35299539170228,80.34106550354045 142.8442396313185,80.59202729046228 142.3354838710511,80.74260424988461 141.93732718902174,81.1190462789964 141.67188940092456,81.59587209080928 141.49493087560404,82.12288910747156 141.29585253458936,82.62480911333114 141.22949308762327,83.17692003535922 141.16313364054076,83.77922156368732 141.03041474649217,84.10546766026528 140.58801843319088,84.30623429184197 140.12350230419543,84.58228816490737 139.6368663593894,84.85834175397758 139.03963133646175,84.93362904715468 138.59723502316047,85.20968227472622 138.59723502316047,85.71159650626942 138.86267281102482,86.23860543908086 139.28294930886477,86.64013535980484 139.08387096773367,87.06676024207263 138.5529953916557,87.14204691560008 137.97788018430583,87.1922380195465 137.46912442392204,87.34281127509894 136.91612903226633,87.49338444616296 136.34101382491644,87.71924404418678 135.876497695921,88.04548535030335 135.56682027655188,87.49338444616296 135.6110599078238,86.86599567605299 135.27926267276052,86.43937047451618 134.70414746541064,86.21350979903946 134.19539170514327,86.23860543908086 133.9078341013519,86.74051774601685 133.57603686628863,87.24242911412148 133.1115207374096,87.59376651313505 132.64700460829772,87.920007971843 132.2267281106906,88.24624903386575 132.13824884791393,88.62268053556909 132.49216589867137,89.09949301299639 132.49216589867137,89.55120931530837 132.7354838710744,90.00292485722457 132.6691244239919,90.40444914496038 132.95668202766683,90.88125845632749 132.93456221197266,91.43335238992586 133.39907834096812,91.65920867180103 133.77511520730332,92.01054028788349 134.106912442483,92.46225168986712 134.65990783413872,92.56263189815218 135.12442396313418,92.76339220203226 135.12442396313418,93.31548226333689 134.94746543781366,93.84247626233264 134.70414746541064,94.34437434669235 134.4165898617357,94.77098698043847 133.86359447008,94.77098698043847 133.31059907830786,94.87136632509646 132.75760368665215,94.97174563226872 132.2267281106906,95.1725041338068 131.67373271891847,95.4234520496102 131.07649769587442,95.57402068641386 130.47926267283037,95.67439973072032 129.88202764978632,95.74968398927012 129.28479262674227,95.74968398927012 128.68755760369822,95.69949448588886 128.11244239634834,95.59911545104114 127.51520737318788,95.44854682826553 126.96221198153216,95.24778853321914 126.45345622114837,95.02193527168129 125.94470046076458,94.79608182009542 125.4359447004972,94.46984872122994 124.97142857150175,94.09342542188824 124.52903225808404,93.74209653280559 124.13087557605468,93.79228640225483 123.64423963136505,93.74209653280559 123.20184331806377,93.49114704472595 122.84792626730632,93.13981736707501 122.38341013831086,92.88886731569073 121.87465437792707,92.63791702975868 121.43225806450937,92.28658623501542 121.10046082944609,91.88506476348266 120.61382488487288,91.91015987310675 120.19354838714935,91.60901840336737 119.81751152069774,91.2325910909858 119.28663594473619,91.18240074274945 118.88847926270682,90.80597283196403 118.73364055308048,90.25387760746526 118.37972350220662,89.90254369133618 117.91520737321116,90.10330598548171 117.67188940092456,90.58011583192274 117.2073732719291,90.90635365975322 116.6322580644628,90.98163925606059 116.12350230419543,90.98163925606059 115.81382488482632,90.52992536165402 115.43778801849112,90.10330598548171 115.10599078342784,89.72687656086055 114.8847926268354,89.22496983988094 114.68571428570431,88.69796677253908 114.48663594468962,88.12077174926526 114.37603686645161,87.54357548433472 114.24331797240302,86.99147354744491 114.1327188940486,86.38917922976543 114.0663594470825,85.78688356006751 114.02211981569417,85.18458653846756 114.0,84.60738395745284 114.02211981569417,84.05527597889886 114.1327188940486,83.50316686436418 114.17695852532052,82.95105661370326 114.19907834101468,82.39894522691611 114.22119815659244,81.89702479852713 114.30967741936911,81.31981514510699 114.53087557607796,80.74260424988461 114.70783410139848,80.16539211303461 114.86267281102482,79.63837125129066 115.12811059912201,79.11134935429436 115.3935483872192,78.5843264220457 115.6368663595058,78.0322060493636 115.99078341014683,77.55537390403333 116.30046082939953,77.02834791538771 116.65437788027339,76.55151398590533 117.03041474660859,76.07467920894851 117.40645161294378,75.64803684799699 117.80460829485673,75.2464904767985 118.24700460827444,74.97042699792655 118.57880184333771,74.61907306857756 118.97695852536708,74.19242839282379 119.48571428575087,73.84107344452059 120.06082949321717,73.5650085194793 120.56958525348455,73.21365274951677 121.12258064525668,72.93758717880701 121.71981566818431,72.6866182317026 122.25069124426227,72.43564904975938 122.78156682034023,72.20977658531046 123.31244239630178,71.98390393066802 123.84331797237974,71.75803108586115 124.39631336403545,71.53215805086074 124.97142857150175,71.33138186018914 125.54654377873521,71.13060551913804 126.12165898620151,70.87963488153764 126.71889400924556,70.72905238624662 127.27188940090127,70.5282755944936 127.8248847926734,70.37769290202414 128.40000000002328,70.20201298734173 128.952995391679,70.02633295758278 129.50599078345113,69.82555563989445 130.081105990801,69.64987536359695 130.67834101384506,69.44909776409622 131.20921658992302,69.19812555346289 131.80645161285065,69.02244486627751 132.3373271889286,68.82166679715738 132.89032258058432,68.62088857780327 133.46543778805062,68.42011020818609 134.01843317970634,68.21933168827672 134.57142857147846,67.96835832711076 135.10230414744,67.79267683453509 135.6110599078238,67.54170307418099 136.14193548390176,67.36602130226674 136.6949308756739,67.19033941524685 137.22580645151902,66.98955997495796 137.6903225806309,66.81387784137041 138.19907834101468,66.63819559279364 138.6414746544324,66.48761071669287 139.17235023039393,66.23663573531667 139.7032258064719,66.0107580513577 140.25622119824402,65.73468506819336 140.7649769585114,65.35822145146085 141.31797235028353,65.03195255630999 141.87096774193924,64.88136677851435 142.35760368662886,64.45470661568106 142.86635944701266,64.05314348966931 143.1539170506876,63.60138425428886 143.50783410144504,63.074330851377454 143.88387096778024,62.59747211835929 144.23778801842127,61.99512303335359 144.61382488475647,61.39277259566006 144.9677419355139,60.84061683964683 145.43225806450937,60.31355801221798 145.83041474653874,59.78649814904202 146.25069124426227,59.30963357104338 146.69308755767997,58.85786634663236 147.15760368667543,58.4060983613017 147.66635944705922,57.979427898768336 148.19723502302077,57.55275675741723 148.77235023037065,57.201380013808375 149.3032258064486,56.850002809864236 149.8783410139149,56.57392039813567 150.40921658987645,56.34803457715316 150.96221198153216,56.046853186620865 151.53732718899846,55.820966921775835 152.1345622120425,55.620178971090354 152.73179723508656,55.59508046659175 153.35115207382478,55.544883450784255 153.9483870967524,55.49468642557622 154.54562211979646,55.26879969568108 155.12073732726276,55.068011331604794 155.74009216600098,55.04291277556331 156.3373271889286,55.19350407680031 156.93456221197266,55.19350407680031 157.50967741943896,55.04291277556331 158.06267281109467,54.842124242393766 158.68202764971647,54.842124242393766 159.3013824884547,54.842124242393766 159.87649769580457,55.04291277556331 160.4294930875767,55.218602618726436 161.00460829492658,55.16840553242946 161.60184331797063,54.96761709326529 162.24331797240302,54.842124242393766 162.86267281114124,54.79192708566552 163.43778801849112,54.691532743920106 164.012903225841,54.691532743920106 164.61013824888505,54.56603976388578 165.18525345623493,54.46564533765195 165.82672811066732,54.41544811031781 166.49032258056104,54.31505362770986 167.10967741941568,54.21465910747065 167.75115207373165,54.08916590435547 168.39262672816403,53.988771299569635 168.98986175120808,53.91347532128566 169.58709677413572,53.96367264256696 170.14009216590784,53.76288330141688 170.40552995388862,53.311106734356144 170.2949308756506,52.758934341196436 170.1179723503301,52.15656316123204 170.02949308755342,51.604388391104294 169.89677419350483,51.077311413682764 169.76405529957265,50.550233400426805 169.63133640552405,50.04825337714283 169.52073732716963,49.4960742664116 169.38801843323745,48.99409227009164 169.25529953918885,48.46701016268344 169.12258064525668,47.814430880272994 168.92350230412558,47.18694930354832 168.9677419355139,46.30847262957832 169.56497695855796,46.15787633942091 170.162211981602,46.107677557185525 170.7373271889519,45.93198174555437 171.2903225806076,45.881782921089325 171.84331797237974,45.756285818788456 172.4405529954238,45.63078865784337 173.03778801846784,45.555490333004855 173.32534562214278,45.12879942654399 173.3695852534147,44.551510648889234" stroke="#4DD2FF" stroke-linecap="round" stroke-linejoin="round" stroke-width="0.5"><title>2025-04-22 10.2km</title><desc>1745324081000</desc></polyline><polyline fill="none" points="69.0305967888562,129.08881473954534 69.29233565588947,130.0787844309525 69.5758860950591,131.34099041306763 69.94668282335624,132.42994759630528 70.03392911236733,133.14766692457488 71.12450772488955,132.70218619148363 72.25870948191732,132.47944554346032 73.37109966669232,132.18245772106457 73.89457740075886,131.24199408316053 74.43986670707818,130.27677792464965 75.42138745833654,129.633298528468 76.55558921536431,129.38580603606533 77.7552256891504,129.21256115363212 78.91123901843093,129.633298528468 80.00181763095316,129.75704468775075 81.13601938798092,129.50955231118132 82.1829748559976,129.1878118753957 83.31717661314178,128.81657242472284 83.7752196303336,129.80654313528794 83.99333535286132,130.96975398485665 84.29869736428373,132.2319557146111 84.66949409258086,133.46940254294896 85.14934868214186,134.63259728241246 84.8003635260975,135.79578690600465 84.08058164187241,136.6867372004781 83.0554377459921,137.33019943538238 81.87761284445878,137.52818750045844 80.65616479853634,137.77567237336189 79.52196304139215,137.50343900048756 78.36594971222803,137.13221122213872 77.1881248105783,137.10746268506045 75.94486519240309,137.33019943538238 74.8106634352589,137.82516932010185 73.67646167823114,138.27064142440213 72.5204483489506,138.64186760483426 71.38624659192283,139.01309326427872 70.33929112390615,139.48331168477307 69.31414722802583,140.1762636229978 68.3108149045147,140.89396193085122 67.17661314748693,141.43842141708592 66.12965767947026,141.58691017341334 65.08270221133716,142.25510854503955 64.23205089359544,143.04704517006758 63.59951529826503,143.66574400858372 62.48712511349004,144.01221472601173 61.41835807322059,144.43292855852633 60.34959103295114,144.2101977893908 59.324447137187235,144.28444139991188 58.71372311422601,145.00212856091093 58.059375946526416,145.79405696151662 56.92517418961506,146.43749704115908 55.76916086021811,147.00669273006497 54.831263253465295,146.75921649407246 53.74068464105949,147.37790664992644 52.933656467706896,148.19457543990575 53.10814904572908,149.28346323780715 52.126628294354305,149.87740014740848 51.77764313830994,150.7435557502904 50.75249924266245,151.26324775067042 49.72735534678213,151.63445569737814 48.70221145101823,152.20364020386478 48.00424113904592,151.38698379075504 46.93547409866005,151.51071977303945 45.82308391388506,151.46122538708732 44.68888215685729,151.1147644261946 43.59830354433507,150.6693139526178 42.44229021505453,150.71880848667934 42.115116631262936,151.70869722412317 42.48591335956007,152.77282348574954 42.57315964845475,153.83694546678453 42.79127537109889,154.92581003982923 42.9439563768683,155.96517658780795 43.38018782180734,157.05403240129817 43.44562253856566,158.09339058809564 43.20569524378516,159.18223764238064 42.13692820351571,159.65242021228187 41.43895789142698,160.56803650295478 41.046349590993486,161.65687337267445 41.024538018740714,162.84469030163018 40.17388670099899,163.36435853119474 39.083308088360354,163.7850415885041 38.45077249314636,164.47792987182038 39.10511966061313,165.41827535393531 38.38533777638804,165.9379385286593 37.294759163749404,166.16065100530977 36.13874583458528,166.53183805002482 35.46258709486574,166.30912588571664 35.113601938821375,165.26979997364106 34.02302332618274,165.14607042641728 33.412299303221516,166.18539682452683 32.408966979710385,166.8782788218814 32.27809754619375,167.69488741789246 32.71432899113279,168.73420380413882 32.91063314140774,169.6497886668949 33.3468645864632,170.392152446002 34.15389275981579,171.2582408893213 35.113601938821375,171.70365669915918 34.65555892139673,172.94091890362324 33.67403817025479,173.53480270685395 32.43077855196316,173.78225389818544 31.25295365031343,174.22766545938794 29.94425931526348,174.52460608366528 28.72281126922462,174.40088086406467 27.501363223302178,174.15343025128823 26.41078461066354,173.70801856505568 25.40745228715241,173.08938997937366 24.469554680399597,172.4460147160571 23.466222356888466,172.37177900812821 22.571947894524783,171.7284019998915 21.568615570897236,171.08502342741122 20.674341108766384,170.6396065762383 19.75825507414993,169.99622535629896 18.84216903964989,169.3775880926696 18.035140866297297,169.35284257208696 16.966373826027848,169.77351610804908 15.963041502516717,169.3033515238203 15.243259618291631,168.4867478919041 14.82883974548895,167.39793912909226 14.52347773395013,166.284380078112 14.28355043916963,165.0965785913868 14.218115722527727,163.83453366887989 14.261738867033273,162.62197503366042 14.392608300433494,161.4341571047553 14.545289306202903,160.27108021531603 14.872462889994495,159.1327446916548 15.330505907302722,158.0438974337012 15.98485307476949,156.9302990117867 16.682823386858217,155.9156830353022 17.358982126577757,155.0000506429351 18.122387155424803,154.18340286251623 19.01666161767207,153.44099360177643 19.998182368814014,152.74807641195366 21.023326264694333,152.12939881594502 22.135716449469328,151.65920287530753 23.22629506199155,151.18900609889533 24.425931535777636,150.84254478145158 25.4946985761635,150.32285195458098 26.607088760938495,149.95164216737612 27.697667373577133,149.70416868652683 28.78824598598294,149.30821063564508 29.94425931526348,148.88750455711852 31.18751893355511,148.4667978095531 32.34353226295207,148.02134287694935 33.434110875357874,147.50164450745797 34.65555892139673,146.95719750138232 35.942441684310324,146.48699236707762 37.16388973034918,145.99203869115445 38.38533777638804,145.5465795910568 39.475916388910264,145.34859752794728 40.65374129044358,144.63091130700195 41.76613147533499,143.86372733127791 42.747652226593345,143.04704517006758 43.44562253856566,142.00762786343694 44.27446228405461,140.91871011367766 44.972432596143335,139.80503959622 45.735837624873966,138.76560954915476 46.63011208712123,137.8746662576741 47.56800969399046,137.00846851366805 48.593153589754365,136.3402568870806 49.64010905788746,135.77103824392543 50.81793395942077,135.15232093801023 52.017570433206856,134.75634110256215 53.21720690687653,134.38510946842143 54.41684338077903,134.1871190505335 55.63829142670147,134.08812378597213 56.8815510449931,134.11287260553217 57.9939412297681,134.11287260553217 59.17176613130141,134.06337496399647 60.393214177456684,134.11287260553217 61.52741593448445,134.0386261398089 62.748863980639726,133.9396308196301 63.92668888217304,133.84063546246034 65.12632535584271,133.6673934982391 66.34777340199798,133.5189002957486 67.5255983035313,133.32090922931093 68.7906694940757,133.19716473756125 70.07755225687288,133.07342018789495 71.25537715840619,132.62793932962813 72.34595577092841,132.3804496397497 73.48015752795618,132.08346170611912 73.98182368965354,130.9450048711733 74.74522871850058,129.8560415734828 75.94486519240309,129.50955231118132 77.10087852156721,129.26205970306182 78.32232656760607,129.33630750980228 79.45652832463384,129.75704468775075 80.67797637078911,129.73229546050425 81.74674341094214,129.21256115363212 82.88094516808633,129.03931615769397 83.64435019693337,129.28680897431332 83.927900636103,130.47477126997546 84.21145107538905,131.61323012926732 84.38594365341123,132.77643303244258 84.887609815225,133.89013314567273 85.17116025439464,135.02857730310643 84.73492880933918,136.0927706710063 83.84065434720833,136.85997718694853 82.81551045132801,137.45394199341536 81.65949712204747,137.6024329866632 80.50348379265051,137.6766784520296 79.30384731898084,137.42919348645955 78.16964556195308,137.0579656039772 77.01363223267253,137.10746268506045 75.81399575888645,137.37969646553393 74.76704029075336,137.8499177900958 73.74189639498945,138.29538985263207 72.62950621021446,138.56762241042452 71.51711602543946,138.93884817397338 70.64465313532855,139.43381504830904 69.5758860950591,139.97827754021273 68.63798848830629,140.72072458657203 67.56922144792043,141.2404362790694 66.5658891244093,141.3146807231824 65.60617994540371,142.00762786343694 64.79915177216753,142.70057318839827 64.29748561035376,143.46776053775102 63.250530142337084,143.7647356884554 62.13813995756209,144.1854499145993 61.06937291729264,144.3834328483208 60.044229021528736,143.96271893708035 59.01908512564842,144.48242425953504 58.648288397467695,145.47233633472933 57.57952135708183,146.1900202726829 56.532565889065154,146.6107306413469 55.551045137806796,147.13043076122995 54.65677067544311,146.88295464107068 53.63162677967921,147.42740179982502 52.97727961221244,148.2440704369219 53.06452590122353,149.28346323780715 52.10481672210153,149.85265280280146 51.84307785506826,150.71880848667934 50.774310814915225,151.28799496340798 49.79279006354045,151.63445569737814 48.745834595523775,152.1788930768962 48.00424113904592,151.38698379075504 46.93547409866005,151.53546696249396 45.801272341632284,151.46122538708732 44.71069372911006,151.13951165272738 43.64192668884061,150.6693139526178 42.507724931812845,150.6693139526178 42.09330505901016,151.63445569737814 42.420478642801754,152.6985822575225 42.57315964845475,153.81219849258196 42.79127537109889,154.9505569098401 42.92214480461553,155.96517658780795 43.38018782180734,157.029285727971 43.4238109664293,158.09339058809564 43.22750681603793,159.23173058382235 42.13692820351571,159.65242021228187 41.46076946367975,160.51854381154408 41.024538018740714,161.63212712996756 41.024538018740714,162.8199441700417 40.17388670099899,163.36435853119474 39.083308088360354,163.7850415885041 38.42896092089359,164.4531838929397 39.061496516224,165.3440376741928 38.603453498799354,165.98743020629627 37.60012117528822,166.06166770550772 36.59678885189351,166.383363294648 35.637079672771506,166.8040415517753 35.44077552249655,165.64098826801637 34.546501060249284,165.04708674704307 33.761284459149465,165.66573413577862 32.8670099969022,166.53183805002482 31.950923962402157,167.1999734181736 32.365343835088424,168.21454612130765 32.4744016964687,169.10538723843638 32.757952135638334,170.11995263549034 33.56498030887451,170.68909737450304 34.481066343490966,171.38196757837432 35.026355649810284,172.09958123401157 34.56831263250206,173.16362548604957 33.73947288701311,173.68327344942372 32.6270827021217,173.83174410866923 31.536504089599475,174.20292039227206 30.33686761581339,174.45037095886073 29.11541956977453,174.49986104437266 27.937594668241218,174.37613581321784 26.825204483466223,174.02970485805417 25.756437443196774,173.48531244086917 24.840351408580318,172.71821213371004 23.85883065732196,172.5697408497217 22.920933050569147,171.95110960284364 21.895789154805243,171.38196757837432 21.00151469244156,170.66435197653482 20.08542865794152,170.21893441714928 19.125719478935935,169.79826158931246 18.667676461627707,168.85793167343945 17.86064828839153,169.20436939966748 17.031808542786166,169.84775254499982 16.115722508286126,169.55080667228322 15.374129051808268,168.80844053259352 14.850651317741722,167.86810709911515 14.458043017191812,166.75455002687522 14.218115722527727,165.59149652556516 14.065434716758318,164.35419995422126 14.021811572136357,163.11689759683213 14.087246288894676,161.80535078045796 14.28355043916963,160.61752918519778 14.567100878455676,159.4049558059487 15.090578612522222,158.3903493200778 15.701302635483444,157.35099229990738 16.333838230813853,156.36112467487692 16.922750681522302,155.42074700054945 17.598909421358258,154.55460671160836 18.44956073909998,153.7627045372792 19.387458345852792,152.97079999232665 20.281732808216475,152.40161713643465 21.37231142062228,151.9066745271557 22.441078461008146,151.41173099188018 23.55346864578314,150.99102825880982 24.57861254166346,150.5208302946994 25.712814298691228,150.12487346620765 26.759769766707905,149.902147489629 27.80672523472458,149.6546739625628 28.897303847246803,149.30821063564508 29.87882459850516,148.91225199197652 30.838533777627163,148.61528262041975 31.820054528769106,148.19457543990575 32.8670099969022,147.7986151293153 33.97940018167719,147.42740179982502 35.069978794199415,146.9819451168587 36.16055740683805,146.58598299112055 37.16388973034918,146.26426332749543 37.97091790358536,145.7445615059405 38.97425022709649,145.32384975958848 40.043017267482355,144.82889390722266 41.08997273549903,144.1607020374504 42.04968191450462,143.44301259348867 42.9439563768683,142.65107715394697 43.70736140559893,141.7353988463292 44.44895486207679,141.14144365448738 44.645259012351744,140.2505083658907 45.321417752071284,139.35957007625257 46.01938806416001,138.54287400763133 46.78279309289064,137.7261754172796 47.67706755513791,136.93422286072746 48.63677673425991,136.3155082758458 49.57467434112914,135.8700328785926 50.381702514365315,135.32556192955235 51.40684641012922,134.97907983296318 52.519236594904214,134.63259728241246 53.58800363517366,134.38510946842143 54.65677067544311,134.1871190505335 55.57285670994315,134.1871190505335 56.5761890335707,134.1871190505335 57.57952135708183,134.16237023781287 58.648288397467695,134.11287260553217 59.65162072086241,134.08812378597213 60.6985761889955,134.06337496399647 61.76734322938137,134.06337496399647 62.8361102695344,134.16237023781287 63.948500454309396,134.21186786086764 65.0608906392008,133.84063546246034 66.12965767947026,133.5189002957486 67.13299000286497,133.37040700981743 68.22356861550361,133.22191364053288 69.24871251126751,133.2466625412344 70.38291426829528,132.99917343028937 71.36443501955364,132.52894348150585 72.38957891543396,132.4051986192062 73.3929112390615,132.10821071342798 73.8509542561369,131.24199408316053 74.30899727356154,130.30152710090624 75.11602544679772,129.65804776491132 76.14116934256162,129.53430155929527 77.1226900939364,129.28680897431332 78.12602241733111,129.3115582432365 79.06392002420034,129.75704468775075 80.13268706446979,129.83129235552042 81.09239624359179,129.58380004853825 82.07391699473374,129.21256115363212 83.07724931836128,128.94031896619708 83.99333535286132,128.39583375054644 84.93123295961414,128.14834010010236 85.97818842763081,127.67810152613674 85.84731899411418,126.71287236001808 85.67282641620841,125.67339085642016 84.77855195384473,125.64864124704036 83.64435019693337,125.92088682312169 82.51014843978919,126.24263123350102 81.44138139951974,126.58912477616104 80.37261435913388,126.88611888000742 79.32565889123362,127.18311265029479 78.2350802787114,127.52960496072774 77.27537109958939,127.82659800827969 76.92638594366144,126.86136938413256 76.66464707662817,125.84663805743912" stroke="yellow" stroke-linecap="round" stroke-linejoin="round" stroke-width="0.5"><title>2025-04-18 20.5km</title><desc>1744979276000</desc></polyline><polyline fill="none" points="170.43243243242614,133.91842136677587 170.76412776403595,133.8682394248899 171.36117936111987,133.64242057019146 171.98034398024902,133.36641948952456 172.71007371007,133.2660553897731 173.3513513513608,133.0402360278822 174.0589680589037,132.9147807446716 174.41277641279157,132.33768568589585 174.7002457001945,131.6351335029467 175.09828009828925,131.00785321259173 175.65110565104987,130.4809366344998 176.33660933654755,130.28020623710472 177.06633906636853,130.12965834050556 177.77395577391144,129.95401902092271 178.5036855037324,129.92892768015736 179.21130221127532,130.12965834050556 179.89680589688942,130.40566275309538 180.51597051601857,130.50602792363497 181.24570024572313,130.4809366344998 181.86486486485228,130.2551149268984 182.48402948409785,129.95401902092271 183.23587223584764,129.85365364377503 183.92137592134532,129.62783140782267 184.42997543001547,129.70310550762224 184.56265356263611,130.4809366344998 184.7174447174184,131.1584006161429 184.85012285003904,131.8860452081426 185.07125307130627,132.6387789149885 185.2039312039269,133.4166015253286 185.4692874692846,134.14423998902203 185.75675675680395,134.8216947146284 186.0,135.49914772858028 185.8894348894246,136.2016897870344 185.55773955769837,136.85404862169526 185.07125307130627,137.33077138170484 184.4520884520607,137.7071308567247 183.87714987713844,138.10858038120205 183.23587223584764,138.33439547460875 182.55036855034996,138.3845765806036 181.86486486485228,138.56021037779283 181.15724815730937,138.43475767725613 180.47174447169527,138.23403323433013 179.7862407861976,138.0583992235479 179.07862407853827,137.8827650976309 178.37100737099536,137.80749329426908 177.70761670765933,137.9078556941531 177.02211302204523,138.03330864114105 176.33660933654755,138.20894266839605 175.7174447174184,138.61039144155802 175.00982800975908,138.7107535409741 174.39066339062992,139.036930104543 173.77149877150077,139.2627444161335 173.17444717430044,139.4383776380855 172.53316953312606,139.66419161163503 171.95823095820379,139.96527661383152 171.40540540544316,140.3165420224541 170.71990171994548,140.4670841995685 170.12285012286156,140.94380053618806 169.59213759202976,141.3703354873869 169.06142506143078,141.79686976023368 168.44226044218522,142.0979523678543 167.82309582305606,142.34885428257985 167.2481572481338,142.1983131619054 166.67321867321152,142.4993953188241 166.14250614249613,142.87574753945228 165.56756756757386,143.15173883226817 165.3243243242614,143.55318020566483 164.97051597060636,143.90444091439713 164.77149877150077,144.35606114959228 164.17444717441685,144.53169103563414 163.57739557733294,144.6822308464034 163.00245700252708,144.90804040405783 162.40540540532675,145.13384977166425 161.85257985256612,145.40983874042286 161.32186732185073,145.18402960529784 160.81326781318057,145.10875985131133 160.3488943488337,144.88295046260464 159.7518427518662,145.20911951857852 159.2653562653577,145.5101982950291 159.22113022115082,146.08726500504417 159.02211302204523,146.563971350668 158.4692874692846,146.839958847675 157.93857493856922,147.09085632566712 157.42997542989906,147.44211240060395 156.87714987713844,147.66791963443393 156.3243243243778,147.9689956503862 155.8378378378693,148.14462317022844 155.4619164619362,147.7431886701088 154.8869778868975,147.9689956503862 154.33415233402047,148.29516095289728 153.7592137590982,148.62132585872314 153.3832923831651,149.0729381502897 153.47174447169527,149.67508668944356 153.62653562647756,150.20196555214352 153.07371007360052,150.55321755216573 152.54299754288513,150.80411155632464 152.7862407861976,151.35607753912336 152.27764127764385,151.7324173305824 151.72481572488323,152.00839950877707 151.19410319405142,152.30947065190412 150.6412776412908,152.38473838483333 150.110565110459,152.68580910554738 149.53562653565314,152.98687948822044 148.9828009827761,153.28794953296892 148.54054054047447,152.88652273151092 148.2309582309099,152.33455989859067 147.63390663382597,152.40982762453496 147.08108108106535,152.6105414571066 146.46191646181978,152.63563067559153 145.8869778868975,152.40982762453496 145.28992628993,152.18402438334306 144.6486486486392,152.0836673262238 144.11793611792382,151.80768522553262 143.58722358720843,151.68223872227827 142.9901719901245,151.68223872227827 142.503685503616,151.90804238594137 142.3488943488337,152.46000609677867 142.45945945940912,153.03705785248894 142.6142506141914,153.56393011036562 142.83538083534222,154.06571225079824 142.79115479113534,154.6176715209731 142.92383292375598,155.19471863427316 143.05651105637662,155.7466755809437 143.12285012286156,156.4240757357329 143.23341523343697,156.95094133997918 143.3660933660576,157.47780590920593 143.6314496314153,158.00466944341315 143.47665847663302,158.53153194271727 143.58722358720843,159.0333047894528 143.80835380824283,159.61034240270965 143.69778869778384,160.16229026237852 143.23341523343697,160.53861769734067 142.63636363635305,160.73932544674608 142.08353808347601,161.09056364677963 141.7518427518662,161.6425084604707 141.55282555276062,162.21954046035535 141.30958230956458,162.79657121896162 141.26535626524128,163.42377715726616 141.26535626524128,164.05098162891227 140.80098280089442,164.2767748797487 140.33660933654755,164.6029203508515 139.73955773958005,164.85380121262278 139.1203931204509,165.02941767626908 138.65601965598762,165.330474203598 138.5454545454122,165.95767421694472 139.05405405408237,166.40925731847528 139.40786240785383,166.93610330938827 138.78869778872468,167.21206984401215 138.12530712527223,167.23715769677074 137.5282555281883,167.41277260001516 136.8869778868975,167.58838738829945 136.24570024572313,167.8643532518472 135.73710073705297,168.06505551980808 135.58230958227068,167.38768476370024 135.56019656010903,166.76048809406348 135.02948402939364,166.43434524623444 134.4103194102645,166.2587297023856 134.0343980343314,166.71031229713117 133.7248157247668,167.23715769677074 133.26044226041995,167.6887386442395 132.72972972970456,168.0399677444948 132.19901719898917,168.36610864009708 132.28746928740293,168.84277538966853 132.5970515969675,169.34452894778224 132.72972972970456,169.84628156744293 132.61916461912915,170.2978581226489 132.99508599506225,170.77452143962728 132.92874692869373,171.3013588571048 133.28255528246518,171.72784553247038 133.70270270260517,171.97871973077417 134.07862407853827,172.45538006103016 134.60933660925366,172.6811662375403 135.1621621621307,172.78151558846002 135.20638820633758,173.38361090506078 134.98525798518676,173.96061764881597 134.74201474199072,174.53762315146741 134.27764127764385,174.8386690079933 133.74692874692846,174.9139304193668 133.17199017188977,174.98919180961093 132.61916461912915,175.18988874700153 132.02211302216165,175.4407597076497 131.38083538075443,175.61636924056802 130.76167076162528,175.74180455078022 130.12039312033448,175.84215275666793 129.47911547904368,175.89232684558374 128.8378378378693,175.81706570874667 128.1965601964621,175.7167174933711 127.57739557733294,175.54110802622745 126.95823095820379,175.36549844412366 126.36117936111987,175.0895402971073 125.80835380835924,174.8135818662122 125.32186732185073,174.43727445759578 124.8353808352258,174.01079208956799 124.39312039304059,173.8100942701276 123.99508599506225,173.88535597003647 123.46437346434686,173.73483254906023 123.08845208841376,173.35852362716105 122.5798525797436,173.0323888011917 121.9385749384528,172.73134091764223 121.38574938569218,172.2546810778149 120.85503685497679,171.87837007959024 120.25798525789287,171.80310781660955 119.793611793546,171.25118390950956 119.17444717441685,171.05048402538523 118.8206388206454,170.5738211988646 118.59950859937817,169.97171957566752 118.0245700244559,170.07206994009903 117.71498771489132,170.5989087370981 117.29484029475134,171.00030903090374 116.60933660937008,171.12574649957241 116.03439803433139,171.00030903090374 115.63636363623664,170.39820836498984 115.19410319405142,169.9466319787025 114.97297297301702,169.4197919005237 114.72972972970456,168.76751227502245 114.53071253071539,168.1403188316035 114.39803439797834,167.58838738829945 114.24324324307963,166.93610330938827 114.15479115478229,166.33399352096603 114.08845208841376,165.73188238107832 114.04422604420688,165.1046818397299 114.04422604420688,164.47747983201407 114.24324324307963,163.87536452469067 114.55282555264421,163.34851252203225 115.26044226030353,163.34851252203225 115.79115479113534,163.373600736144 116.34398034389596,163.3234243056504 116.65356265346054,162.9471007779648 116.74201474199072,162.29480541235534 116.87469287472777,161.6425084604707 117.05159705155529,161.04038678921643 116.80835380824283,160.53861769734067 116.18918918911368,160.3128212997981 115.59213759214617,160.11211323118187 115.08353808347601,159.86122793424875 115.06142506131437,159.23401366529288 115.32678132667206,158.6569752424548 115.65847665839829,158.1301129895728 115.99017199024092,157.6032497016713 116.36609336605761,157.02620777036645 116.67567567562219,156.4742534569814 117.09582309576217,156.04774252761854 117.51597051590215,155.59614198087365 117.93611793615855,155.11945168994134 118.400491400389,154.69293860610924 118.88697788689751,154.31660296896007 119.37346437340602,153.91517770721111 119.88206388207618,153.56393011036562 120.52334152336698,153.41339528514072 120.94348894339055,153.2628603754565 121.47420147410594,153.01196867154795 122.00491400482133,152.7359875261027 122.51351351349149,152.56036301294807 123.04422604409046,152.3596491429198 123.61916461912915,152.13384585949825 124.14987714984454,151.9833102315606 124.70270270272158,151.7825959296315 125.27764127752744,151.50661351913004 125.80835380835924,151.30589886035887 126.36117936111987,151.08009468970704 126.91400491388049,150.90446909226011 127.48894348891918,150.72884337973665 128.01965601963457,150.5783069631725 128.59459459455684,150.40268103708513 129.1695331694791,150.22705499600852 129.78869778860826,149.95107098473818 130.3415233414853,149.77544464787934 130.93857493856922,149.57472869346384 131.4692874692846,149.34892306529218 132.02211302216165,149.14820679169497 132.5970515969675,148.94749036780559 133.1277641277993,148.77186337372405 133.57002456998453,148.6464154504065 134.07862407853827,148.42060904053506 134.6314496314153,148.1948024404992 135.1179361178074,148.09444389055716 135.67076167068444,147.9188163378567 136.24570024572313,147.66791963443393 136.86486486485228,147.4922918023949 137.39557739556767,147.2413946999004 137.9041769041214,147.0406768488756 138.3243243242614,146.94031786706182 138.83292383281514,146.7145100205671 139.3415233414853,146.5388815641345 139.89434889424592,146.237803942553 140.40294840279967,145.86145644032513 141.02211302216165,145.48510840992094 141.6412776412908,145.0585800035915 142.2383292382583,144.6822308464034 142.74692874681205,144.23061116054305 143.21130221127532,143.7539006670413 143.56511056504678,143.30227941772318 144.02948402951006,142.85065740786376 144.42751842737198,142.34885428257985 144.7592137590982,141.79686976023368 145.1130221131025,141.21979381734855 145.42260442255065,140.6678069709451 145.59950859949458,140.19109014363494 145.9754299754277,139.71437246879213 146.39557739545126,139.2878348834056 146.793611793546,138.83620611240622 147.23587223584764,138.43475767725613 147.67813267814927,137.98312746942975 148.186732186703,137.60676838166546 148.717444717302,137.2554994233069 149.27027027029544,136.9293206926959 149.77886977884918,136.55296012599138 150.30958230956458,136.2267805407464 150.92874692869373,135.95078212031513 151.48157248157077,135.77514661394525 152.01228501228616,135.64969261037186 152.58722358720843,135.5744201799971 153.18427518429235,135.52423854809604 153.8034398034215,135.47405690676533 154.400491400389,135.29842108808225 154.9754299754277,135.14787600908312 155.5724815725116,134.99733084553736 156.213759213686,135.09769429726293 156.8550368549768,135.1729668614862 157.42997542989906,135.12278515438084 157.89434889436234,134.87187647804967 158.5135135134915,134.89696735623875 159.08845208841376,134.8467855975323 159.68550368538126,134.87187647804967 160.17199017188977,135.19805771147367 160.7690417689737,135.29842108808225 161.2997542998055,135.1729668614862 161.87469287461136,134.97223997680703 162.47174447169527,134.87187647804967 163.04668304661755,134.8467855975323 163.6658476657467,135.0224217120267 164.21867321862374,135.07260343784583 164.85995085991453,134.92205823209952 165.47911547904368,134.69624026495148 166.05405405396596,134.52060393677675 166.67321867321152,134.3951493461791 167.27027027017903,134.2195128207968 167.93366093363147,134.09405808939482 168.57493857492227,133.9686032992613 169.21621621621307,133.76787551297457 169.79115479113534,133.64242057019146 170.43243243242614,133.39151050854707 170.29975429968908,132.78932540278765 170.1449631450232,132.16204781271517 169.94594594603404,131.5849511337001 169.813267813297,130.98276197043015 169.70270270272158,130.3554801537539 169.52579852577765,129.7532882290543 169.43734643736389,129.15109495187062 169.30466830462683,128.49871737512876 169.14987714984454,127.8965212799958 168.9729729729006,127.29432383232052 168.95085995085537,126.64194173755823 169.37100737099536,126.24047504397458 169.9901719901245,126.14010827674065 170.58722358720843,126.06483317655511 171.18427518429235,125.9142829128541 171.84766584751196,125.71354909645743 172.40049140050542,125.63827387656784 173.06388206384145,125.63827387656784 173.48402948398143,125.31208101272932 173.4619164619362,124.78515324048931 173.37346437340602,124.18294880411122 172.79852579848375,124.18294880411122" stroke="#4DD2FF" stroke-linecap="round" stroke-linejoin="round" stroke-width="0.5"><title>2025-04-13 10.2km</title><desc>1744542968000</desc></polyline><polyline fill="none" points="70.16707616695203,211.44687411843915 71.05159705155529,211.04541828288347 71.86977886967361,210.7192349738616 72.82063882052898,210.49341552748228 73.74938574933913,210.26759589085123 74.34643734642304,209.66540926354355 74.7002457001945,208.86249165653135 75.20884520874824,208.10975421618787 75.85012285003904,207.63301941094687 76.66830466827378,207.58283675054554 77.46437346434686,207.33192330767633 78.2825552825816,207.25664922906435 79.12285012274515,207.4573800584767 79.94103194097988,207.7584760207974 80.73710073716938,207.85884126648307 81.55528255517129,207.73338470357703 82.24078624078538,207.35701466255705 82.99262899265159,207.2315578648413 83.76658476656303,207.05591824935982 84.3857493858086,206.93046131069423 84.56265356263611,207.83374995854683 84.7174447174184,208.61157941122656 84.89434889436234,209.43958892958472 85.07125307118986,210.24250480846968 85.20393120392691,211.0956002951425 85.57985257986002,211.84832935300074 85.91154791146982,212.65123801870504 85.93366093363147,213.45414428022923 85.53562653565314,214.20686671684962 84.96068796073087,214.7839524872834 84.25307125307154,215.21049334539566 83.54545454541221,215.63703352498123 82.70515970513225,215.71230525098508 81.84275184269063,215.96321085156524 81.04668304673396,215.71230525098508 80.18427518429235,215.61194294499 79.43243243242614,215.3108558015956 78.70270270272158,215.18540272544487 77.9066339066485,215.28576519107446 77.11056511045899,215.43630881907302 76.33660933654755,215.66212410264416 75.606879606843,216.0635730260983 74.83292383293156,216.18902569141937 74.21375921368599,216.64065480054705 73.43980343965814,216.71592624482582 72.79852579848375,217.11737359050312 72.04668304661755,217.29300661530579 71.5380835380638,217.59409153301385 70.69778869778384,217.81990499940002 70.05651105649304,218.37189267229405 69.43734643736389,218.82351810493856 68.79606879607309,219.25005253736163 68.11056511057541,219.5762254690926 67.44717444712296,219.6013156781264 66.8280098278774,219.77694707596675 66.25307125307154,220.22857014232432 65.56756756745744,220.6300122293178 65.12530712515581,221.15690405658097 64.88206388195977,221.75906487714383 64.15233415237162,221.9848748362274 63.400491400505416,222.18559464032296 62.71498771489132,222.46158412549994 62.00737100734841,222.787753150973 61.36609336605761,222.63721365004312 60.702702702605166,222.26086452807067 59.97297297290061,222.56194386800053 59.26535626524128,222.98847235401627 59.28746928740293,223.6909883817425 58.69041769031901,224.1175150721101 57.9828009827761,224.4185923274781 57.27518427511677,224.79493842134252 56.567567567457445,225.19637367263203 55.926289926166646,225.4974497166695 55.35135135136079,225.0960149160819 54.643734643701464,225.4723600592988 53.958230958203785,225.8487046743394 53.449631449533626,226.35049667285057 53.449631449533626,227.00282486714423 53.515970515902154,227.65515147481347 52.786240786197595,227.98131418364937 52.65356265346054,228.60854904705775 52.23341523343697,229.13542519885232 51.481572481570765,229.53685395300272 50.66339066333603,229.66230031551095 49.93366093363147,230.11390673439018 49.181818181765266,230.56551239299006 48.49631449626759,230.2895312475448 47.98771498759743,229.76265736317146 47.19164619164076,229.93828210627544 46.351351351244375,230.01354981822078 45.555282555287704,229.61212177752168 44.73710073705297,229.46158610738348 44.02948402939364,229.08524656234658 43.255528255482204,229.06015724057215 42.525798525777645,229.31105035272776 42.32678132667206,230.01354981822078 42.570024569984525,230.81640409689862 42.81326781318057,231.54398871102603 42.83538083534222,232.37192742267507 43.03439803433139,233.07441887058667 43.167076167068444,233.8772639866802 43.18918918911368,234.5044850614213 43.47665847663302,235.2320596704376 43.45454545447137,235.93454362716875 43.65356265346054,236.6119371285895 43.742014741990715,237.3896831131715 43.211302211275324,237.9416305081104 42.43734643724747,238.19251531225746 41.8624078623252,238.71937263704604 41.57493857492227,239.42184746015118 41.265356265357696,240.17449701487203 41.19901719898917,241.00240908568958 41.06633906625211,241.52926089122775 40.46928746928461,241.85540672845673 39.80589680583216,242.1564640722936 39.098280098172836,242.35716878055246 38.56756756757386,242.8840179250401 38.67813267814927,243.51121793838684 39.25307125307154,244.01297689316561 39.03194103180431,244.5649106593046 38.28009828005452,244.58999853077694 37.55036855034996,244.76561356545426 36.97542997542769,244.94122848514235 36.22358722356148,245.21719455523998 35.692874692729674,245.3677213829069 35.58230958227068,244.58999853077694 35.272727272706106,243.91262517721043 34.5208845208399,243.61156980445958 33.99017199000809,244.16350439653615 33.54791154782288,244.86596496225684 32.84029484027997,245.29245797955082 32.15479115466587,245.76912584362435 32.35380835365504,246.3461437036749 32.55282555276062,246.99842326826183 32.5970515969675,247.62561366154114 32.995085995062254,248.2778901148995 33.06142506131437,249.00542736495845 33.658476658398286,249.3064766843163 34.1449631449068,249.9085743095202 34.918918918818235,250.00892378247227 35.184275184292346,250.68628174217883 34.896805896773,251.43889969147858 34.54299754288513,252.19151552932453 33.81326781318057,252.26677699692664 33.0171990172239,252.3671255876543 32.221130221150815,252.64308401854942 31.425061424961314,252.9441292557749 30.5626535625197,253.14482589287218 29.722358722356148,253.2200870930683 28.904176904121414,253.14482589287218 28.108108108048327,253.09465174766956 27.289926289813593,252.84378088091034 26.515970515902154,252.54273553105304 25.808353808242828,252.16642836877145 25.16707616695203,251.71485907709575 24.570024569984525,251.2131145283929 23.995085995062254,251.28837627050234 23.39803439786192,251.0625909807277 22.911547911469825,250.6361071370775 22.226044225972146,250.28488463908434 21.562653562636115,249.85839955910342 21.031941031920724,249.3064766843163 20.30221130209975,249.23121438609087 19.793611793546006,248.70437770767603 19.085995086003095,248.47859024303034 18.776412776322104,247.75105156414793 18.179361179238185,247.3496500691108 17.670761670684442,247.95175208643195 17.07371007371694,248.45350273518125 16.343980343895964,248.45350273518125 15.813267813180573,247.95175208643195 15.26044226041995,247.39982528888504 14.950859950738959,246.72245903065777 14.685503685381263,245.9949155888462 14.4422604420688,245.21719455523998 14.26535626524128,244.41438338111038 14.110565110575408,243.61156980445958 14.04422604420688,242.8338418606727 14.04422604420688,242.08119976797025 14.243243243196048,241.30346738695516 14.796068796073087,240.77661513799103 15.614250614191405,240.75152690988034 16.410319410264492,240.72643867932493 16.719901719829068,240.124320443545 16.874692874611355,239.32149402669165 17.029484029393643,238.51866520673502 16.675675675622188,237.9416305081104 15.879606879665516,237.6405684335332 15.26044226041995,237.28932891925797 15.149877149728127,236.58684851089492 15.592137592029758,235.88436626267503 16.01228501216974,235.20697092375485 16.43243243242614,234.55466268403688 16.941031940979883,234.0277971784235 17.383292383281514,233.40057498888928 17.891891891835257,232.8235292789468 18.46683046675753,232.29666037263814 19.13022113009356,231.79487949959002 19.793611793546006,231.34327591117471 20.501228501088917,230.9167607127747 21.18673218670301,230.51533402406494 21.938574938569218,230.18917439703364 22.668304668273777,229.88810362003278 23.420147420139983,229.61212177752168 24.149877149728127,229.36122894697473 24.92383292375598,229.08524656234658 25.631449631415308,228.75908519609948 26.339066339074634,228.45801281370223 27.157248157192953,228.25729770425824 27.86486486485228,228.0314930266759 28.6830466829706,227.78059871745063 29.434889434836805,227.55479363843915 30.18673218670301,227.25371990399435 30.91646191640757,226.92755631028558 31.53562653553672,226.6766609683109 32.26535626524128,226.47594452573685 33.08353808359243,226.1999591718486 33.79115479113534,225.89888391646673 34.5208845208399,225.62289796868572 35.20638820633758,225.3720014061255 35.93611793604214,225.12110460878466 36.66584766586311,224.8451178605901 37.395577395451255,224.64440004710923 38.12530712527223,224.4436820835108 38.78869778860826,224.1426048562862 39.45208845206071,223.81643747870112 40.093366093351506,223.465179859224 40.8452088451013,223.2142812779348 41.50859950855374,222.73757332673995 42.14987714984454,222.26086452807067 42.746928746812046,221.6587048342626 43.27764127764385,221.10672392710694 43.76412776403595,220.65510233977693 44.228501228499226,220.0027587042423 44.69287469284609,219.3504134816758 45.046683046617545,218.64788608264644 45.400491400389,218.0206279210106 45.776412776322104,217.41845870541874 46.262899262830615,216.7911976678297 46.815724815707654,216.18902569141937 47.390663390629925,215.66212410264416 47.98771498759743,215.16031210310757 48.65110565116629,214.70868050071294 49.33660933654755,214.2570481375442 50.04422604420688,213.98105020768708 50.68550368549768,213.67996123316698 51.41523341520224,213.32869033538736 52.122850122861564,213.00250980403507 52.87469287472777,212.87705564778298 53.69287469284609,212.9272373172862 54.400491400505416,212.67632887582295 55.15233415225521,212.4003293189744 55.992628992535174,212.45051107768086 56.76658476656303,212.52578369824914 57.42997542989906,212.47560195354163 58.02702702698298,212.2497839863936 58.734643734642304,212.17451128843823 59.398034397978336,212.22469308943255 60.039312039269134,212.5759654334688 60.702702702605166,212.70141973052523 61.43243243242614,212.55087456697947 62.206388206453994,212.3501475508383 62.958230958203785,212.2497839863936 63.77641277643852,212.47560195354163 64.55036855034996,212.4003293189744 65.3243243242614,212.14942038437584 66.0761670761276,211.8734202851483 66.8722358723171,211.7479656007199 67.66830466827378,211.5974199018092 68.46437346434686,211.47196508821798 69.26044226041995,211.42178314633202 70.01228501228616,211.39669217189658 70.91891891893465,211.2210552848992 71.64864864863921,210.91996321096667 72.44471744459588,210.7192349738616 73.19656019646209,210.49341552748228 74.01474201469682,210.3930512680381 74.3243243242614,209.86613828962436 74.65601965598762,209.11340366699733 75.05405405408237,208.48612320053508 75.65110565104987,207.98429777065758 76.38083538087085,207.73338470357703 77.13267813262064,207.58283675054554 77.9066339066485,207.40719736521714 78.6584766585147,207.4573800584767 79.3660933659412,207.73338470357703 80.09582309587859,207.9592064745375 80.84766584762838,207.98429777065758 81.57739557733294,207.8839325720619 82.17444717441685,207.50756274236483 82.90417690412141,207.35701466255705 83.63390663382597,207.20646649826085 84.27518427511677,206.9555527031771 84.49631449626759,207.78356733571854 84.67321867321152,208.5864881737798 84.82800982799381,209.41449776964146 85.07125307118986,210.19232263643062 85.18181818176527,210.9952362611657 85.49140049132984,211.72287465678528 85.82309582305606,212.47560195354163 86.0,213.22832713721436 85.71253071259707,213.93086873547873 85.38083538075443,214.60831781907473 84.73955773946363,215.05994959062082 84.09828009828925,215.41121822028072 83.36855036858469,215.78757695577224 82.57248157239519,215.812667519378 81.8206388206454,216.03848248600843 81.09090909082443,215.86284863945912 80.36117936111987,215.73739582157577 79.58722358720843,215.46139941559522 78.81326781318057,215.3108558015956 78.10565110552125,215.33594640981755 77.39803439797834,215.46139941559522 76.64619164611213,215.58685236258316 75.93857493856922,215.96321085156524 75.18673218670301,216.16393516300013 74.50122850132175,216.5152023465489 73.85995085991453,216.76610719584278 73.13022113009356,216.96683090631268 72.40049140050542,217.21773533307714 71.86977886967361,217.61918192749727 71.2727272727061,217.7697242455033 70.43243243242614,218.12098932545632 69.81326781329699,218.5977054836112 69.21621621621307,219.02424027532106 68.55282555276062,219.42568416523864 67.86732186726294,219.72676668839995 67.2039312038105,219.62640588489012 66.62899262900464,220.0027587042423 66.03194103192072,220.37911099533085 65.36855036846828,220.7303726572427 65.01474201469682,221.23217423306778 64.81572481559124,221.78415488198516 64.15233415237162,222.0350548013521 63.37837837834377,222.2357745678455 62.67076167068444,222.48667406462482 61.94103194097988,222.83793296583463 61.299754299689084,222.73757332673995 60.63636363635305,222.48667406462482 59.92874692869373,222.56194386800053 59.26535626524128,222.93829256738536 59.26535626524128,223.74116802759818 58.5798525797436,224.16769463816308 57.87223587220069,224.49386158850393 57.14250614249613,224.89529729049536 56.45700245699845,225.27164271529182 55.771498771500774,225.4974497166695 55.1965601965785,225.1461942990427 54.57739557744935,225.52253937182832 53.93611793615855,225.92397353393608 53.33906633895822,226.37558624817757 53.383292383281514,227.07809340281528 53.449631449533626,227.65515147481347 52.76412776403595,228.00640360632678 52.56511056504678,228.55837031203555 53.07371007371694,228.2322083050385 53.69287469284609,227.80568815895822 53.84766584762838,227.32898836932145 53.75921375921462,226.70175051313709 53.58230958227068,226.04942158641643 54.28992628981359,225.67307725304272 54.97542997542769,225.32182206539437 55.63882063876372,225.1461942990427 56.14742014743388,225.4472703995125 56.85503685497679,225.045835523837 57.58476658468135,224.61931030993583 58.270270270179026,224.21787419481552 58.64619164611213,223.84152729113703 58.24815724813379,223.18919140694197 57.87223587220069,222.53685393586056 57.54054054059088,221.884514877951 57.29729729727842,221.1819941177091 57.186732186586596,220.37911099533085 57.05405405408237,219.62640588489012" stroke="#4DD2FF" stroke-linecap="round" stroke-linejoin="round" stroke-width="0.5"><title>2025-03-24 13.1km</title><desc>1742817466000</desc></polyline></svg>