<?xml version="1.0" encoding="utf-8" ?>
<svg baseProfile="full" height="300mm" version="1.1" viewBox="0,0,200,300" width="200mm" xmlns="http://www.w3.org/2000/svg" xmlns:ev="http://www.w3.org/2001/xml-events" xmlns:xlink="http://www.w3.org/1999/xlink"><defs /><rect fill="#222222" height="300" width="200" x="0" y="0" /><text fill="#FFFFFF" style="font-size:12px; font-family:Arial; font-weight:bold;" x="10" y="20">Running</text><text fill="#FFFFFF" style="font-size:4px; font-family:Arial" x="10" y="280">跑者</text><text fill="#FFFFFF" style="font-size:9px; font-family:Arial" x="10" y="290">zhanyu</text><text fill="#FFFFFF" style="font-size:4px; font-family:Arial" x="65" y="280">特殊公里记录</text><rect fill="yellow" height="2.6" width="2.6" x="65" y="283" /><text fill="#FFFFFF" style="font-size:3px; font-family:Arial" x="70" y="285.5">超过 20.0 公里</text><rect fill="red" height="2.6" width="2.6" x="65" y="287" /><text fill="#FFFFFF" style="font-size:3px; font-family:Arial" x="70" y="289.5">超过 40.0 公里</text><text fill="#FFFFFF" style="font-size:4px; font-family:Arial" x="120" y="280">统计</text><text fill="#FFFFFF" style="font-size:3px; font-family:Arial" x="120" y="285">总次数: 1</text><text fill="#FFFFFF" style="font-size:3px; font-family:Arial" x="120" y="290">每周次数: 1.0</text><text fill="#FFFFFF" style="font-size:3px; font-family:Arial" x="141" y="285">总距离: 13.1 km</text><text fill="#FFFFFF" style="font-size:3px; font-family:Arial" x="141" y="290">平均距离: 13.1 km</text><text fill="#FFFFFF" style="font-size:3px; font-family:Arial" x="167" y="285">最小距离: 13.1 公里</text><text fill="#FFFFFF" style="font-size:3px; font-family:Arial" x="167" y="290">最长距离: 13.1 公里</text><polyline fill="none" points="145.3759213758167,108.25546676648082 147.3660933659412,107.35219113650965 149.20700245676562,106.61827869119588 151.3464373461902,106.11018493684242 153.43611793615855,105.6020907543716 154.77948402939364,104.24717084295116 155.57555282558315,102.4406062272028 156.71990171982907,100.74694698641542 158.16277641267516,99.67429367464501 160.00368550349958,99.56138268875657 161.79484029486775,98.9968274423154 163.635749385925,98.82746076537296 165.5264127762057,99.27910513157258 167.36732186726294,99.95657104678685 169.15847665863112,100.1823928495869 170.9993857492227,99.90011558303377 172.54176904191263,99.05328299076064 174.23341523343697,98.77100519585656 175.9748157246504,98.37581606110325 177.36793611804023,98.09353794908384 177.76597051601857,100.12593740673037 178.11425061430782,101.87605367525248 178.51228501228616,103.73907509155106 178.9103194102645,105.54563581908587 179.20884520886466,107.46510066406336 180.05466830474325,109.15874104422983 180.80098280101083,110.9652855420718 180.85073710069992,112.77182463055942 179.95515970513225,114.46545011294074 178.66154791158624,115.76389309641672 177.06941031944007,116.72361002716934 175.4772727272939,117.68332543119323 173.58660933654755,117.85268681473099 171.64619164611213,118.41722441604361 169.85503685520962,117.85268681473099 167.91461916454136,117.62687162624206 166.22297297301702,116.94942555361195 164.58108108118176,116.66715613228735 162.78992629004642,116.89297167991754 160.99877149867825,117.23169484292157 159.257371007232,117.7397792309639 157.61547911539674,118.6430393087212 155.8740786241833,118.92530780564994 154.48095823079348,119.94147330126725 152.73955773934722,120.11083405086538 151.29668304650113,121.01409057865385 149.6050368549768,121.40926488442346 148.46068796073087,122.08670594927389 146.57002456998453,122.5947862486355 145.12714987713844,123.83675851271255 143.73402948398143,124.85291573608993 142.29115479113534,125.8126182090491 140.74877149867825,126.54650730546564 139.25614250614308,126.60296027577715 137.86302211275324,126.99813092092518 136.56941031944007,128.01428282022243 135.02702702675015,128.91752751596505 134.0319410318043,130.103034127329 133.4846437345259,131.4578959735809 131.84275184269063,131.96596838149708 130.1511056511663,132.41758794069756 128.6087223587092,133.03856428235304 127.01658476656303,133.7724445896456 125.57371007371694,133.43373071256792 124.08108108094893,132.58694518817356 122.43918918911368,133.26437370298663 120.8470515969675,134.2240627965657 120.89680589665659,135.80472385894973 119.55343980318867,136.76440891227685 117.96130221127532,137.44183273683302 116.36916461912915,138.28861144796247 114.77702702698298,139.19184076343663 113.33415233390406,139.8692618625355 112.04054054059088,138.9660335612134 110.44840294821188,139.81281013338594 108.90601965598762,140.65958551724907 107.76167076150887,141.78861751389923 107.76167076150887,143.25635595113272 107.91093366080895,144.72409081831574 106.2690417689737,145.45795691321837 105.97051597037353,146.86923535587266 105.02518427511677,148.05470669741044 103.33353808359243,148.9579213942634 101.49262899253517,149.24017570988508 99.85073710069992,150.25629015237791 98.15909090894274,151.2724028842058 96.61670761648566,150.65144530695397 95.47235872223973,149.46597906714305 93.68120393110439,149.861134739127 91.79054054035805,150.03048709098948 89.99938574945554,149.1272739994456 88.15847665839829,148.78856874158373 86.56633906625211,147.94180476525798 84.82493857480586,147.88535379129462 83.1830466829706,148.44986329367384 82.73525798507035,150.03048709098948 83.28255528234877,151.8369092179928 83.82985257962719,153.47397459979402 83.8796068795491,155.3368367010262 84.32739557744935,156.91744245885639 84.62592137604952,158.72384397004498 84.67567567550577,160.13509138824884 85.32248157239519,161.77213425852824 85.27272727247328,163.35272316110786 85.72051597037353,164.87685853935545 85.9195331693627,166.6267870045849 84.72542997542769,167.86866864323383 82.9840294837486,168.433159452572 81.6904176902026,169.61858843330992 81.043611793546,171.1991567853256 80.3470515969675,172.8926182834548 80.19778869766742,174.755420442787 79.89926289906725,175.9408370052697 78.55589680583216,176.67466513899853 77.06326781306416,177.3520441626897 75.47113022091798,177.80362975620665 74.27702702698298,178.98904033133294 74.52579852566123,180.40024036139948 75.81941031944007,181.52919800963718 75.3218673216179,182.7710489834426 73.63022113009356,182.82749669422628 71.9883292382583,183.22263052227208 70.6947174447123,183.61776409158483 69.00307125295512,184.2386877492536 67.80896805878729,184.57737311156234 67.56019656010903,182.82749669422628 66.86363636353053,181.3034066487453 65.17199017200619,180.62603206001222 63.97788697760552,181.86788489215542 62.98280098265968,183.44842116505606 61.39066339051351,184.40803045401117 59.84828009805642,185.48053314816207 60.29606879595667,186.77882333326852 60.74385749362409,188.24645235360367 60.84336609323509,189.657630738453 61.73894348880276,191.12525275850203 61.888206388102844,192.7622115711565 63.231572481570765,193.4395725397044 64.3261670761276,194.7942921964568 66.06756756734103,195.02007851056987 66.66461916454136,196.54413391987327 66.01781326765195,198.23752430581953 65.22174447169527,199.93090994097292 63.579852579627186,200.10024824307766 61.788697788724676,200.32603257219307 59.997542997589335,200.94693904172163 58.20638820622116,201.62429082550807 56.26597051578574,202.0758582589915 54.37530712527223,202.24519595940365 52.53439803421497,202.0758582589915 50.74324324307963,201.96296643221285 48.90233415225521,201.39850698201917 47.16093366080895,200.7211549448548 45.56879606866278,199.87446382973576 44.12592137581669,198.85843292350182 42.7825552825816,197.7295076888986 41.48894348880276,197.89884660864482 40.14557739533484,197.39082970662275 39.050982800778,196.43124105845345 37.50859950855374,195.64099043793976 36.01597051578574,194.68139900796814 34.82186732185073,193.4395725397044 33.179975429782644,193.27023236872628 32.03562653553672,192.08484984224197 30.44348894339055,191.57682804676006 29.746928746812046,189.93986601935467 28.403562653344125,189.03671265550656 27.259213759098202,190.39144219446462 25.91584766586311,191.52038115414325 24.273955773795024,191.52038115414325 23.079852579627186,190.39144219446462 21.835995086003095,189.1496068999404 21.13943488919176,187.62553281901637 20.542383292224258,185.98856007494032 19.99508599471301,184.2386877492536 19.597051596734673,182.43236260750564 19.248771498678252,180.62603206001222 19.099508599611,178.87614418647718 19.099508599611,177.18269947788212 19.54729729704559,175.4328016206273 20.79115479113534,174.24738406046527 22.632063881959766,174.19093554723077 24.423218673095107,174.13448702852475 25.11977886944078,172.7797209979617 25.46805896796286,170.97336156008532 25.81633906601928,169.1669967151247 25.02027027006261,167.86866864323383 23.2291154791601,167.19127897545695 21.835995086003095,166.40099006833043 21.587223587092012,164.82040914951358 22.58230958203785,163.2398240910261 23.527641277527437,161.71568457846297 24.472972973017022,160.24799103906844 25.617321867262945,159.06254365149653 26.612407862441614,157.65129372494994 27.756756756454706,156.3529408776085 29.050368550233543,155.16748583840672 30.542997542768717,154.03847887407755 32.03562653553672,153.0223708001431 33.627764127450064,152.0627116037649 35.17014742013998,151.1595015540952 36.861793611897156,150.4256423933548 38.50368550349958,149.74823314510286 40.195331695256755,149.1272739994456 41.83722358685918,148.56276513071498 43.57862407853827,147.94180476525798 45.17076167068444,147.20794169121655 46.762899262830615,146.53052883083 48.60380835388787,146.07891983457375 50.19594594580121,145.57085931004258 52.03685503685847,145.00634711422026 53.72850122838281,144.4982856864808 55.42014742013998,143.8208697839873 57.06203931197524,143.08700169809163 58.455159704899415,142.5224871787359 60.0970515969675,142.07087518292246 61.93796068802476,141.4499081366812 63.5300982799381,140.77248881204287 65.17199017200619,140.15152042952832 66.71437346423045,139.58700316376053 68.35626535629854,139.02248536975821 69.9981572481338,138.40151518635685 71.64004913996905,137.94990010600304 73.28194103203714,137.4982846879284 74.77457002433948,136.82086092664395 76.26719901734032,136.08698432712117 77.71007370995358,135.29665468330495 79.40171990171075,134.73213287536055 80.89434889424592,133.65953998517944 82.33722358709201,132.58694518817356 83.6805896803271,131.23208587703994 84.87469287472777,129.99012883601245 85.96928746905178,128.97398026450537 87.01412776415236,127.50620708451606 88.05896805878729,126.03843033371959 88.85503685497679,124.45774368592538 89.65110565093346,123.04641282232478 90.49692874681205,121.69153208722128 91.59152334136888,120.28019475261681 92.83538083545864,118.92530780564994 94.12899262877181,117.7397792309639 95.47235872223973,116.61070223199204 96.96498771500774,115.5945311266114 98.50737100746483,114.57835830945987 100.099508599611,113.95736296731047 101.54238329245709,113.2799127746257 103.18427518429235,112.48955325462157 104.77641277643852,111.75564705906436 106.46805896819569,111.47337520751171 108.30896805902012,111.58628396387212 109.90110565093346,111.02173997060163 111.59275184269063,110.40074096771423 113.48341523320414,110.51364992477465 115.22481572488323,110.68301332101692 116.7174447174184,110.57010439550504 118.06081081065349,110.06201396940742 119.6529484030325,109.89265039900783 121.14557739533484,110.00555945123779 122.58845208841376,110.795922225283 124.08108108094893,111.07819439365994 125.72297297301702,110.73946777568199 127.46437346446328,110.2878319893498 129.15601965598762,110.06201396940742 130.99692874704488,110.57010439550504 132.7383292382583,110.40074096771423 134.47972972970456,109.8361958648893 136.1713759212289,109.21519564156188 137.96253071259707,108.93292260164162 139.7536855037324,108.59419477905612 141.54484029486775,108.31192144850502 143.3359950860031,108.19901207927614 145.02764127776027,108.14255738671636 147.06756756757386,107.74737439106684 148.70945945940912,107.06991722463863 150.50061425054446,106.61827869119588 152.1922604420688,106.11018493684242 154.03316953289323,105.88436535303481 154.72972972947173,104.69881115161115 155.47604422597215,103.00515825068578 156.37162162153982,101.59377720119664 157.7149877147749,100.46466998400865 159.356879606843,99.90011558303377 161.04852579860017,99.56138268875657 162.78992629004642,99.1661940717604 164.48157248157077,99.27910513157258 166.0737100734841,99.90011558303377 167.7156019655522,100.40821456775302 169.40724815730937,100.46466998400865 171.0491400489118,100.23884828714654 172.39250614261255,99.39201617031358 174.03439803421497,99.05328299076064 175.67628992628306,98.71454962110147 177.11916461912915,98.149993582163 177.6167076167185,100.01302650535945 178.01474201469682,101.81959839101182 178.36302211298607,103.68261998170055 178.9103194102645,105.43272593192523 179.15909090894274,107.23928158765193 179.85565110552125,108.87646797776688 180.60196560202166,110.57010439550504 181.0,112.26373605872504 180.3531941033434,113.84445465484168 179.606879606843,115.36871509288903 178.1640049139969,116.38488657888956 176.72113022115082,117.17524099565344 175.07923832931556,118.02204815053847 173.2880835379474,118.07850191858597 171.59643734642304,118.58658559352625 169.9545454545878,118.19140943879029 168.3126535625197,117.90914059855277 166.57125307130627,117.28814868506743 164.82985257986002,116.94942555361195 163.237714987481,117.00587942212587 161.64557739556767,117.28814868506743 159.9539312038105,117.57041781581938 158.36179361189716,118.41722441604361 156.67014742013998,118.86885411676485 155.12776412791573,119.65920527977869 153.6848894348368,120.22374119062442 152.04299754276872,120.67536953923991 150.4011056511663,121.23990449943813 149.20700245676562,122.14315933687612 147.86363636376336,122.48187955236062 145.9729729727842,123.27222598227672 144.57985257986002,124.34483733813977 143.2364864863921,125.30454061948694 141.74385749385692,126.20778937177965 140.20147420139983,126.88522504887078 138.70884520863183,126.65941324096639 137.41523341508582,127.50620708451606 136.07186732185073,128.3529997394653 134.57923832908273,129.1433384787524 133.78316953312606,130.2723920244025 133.3353808352258,131.51434848445933 131.84275184269063,132.07887330307858 130.10135135124438,132.53049277764512 128.5092137590982,133.09501664544223 126.86732186726294,133.8853491730988 125.42444717441685,133.65953998517944 123.93181818188168,133.09501664544223 122.33968058973551,133.26437370298663 120.8470515969675,134.11115827661706 120.8470515969675,135.91762806213228 119.30466830451041,136.87731293588877 117.71253071259707,137.61118857417023 116.07063882052898,138.51441890356364 114.52825552830473,139.36119610944297 112.98587223584764,139.8692618625355 111.69226044230163,139.0789371728315 110.29914004914463,139.92571358656278 108.85626535629854,140.828940451378 107.51289926259778,141.84506905835588 107.61240786220878,143.42571015638532 107.76167076150887,144.72409081831574 106.21928746928461,145.51440811424982 105.77149877138436,146.75633320212364 106.91584766586311,146.02246868633665 108.30896805902012,145.0627983576269 108.65724815707654,143.99022383097326 108.4582309583202,142.5789386545075 108.06019656010903,141.11119856941514 109.65233415225521,140.26442381937522 111.1947174447123,139.47409964713734 112.68734643724747,139.0789371728315 113.83169533172622,139.75635839893948 115.42383292363957,138.85312992858235 117.06572481570765,137.89344819734106 118.60810810793191,136.9902169383713 119.4539312038105,136.14343640505103 118.55835380824283,134.67568066559033 117.71253071259707,133.20792135567171 116.96621621632949,131.74015847535338 116.41891891881824,130.15948676486732 116.17014741990715,128.3529997394653 115.87162162153982,126.65941324096639" stroke="#4DD2FF" stroke-linecap="round" stroke-linejoin="round" stroke-width="0.5"><title>2025-03-24 13.1km</title><desc>1742817466000</desc></polyline></svg>