<?xml version="1.0" encoding="utf-8" ?>
<svg baseProfile="full" height="300mm" version="1.1" viewBox="0,0,200,300" width="200mm" xmlns="http://www.w3.org/2000/svg" xmlns:ev="http://www.w3.org/2001/xml-events" xmlns:xlink="http://www.w3.org/1999/xlink"><defs /><rect fill="#222222" height="300" width="200" x="0" y="0" /><text fill="#FFFFFF" style="font-size:12px; font-family:Arial; font-weight:bold;" x="10" y="20">Running</text><text fill="#FFFFFF" style="font-size:4px; font-family:Arial" x="10" y="280">ATHLETE</text><text fill="#FFFFFF" style="font-size:9px; font-family:Arial" x="10" y="290">zhanyu</text><text fill="#FFFFFF" style="font-size:4px; font-family:Arial" x="65" y="280">SPECIAL TRACKS</text><rect fill="yellow" height="2.6" width="2.6" x="65" y="283" /><text fill="#FFFFFF" style="font-size:3px; font-family:Arial" x="70" y="285.5">Over 20.0 km</text><rect fill="red" height="2.6" width="2.6" x="65" y="287" /><text fill="#FFFFFF" style="font-size:3px; font-family:Arial" x="70" y="289.5">Over 40.0 km</text><text fill="#FFFFFF" style="font-size:4px; font-family:Arial" x="120" y="280">STATISTICS</text><text fill="#FFFFFF" style="font-size:3px; font-family:Arial" x="120" y="285">Number: 6</text><text fill="#FFFFFF" style="font-size:3px; font-family:Arial" x="120" y="290">Weekly: 1.2</text><text fill="#FFFFFF" style="font-size:3px; font-family:Arial" x="141" y="285">Total: 86.1 km</text><text fill="#FFFFFF" style="font-size:3px; font-family:Arial" x="141" y="290">Avg: 14.3 km</text><text fill="#FFFFFF" style="font-size:3px; font-family:Arial" x="167" y="285">Min: 10.2 km</text><text fill="#FFFFFF" style="font-size:3px; font-family:Arial" x="167" y="290">Max: 21.7 km</text><polyline fill="none" points="70.65108420164324,48.11075250172871 70.67136018013116,48.547885826948914 70.77274007315282,49.07704618071148 70.89439594477881,49.62921229202766 71.01605181628838,50.204384005846805 71.13770768791437,50.733540794069995 71.23908758081961,51.26269644325657 71.38101943116635,51.83786433546629 71.52295128128026,52.41303088191489 71.76626302441582,52.8731631503033 71.58377921709325,53.31028800761851 71.86764291743748,53.58636646444211 72.33399042510428,53.379307650902774 72.84088989009615,53.19525522577169 73.34778935508803,53.011202662906726 73.89524077717215,52.942182916318416 74.40214024216402,52.75813016395841 74.96986764285248,52.73512356024003 75.29428330040537,52.27499103352602 75.49704308644868,51.76884425946628 75.76063080818858,51.26269644325657 76.02421852992848,50.825567945314106 76.45001408050302,50.480465950473445 76.97718952398282,50.27340452102362 77.48408898897469,50.250397684809286 77.97071247536223,50.089349770743866 78.45733596163336,49.95130861754296 79.02506336232182,49.90529488257016 79.51168684870936,50.043336061615264 80.01858631370123,50.250397684809286 80.5254857785767,50.38843867008109 81.01210926496424,50.45745913362771 81.5190087298397,50.38843867008109 82.00563221622724,50.250397684809286 82.4517037452897,49.99732234388648 82.99915516749024,49.88228801188234 83.52633061108645,49.836274264001986 84.03323007596191,49.62921229202766 84.45902562653646,49.44515705942467 84.56040551955812,49.97431548174063 84.72261334827635,50.50347276520915 84.82399324129801,51.032628909655614 84.88482117711101,51.53877719947195 85.04702900582924,51.97590442931687 85.16868487745523,52.459044147559325 85.24978879187256,52.965189500697306 85.4119966205908,53.471333811758086 85.63503238512203,53.977477080828976 85.83779217116535,54.48361930795363 85.97972402127925,54.94374770106515 85.97972402127925,55.44988793889934 85.69586032093503,55.86400190393033 85.55392847082112,56.32412771365489 85.12813292024657,56.669221505813766 84.70233736967202,56.945296190853696 84.29681779781822,57.22137056583597 83.78991833282635,57.45143230818212 83.3032948464388,57.520450788972084 82.79639538144693,57.612475399757386 82.26921993796714,57.750512251470354 81.74204449448735,57.7275061149121 81.2554210080998,57.474438470599125 80.66741762880702,57.497444630847895 80.16051816381514,57.22137056583597 79.69417065614834,57.17535819155455 79.22782314836513,57.08333341711841 78.78175161930267,57.17535819155455 78.25457617570646,57.198364379713894 77.72740073211025,57.313395288656466 77.17994931002613,57.474438470599125 76.69332582363859,57.750512251470354 76.18642635876313,57.86554290202912 75.69980287237559,58.02658572234213 75.27400732180104,58.325664965988835 74.76710785680916,58.41768927540397 74.30076034914237,58.601737791032065 73.85468881996349,58.808792206371436 73.3275133764837,58.87781030604674 73.0030977189308,59.29191849743074 72.51647423254326,59.429954406266916 71.90819487464614,59.54498427103681 71.46212334546726,59.91307947678433 71.01605181628838,60.18915051942167 70.65108420164324,60.48822713253321 70.20501267246436,60.76429752947297 69.77921712188981,61.01736178761348 69.23176569980569,61.2014083571994 68.86679808492772,61.01736178761348 68.3801745986566,61.29343159034033 67.95437904808205,61.63851840796997 67.46775556181092,61.891581766307354 67.0622359898407,62.190656308681355 66.81892424670514,62.535741867046454 66.61616446066182,62.97284954569477 66.25119684590027,63.22591153085523 65.72402140230406,63.40995644732902 65.19684595882427,63.501978853935725 64.71022247243673,63.709029142861255 64.28442692197859,63.870068135875044 63.83835539279971,64.03110702348931 63.41255984234158,63.80105143752007 62.925936355954036,63.73203471972374 62.50014080537949,63.524984450181364 62.013517318991944,63.778045867045876 61.5268938326044,64.03110702348931 61.36468600388616,64.42220102573629 61.44578991830349,64.88231082016136 60.97944241063669,65.20438716400531 60.51309490285348,65.36542517770431 60.0670233736746,65.64149009875837 59.600675866007805,65.91755470978387 59.13432835822459,66.17061366433336 58.64770487183705,66.42367235853453 58.24218529986683,66.23962969768036 57.836665727896616,66.12460296474455 57.370318220113404,66.40066703342018 56.90397071244661,66.65372549078893 56.437623204663396,66.88377840787871 56.092931568506174,67.2518626274541 56.05237961129751,67.73497232963564 56.31596733315382,68.17207076604245 56.05237961129751,68.51714793026622 55.586032103630714,68.77020420948975 55.30216840328649,69.09227546112379 55.50492818921339,69.5753815475473 55.018304702825844,69.82843673777825 54.55195719515905,70.05848668485123 54.085609687375836,70.31154137795966 53.619262179592624,70.3345463371661 53.17319065053016,70.61060567958339 52.686567164142616,70.8866647121904 52.159391720662825,71.13971855310956 51.733596170088276,70.95567942189518 51.449732469627634,70.40356120187789 50.90228104754351,70.38055624911794 50.375105603947304,70.56459581076342 49.80737820325885,70.61060567958339 49.25992678117473,70.44957110083487 48.71247535897419,70.26553145317303 48.1852999154944,70.12750162697921 47.73922838631552,69.92045674244582 47.23232892132364,69.71341168360959 46.68487749923952,69.71341168360959 46.15770205564331,69.89745174456039 45.93466629111208,70.3345463371661 45.995494226925075,70.8636598046578 46.17797803436406,71.34676241110719 46.38073782029096,71.80685924910358 46.38073782029096,72.31296477674914 46.44156575598754,72.9110881483939 46.58349760633428,73.41719140351051 46.62404956354294,73.94629823841387 46.72542945644818,74.45239936308644 46.84708532795776,74.91249039082322 47.070121092605405,75.39558504350134 47.15122500702273,75.85567430667288 46.98901717830449,76.33876710668846 47.19177696411498,76.79885460535297 47.27288087864872,77.32795416470617 46.9281892424915,77.74203128680529 46.44156575598754,78.04108655250457 45.93466629111208,78.20211616031884 45.58997465495486,78.54717925055593 45.346662911819294,79.0072626178735 45.164179104496725,79.46734512445983 45.00197127566207,79.92742677041679 44.94114333984908,80.43351558691938 44.920867361244746,80.98561128989968 44.65727963950485,81.23865473957267 44.25176006753463,81.53770575358067 43.76513658114709,81.72173696605023 43.31906505196821,81.9977835266036 42.81216558709275,81.97477965836879 42.50802590814419,82.36584512531408 42.58912982256152,82.82592134925653 42.93382145871874,83.14797419396928 43.21768515906297,83.56204151743441 43.014925373136066,83.9531044607138 42.50802590814419,84.02211550377251 42.001126443152316,84.04511918053322 41.51450295688119,84.1831411956955 41.00760349200573,84.32116313341248 40.48042804840952,84.52819589478895 40.03435651923064,84.87325010984205 39.81132075469941,84.367170428799 39.83159673330374,83.81508231649059 39.56800901144743,83.37801168195438 39.06110954657197,83.17097795240988 38.53393410297576,83.17097795240988 38.2906223598402,83.60804895477486 38.00675865949597,84.09112652754993 37.54041115171276,84.45918499374238 37.074063644045964,84.78123569984746 36.60771613626275,85.0572788266436 36.68882005068008,85.4713429359108 37.01323570823297,85.90840985058458 37.05378766544163,86.322472527012 37.11461560113821,86.71353108144831 37.15516755846329,87.08158562349854 37.398479301598854,87.49564632502734 37.418755280203186,88.07072947637062 37.905378766474314,88.23175251788052 38.250070402631536,88.69181776967889 38.696141931810416,88.9908597219328 39.243593354010954,88.9908597219328 39.426077161333524,89.49692988983588 39.26386933249887,90.00299901656399 39.02055758936331,90.50906710213167 38.77724584622774,90.99213112168945 38.2906223598402,90.94612506542762 37.8242748521734,91.08414320829615 37.31737538718153,91.19915826816577 36.8307519009104,91.33717626906582 36.36440439312719,91.54420312524599 35.85750492813531,91.70522389287362 35.370881441864185,91.82023866230156 34.84370599826798,91.86624455511628 34.29625457606744,91.88924749825674 33.76907913258765,91.88924749825674 33.262179667595774,91.82023866230156 32.714728245628066,91.75122980715241 32.248380737844855,91.5672060984798 31.76175725145731,91.38318225216062 31.335961700999178,91.17615526050213 30.889890171820298,90.96912809458445 30.46409462124575,90.64708549021452 30.0382990706712,90.302039374772 29.612503520096652,90.00299901656399 29.14615601231344,90.1180145820108 28.679808504646644,89.95699277537642 28.274288932676427,89.68095514728338 27.88904533931054,89.35891085640469 27.42269783152733,89.17488535803568 26.976626302464865,88.87584362948837 26.59138270909898,88.5077917722083 26.185863137128763,88.34676891143317 25.65868769364897,88.30076236043533 25.415375950396992,87.84069637714128 24.908476485521533,87.7486830772541 24.523232892155647,87.40363289600646 24.11771332018543,87.01257543882821 23.651365812518634,86.92056182913075 23.509433962288313,87.38062953334884 23.083638411713764,87.77168640551099 22.678118839743547,88.07072947637062 22.19149535347242,88.27775908171316 21.785975781502202,88.00171956924896 21.36018023081124,88.32376563703292 20.833004787331447,88.4617852512747 20.305829343851656,88.53079502940818 19.859757814672776,88.7378242475097 19.29203041398432,88.69181776967889 18.744578991783783,88.7378242475097 18.07547169807367,88.85284040457918 17.507744297385216,88.85284040457918 17.102224725415,88.829837177429 16.635877217631787,88.829837177429 16.128977752756327,88.829837177429 15.703182202181779,88.53079502940818 15.4598704589298,88.07072947637062 15.297662630211562,87.61066306283465 15.07462686568033,87.08158562349854 14.831315122544765,86.5755104861455 14.648831315105781,86.06943430754473 14.527175443479791,85.56335708772531 14.425795550458133,85.08028240651765 14.32441565755289,84.59720677659789 14.18248380732257,84.13713386596646 14.12165587162599,83.67706009476387 14.223035764647648,83.21698546294647 14.283863700344227,82.68789857246156 14.304139678948559,82.1818143947894 14.081103914300911,81.60671747438028 14.040551957208663,81.19264685900998 14.101379893021658,80.70956359327829 14.162207828834653,79.99643894309702 14.263587721739896,79.39833280335006 14.506899464991875,78.80022520915372 14.588003379292786,78.2481246002717 14.689383272314444,77.69602275211946 14.871867079637013,77.16692398450687 14.851591101149097,76.61481970918248 15.07462686568033,76.1087230345729 15.358490566024557,75.67163870474906 15.662630244973116,75.02751301322132 15.966769923921674,74.40639021297102 16.250633624382317,73.9002889936528 16.534497324726544,73.48620540303818 16.838637003675103,73.04911641219223 17.264432554133236,72.68104086996755 17.56857223319821,72.24395044799894 17.87271191214677,71.80685924910358 18.237679526791908,71.48479155286623 18.622923120157793,71.11671366926748 19.008166713640094,70.79464506910881 19.39341030700598,70.44957110083487 19.79892987885978,70.15050660338602 20.22472542943433,69.85144174216839 20.650520980008878,69.52937148492492 21.137144466280006,69.25331092868873 21.684595888480544,69.04626530813402 22.19149535347242,68.7471991039929 22.678118839743547,68.47113766966504 23.22557026182767,68.21808108259575 23.691917769610882,67.94201905428781 24.259645170299336,67.73497232963564 24.786820613895543,67.59694108300027 25.293720078771003,67.50492020892852 25.739791607949883,67.38989406777546 26.226415094337426,67.29787311620021 26.814418473630212,67.27486787294038 27.36186989583075,67.20585213018057 27.88904533931054,67.13683636803762 28.355392847093754,67.06782058656972 28.862292311969213,66.9067836877366 29.348915798356757,66.74574668347486 29.8355392847443,66.56170426367316 30.36271472822409,66.37766170615214 30.910166150308214,66.23962969768036 31.41706561530009,66.0785922564828 31.903689101687633,65.84853858605493 32.41058856656309,65.66449549482786 32.897212052950636,65.5034576770122 33.36355956061743,65.29640889898292 33.78935511119198,65.02034359057143 34.275978597579524,64.90531628725876 34.76260208385065,64.7442779722187 35.249225570238195,64.51422305342567 35.71557307802141,64.26116239426483 36.14136862847954,63.893073697705404 36.48606026463676,63.870068135875044 36.972683751024306,63.524984450181364 37.43903125880752,63.22591153085523 37.905378766474314,62.90383259547525 38.39200225286186,62.67377595475409 38.83807378204074,62.35169629617303 39.30442128982395,62.0296162157174 39.68966488307342,61.661524178562104 40.095184455043636,61.36244899260055 40.50070402701385,61.06337344289932 40.88594762037974,60.76429752947297 41.271191213745624,60.419209484913154 41.656434806995094,60.09712687303545 42.02140242187306,59.729031942842994 42.42692199384328,59.3609364615113 42.79188960848842,58.946828386426205 43.17713320197072,58.55572567503259 43.54210081661586,58.14161624372355 43.90706843137741,57.7275061149121 44.272036046138965,57.38241380812542 44.61672768229619,57.037321016934584 44.94114333984908,56.669221505813766 45.2858349760063,56.32412771365489 45.56969867635053,55.9100145236298 45.95494226983283,55.54191332477785 46.319909884477966,55.1968179501564 46.66460152063519,54.85172209129087 47.070121092605405,54.52963218599325 47.475640664459206,54.138522447945434 47.82033230061643,53.79342510353308 48.20557589409873,53.425320735623245 48.57054350886028,53.03420924076636 48.95578710222617,52.66610373609001 49.40185863128863,52.34401096741203 49.7668262461666,52.06793111555453 50.2331737538334,51.814857645571465 50.69952126161661,51.53877719947195 51.14559279079549,51.33171666137059 51.591664319857955,51.00962214448373 52.0782878062455,50.733540794069995 52.564911292516626,50.480465950473445 53.0718107575085,50.204384005846805 53.51788228668738,50.089349770743866 54.00450577295851,49.88228801188234 54.55195719515905,49.698232968730736 55.038580681430176,49.537184692933806 55.52520416781772,49.307115544506814 56.092931568506174,49.12306007069128 56.57955505489372,49.0080253296037 57.066178541164845,48.892990534659475 57.51225007046014,48.77795568591682 57.99887355661485,48.68592776823789 58.50577302160673,48.570892822535825 59.032948465202935,48.547885826948914 59.560123908682726,48.47886482726608 60.04674739507027,48.3868367975665 60.53337088145781,48.36382978479378 61.04027034633327,48.29480873339344 61.5268938326044,48.31781575267087 62.05406927620061,48.340822769736405 62.54069276258815,48.4098438082292 63.00704027037136,48.432850816781865 63.51393973524682,48.432850816781865 63.93973528582137,48.4098438082292 64.40608279348817,48.432850816781865 64.89270627987571,48.3868367975665 65.37932976614684,48.36382978479378 65.94705716695171,48.31781575267087" stroke="#4DD2FF" stroke-linecap="round" stroke-linejoin="round" stroke-width="0.5"><title>2025-04-29 10.2km</title><desc>1745926443000</desc></polyline><polyline fill="none" points="171.01687289087567,49.198490861745086 171.17885264346842,50.00259880759404 171.46231721050572,51.1742942421115 171.82677165360656,52.23111277866701 171.88751406082883,53.035210791480495 172.9201349831419,52.62167499952193 174.03374578186776,52.391932591897785 175.12710911140312,52.02434429245477 175.61304836906493,50.99049924964493 176.30146231723484,50.02557328157127 177.45556805410888,49.680955945310416 178.6501687290147,49.405261727952166 179.8447694038041,49.65798143899883 181.01912260975223,49.933675372521975 182.17322834650986,49.703930449453765 183.42857142863795,49.359312661603326 184.48143982014153,49.15254175673181 184.80539932509419,50.43911344659864 185.10911136108916,51.67972976199235 185.33183352090418,52.96628820787009 185.85826771659777,54.092021317454055 185.85826771659777,55.263697234971914 185.12935883027967,56.20562872212031 184.0764904387761,56.89484459393134 182.821147356648,57.14755659547518 181.62654668174218,57.19350420417322 180.43194600683637,56.940792249923106 179.25759280100465,56.64213233224291 178.02249718795065,56.848896929383045 176.82789651304483,57.26242560110404 175.61304836906493,57.60703229553474 174.47919010126498,57.997585964534665 173.34533183358144,58.388139012342435 172.41394825652242,59.123296005127486 171.28008998883888,59.605741585372016 170.2474690665258,60.3179214236734 169.09336332965177,60.80036465656303 168.08098987629637,61.16793981684896 167.06861642294098,61.742274903168436 166.64341957261786,62.54634176698164 165.5500562430825,62.959860843082424 164.29471316095442,63.396352445706725 163.0798650169745,63.48824531577702 162.00674915639684,63.46527210147178 161.52080989873502,64.49906461709179 160.22497187857516,65.14231109681714 159.05061867274344,65.80852888870868 158.07874015753623,65.60177183637279 156.9651293589268,66.19906951254234 156.09448818909004,67.00312178226886 156.15523059631232,68.05987218991504 155.40607424080372,68.79500022607681 154.63667041622102,69.62201663629094 153.52305961761158,69.98957859117945 152.4296962879598,70.63281068844663 151.57930258719716,70.17335936230666 150.5061867267359,70.12741418241058 149.35208098997828,70.05849639646476 148.13723284599837,69.75985243379546 147.0641169854207,69.34634480900422 146.01124859391712,69.7139071765414 146.19347581558395,70.93145358948095 146.41619797528256,72.0571043365344 146.65916760405526,73.25166683318093 146.8008998875739,74.3773069451272 147.12485939264297,75.45699771484942 147.34758155234158,76.62857169075869 146.59842519683298,77.54744932975154 145.6062992126681,78.14471795150894 145.14060742408037,79.29330737238342 144.95838020264637,80.53377791352978 144.24971878516953,81.10806770905037 143.1361079865601,81.49858400289668 142.67041619797237,82.41744342152379 143.23734533193056,83.35927075808286 142.1034870641306,83.58898419467732 141.07086614181753,83.88761134115339 140.09898762661032,84.37000827233715 139.83577052876353,83.22144259298511 138.9246344207786,82.60121489271114 138.21597300341818,83.42818481159338 137.32508436450735,84.16326684647356 136.65691788529512,84.89834668132244 137.08211473573465,85.86313562600117 137.34533183358144,86.71306560415542 137.64904386957642,87.7008183702128 138.45894263219088,88.41291673763772 139.49156355450395,88.78045057102281 139.10686164232902,89.97493173183466 138.3982002249686,90.80187682522228 137.28458942647558,90.73296484039747 136.11023622052744,91.19237770707696 134.87514060747344,91.44505441751971 133.70078740164172,91.44505441751971 132.52643419581,91.215348327838 131.43307086615823,90.77890616573859 130.42069741291925,90.20463898147864 129.5095613048179,89.60739968564303 128.45669291343074,89.35472108495014 127.52530933648814,88.73450887197396 126.55343082128093,87.93052774659009 125.6017997750314,87.51705071453762 124.6501687290147,87.03465996416344 123.77952755917795,86.4603840259515 123.07086614181753,87.40219585984596 121.99775028123986,87.7008183702128 120.70191226108,88.04538235417567 119.4465691789519,88.09132418216905 118.231721034972,88.32103319323505 116.93588301469572,88.57371285741101 115.90326209226623,88.11429509296431 115.29583802027628,86.91980488388799 114.78965129365679,85.7253088659345 114.50618672661949,84.41595078780665 114.24296962888911,83.08361435047118 114.04049493814819,81.86612818291178 114.06074240722228,80.67160758690443 114.2632170979632,79.38519429399457 114.52643419581,78.2366053029109 114.72890888643451,77.22584254721005 115.11361079872586,76.10021549160592 115.59955005627126,75.06647181411972 116.2272215973353,73.73408465576358 116.89538807654753,72.60844159549742 117.62429696286563,71.80440767921391 118.41394825652242,70.88550855140784 119.32508436450735,69.96660598508606 120.29696287971456,69.34634480900422 121.32958380202763,68.7490547883499 122.34195725549944,68.26662717254658 123.43532058503479,67.71528016534285 124.6299212599406,67.18690478854114 125.84476940392051,67.00312178226886 127.10011248593219,66.81933863849554 128.23397075373214,66.65852827481285 129.3273340832675,66.35988017714408 130.35995500569697,65.96933980903123 131.39257592812646,65.71663688699482 132.46569178858772,65.3490685360157 133.55905511812307,64.8436611550569 134.57142857159488,64.47609149738855 135.52305961761158,64.03960181416187 136.81889763788786,63.120673629047815 138.05399325082544,62.43147523334483 139.00562429707497,61.742274903168436 139.9167604050599,60.915231953258626 140.84814398211893,60.29494791269826 141.73903262102976,59.559794428088935 142.52868391457014,58.755717783846194 143.29808773903642,57.85974356411316 144.06749156361911,57.07863516632642 144.75590551178902,56.25157650710025 145.5455568054458,55.53938487362757 146.29471316095442,54.75826909361058 147.18560179986525,53.839306170717464 148.0157480315538,53.08115916981478 148.7851518561365,52.50680382261635 149.59505061863456,51.95542142508202 150.42519685043953,51.33511474766419 151.31608548935037,50.82967851833382 152.28796400455758,50.20936899643857 153.28008998883888,49.8877264050825 154.231721034972,49.45121078565717 155.26434195728507,48.96874525057501 156.31721034878865,48.64710103379912 157.410573678324,48.3484310265776 158.48368953890167,48.14165927018621 159.53655793028884,48.02678599700448 160.52868391457014,48.04976065598021 161.6017997750314,47.95786200721341 162.71541057375725,48.02678599700448 163.7885264342185,48.003811335904174 164.88188976387028,47.93488733972481 166.0359955006279,47.82001396975829 167.14960629923735,47.751089921963285 168.34420697414316,47.59026706854638 169.4578177727526,47.45241882458504 170.57142857147846,47.29159577550308 170.83464566932525,48.50925338326488 171.09786276728846,49.589057907185634 171.34083239606116,50.69183209340554 171.60404949390795,51.771627017413266 171.7255343082361,52.8284429825726 170.7536557931453,53.21900425324566 169.66029246360995,53.35684925924579 168.56692913395818,53.54064248011855 167.4938132733805,53.770383812865475 166.42069741291925,54.13796949796961 165.2868391451193,54.13796949796961 164.15298087743577,54.0690472239512 163.01912260975223,54.0690472239512 161.92575928021688,54.0690472239512 160.8728908887133,54.092021317454055 159.77952755917795,54.092021317454055 158.72665916767437,54.11499540874502 157.61304836906493,54.11499540874502 156.53993250848725,54.29878806215129 155.46681664790958,54.59745083042071 154.41394825652242,54.988009286884335 153.42182227224112,55.49343695533753 152.4296962879598,55.998863583328784 151.5185601800913,56.573210761198425 150.68841394828632,57.308373188381665 149.95950506196823,57.974612236517714 149.21034870645963,58.70977046756889 148.76490438706242,59.62871516082669 148.19797525310423,60.593603387111216 147.63104611926246,61.489567630618694 146.86164229479618,62.270661995979026 146.0719910012558,63.05175387657073 145.26209223852493,63.62608455645386 144.3307086614659,64.20041389299149 143.41957255348098,64.75176879225182 142.3262092238292,65.14231109681714 141.25309336336795,65.46393370482838 140.1597300338326,65.80852888870868 139.00562429707497,66.17609655192064 138.03374578186776,66.58960951530025 136.98087739036418,66.98014889679325 135.86726659175474,67.34771480619384 134.87514060747344,67.80717141920468 133.86276715423446,68.19770886428887 132.7694038245827,68.519327470407 131.59505061875097,68.79500022607681 130.582677165512,69.18553610017989 129.5703037120402,69.6679619106726 128.45669291343074,70.01255119509005 127.44431946007535,70.42605769807415 126.47244094498456,70.86253602917714 125.54105736792553,71.39090349715843 124.6299212599406,72.01115950914391 123.75928009010386,72.88410976082378 122.84814398211893,73.7111124000221 122.1799775029067,74.69891745802306 121.57255343091674,75.75563474929368 121.04611923510674,76.7664035557973 120.6614173228154,77.75419632480771 120.72215973003767,78.87981579969346 120.58042744663544,79.93651510177006 120.23622047249228,80.99320985733357 120.23622047249228,82.0958430160681 120.31721034878865,83.29035668511642 120.62092238478363,84.41595078780665 120.98537682800088,85.47262627161399 121.47131608566269,86.5063261504547 122.07874015753623,87.49407974793576 122.92913385829888,88.3669749697001 123.79977502813563,89.21689628405147 124.67041619797237,89.99790246644989 125.39932508440688,89.26283789292211 126.29021372331772,88.84936310362536 127.24184476956725,89.56145814122283 127.95050618681125,90.36543392838212 127.70753655803856,91.46802501470665 128.25421822280623,92.27199456165545 129.40832395956386,92.52467016156879 130.60292463446967,92.68546358977619 131.7975253094919,92.77734550152672 133.0326209224295,92.82328644454537 134.14623172103893,92.7543750268087 135.32058492687065,92.61655213343329 136.53543307096697,92.36387662806374 137.70978627668228,92.06525978661375 138.78290213725995,91.69773086800706 138.80314960633405,91.16940708417678 138.3982002249686,90.50325808484922 139.2080989876995,89.88304877189512 139.45106861647218,88.7574797225825 138.4386951631168,88.43588761829596 137.6895388077246,87.76973120569892 137.34533183358144,86.7819787167391 137.10236220480874,85.8401645047561 136.61642294714693,84.8753754698264 137.466816648026,84.09435299910547 138.31721034878865,83.31332804494014 139.22834645677358,82.7620148173155 139.93700787401758,83.70384083251702 140.36220472445711,84.23218067441485 141.4150731159607,83.77275478935917 142.48818897642195,83.58898419467732 143.33858267730102,83.22144259298511 142.6501687290147,82.41744342152379 143.03487064118963,81.52155553021294 144.04724409454502,81.19995395164005 145.0393700787099,80.71755079418654 145.0393700787099,79.66085485254007 145.44431946007535,78.5352389573527 146.27446569188032,77.63933690459817 147.24634420708753,77.08801094007504 147.0843644544948,75.9623832526122 147.00337457819842,74.99755541428749 146.8008998875739,73.91786262464302 146.59842519683298,72.79222040677269 146.41619797528256,71.73549036389159 146.13273340836167,70.79361844949017 146.0719910012558,69.736879806238 147.0438695163466,69.34634480900422 147.99550056247972,69.69093454469112 149.0483689539833,69.94363337688264 150.14173228351865,70.21930453360255 151.23509561317042,69.98957859117945 151.92350956134032,70.72470085052191 152.79415073129348,70.47200282209087 153.76602924638428,69.96660598508606 154.61642294726335,69.98957859117945 155.4465691789519,69.43823545241321 155.38582677172963,68.54230021190597 156.31721034878865,68.01392661458522 156.09448818909004,67.11798617729801 156.86389201355632,66.33690723153995 157.81552305968944,65.83150188380387 158.6051743532298,66.2909613337979 159.51631046121474,65.92339384257502 160.30596175487153,65.21123026260466 161.25759280088823,64.65987639501691 161.52080989873502,63.80987009029195 162.45219347591046,63.212566602320294 163.38357705296949,63.55716494581429 164.3352080991026,63.534191737941 165.38807649060618,63.120673629047815 166.48143982014153,62.79904795180482 166.94713160861284,62.10984865328646 167.65579302597325,61.44362082595762 168.52643419569358,60.82333812024444 169.4578177727526,60.77739119081525 170.38920134992804,60.34089493242209 171.2193475816166,59.74358300562017 172.08998875145335,59.07734875756432 173.04161979758646,58.77869143882708 173.9527559055714,58.43408638886467 174.9043869517045,57.974612236517714 175.83577052876353,57.60703229553474 176.86839145119302,57.33134697872447 177.8605174353579,56.940792249923106 178.8728908887133,56.8029492561036 179.8852643420687,56.848896929383045 180.91788526438177,57.14755659547518 181.91001124854665,57.446215898380615 182.92238470201846,57.21647800531355 183.89426321710926,57.05566135227855 184.7851518561365,56.4813153030118 185.61529808770865,55.88399398645561 185.97975253104232,55.01098329439992 185.7975253093755,54.00012493052054 185.39257592801005,53.08115916981478 185.16985376831144,52.070292860036716 184.88638920139056,51.05942238794523 184.68391451076604,50.00259880759404 184.33970753662288,49.10659264306014 183.38807649048977,49.543108875339385 182.43644544435665,49.77285394893261 181.44431946007535,50.09449669078458 180.3712035996141,50.00259880759404 179.48031496070325,49.61203241997282 178.48818897653837,49.61203241997282 177.47581552306656,49.91070088991546 176.50393700797576,50.140445619574166 175.85601799783763,50.89860170180327 175.4308211475145,51.886498538340675 174.62092238478363,52.41490684231394 173.60854893142823,52.69059767991712 172.55568054004107,52.98926240457513 171.52305961761158,53.21900425324566 170.38920134992804,53.26495259710646 169.41732283472084,53.60956490258104 168.4859392576618,53.56361662306881 167.4938132733805,53.839306170717464 166.5016872890992,54.229865833272925 165.46906636666972,54.229865833272925 164.41619797528256,54.0690472239512 163.38357705296949,54.04607312828011 162.3307086614659,54.0690472239512 161.25759280088823,54.0690472239512 160.24521934764925,54.11499540874502 160.71091113623697,53.70146143557213 161.70303712040186,53.65551317340578 162.73565804283135,53.65551317340578 163.74803149607033,53.60956490258104 164.8008998875739,53.56361662306881 165.81327334081288,53.35684925924579 166.94713160861284,53.26495259710646 167.93925759289414,53.150081721221795 168.91113610810135,53.01223659911193 169.90326209226623,52.80546877082088 170.89538807654753,52.57572653524403 171.64454443205614,52.16218996926909 171.42182227224112,51.19726860652736 171.17885264346842,50.1863945396326 170.9763779528439,49.175516310264356 170.7536557931453,48.187608564432594 170.4904386951821,47.245646313545876" stroke="yellow" stroke-linecap="round" stroke-linejoin="round" stroke-width="0.5"><title>2025-04-25 21.7km</title><desc>1745588549000</desc></polyline><polyline fill="none" points="69.52073732716963,129.14468696757103 69.58709677413572,129.5713714848389 69.71981566818431,130.09845142177073 69.83041474653874,130.65062929232954 70.00737327185925,131.2279049415083 70.11797235033009,131.80517934812815 70.25069124437869,132.4075513173011 70.42764976958279,132.93462568047107 70.40552995388862,133.43660030153114 70.40552995388862,133.7377846231975 70.89216589869466,133.71268594264984 71.4230414746562,133.58719250463764 71.93179723504,133.33620545253507 72.52903225808404,133.26090929104248 73.08202764985617,133.08521816547727 73.63502304151189,132.95972443386563 74.16589861747343,132.78403311103466 74.38709677418228,132.25695845182054 74.65253456227947,131.7298827568593 74.91797235037666,131.2279049415083 75.29400921671186,130.75102514668833 75.86912442394532,130.39963949209778 76.40000000002328,130.22394649215857 76.90875576040708,130.1486494569981 77.48387096775696,129.9980553232017 78.081105990801,129.87256014705054 78.67834101384506,129.8976591869141 79.27557603700552,130.1486494569981 79.80645161296707,130.3745404991496 80.33732718904503,130.42473848271766 80.86820276500657,130.42473848271766 81.3548387096962,130.42473848271766 81.7972350231139,130.24904549922212 82.21751152083743,129.9980553232017 82.72626728122123,129.84746110480046 83.30138248857111,129.79726301319897 83.83225806453265,129.6466686820786 84.29677419364452,129.42077702685492 84.45161290338729,129.97295629265136 84.60645161289722,130.50003544046194 84.73917050694581,131.05221248415182 84.80552995402832,131.6043883911043 84.96036866353825,132.1314643326914 85.09308755758684,132.70873679453507 85.18156682036351,133.28600801390712 85.33640552998986,133.83817932198872 85.60184331797063,134.34015225194162 85.82304147467948,134.89232138975058 86.0,135.44448939090944 86.0,135.9966562553309 85.6903225807473,136.47352672339184 85.49124423961621,137.0005930965417 85.02672811062075,137.35197010319098 84.51797235023696,137.6531500282581 84.09769585251343,137.97942789876834 83.56682027643546,138.20531234578812 83.01382488477975,138.2555088637746 82.46082949312404,138.35590187154594 81.92995391704608,138.50649131272803 81.42119815666229,138.53158954466926 80.95668202766683,138.2555088637746 80.49216589855496,138.23041060596006 79.93917050689925,138.10491928170086 79.43041474651545,137.92923132909345 78.87741935485974,137.8288381617167 78.39078341017012,137.8037398639426 77.83778801839799,137.87903475007624 77.30691244243644,138.00452618004056 76.75391705066431,138.05472273554187 76.26728110597469,138.2806071192026 75.78064516128507,138.55668777428218 75.22764976962935,138.65708066924708 74.71889400924556,138.83276814519195 74.29861751152202,139.15904458073783 73.76774193556048,139.23433908639709 73.25898617517669,139.38492803441477 72.77235023048706,139.66100755284424 72.15299539174885,139.73630191761185 71.7990783409914,140.18806766258786 71.22396313364152,140.36375413567293 70.6709677419858,140.43904830311658 70.20645161287393,140.7653227847768 69.76405529957265,141.1166948597529 69.29953917057719,141.44296851722174 68.7907834101934,141.76924177774345 68.2820276498096,142.07041674290667 67.75115207373165,142.27119986520847 67.26451612904202,142.07041674290667 66.80000000004657,142.34649349737447 66.4018433180172,142.72296134082717 65.89308755763341,142.97393960965564 65.42857142852154,143.25001543408143 65.14101382496301,143.6766775130527 64.78709677420557,144.00294805664453 64.7649769585114,144.37941357539967 64.21198156685568,144.55509730332415 63.658986175083555,144.6805856099527 63.061751152039506,144.90646441400168 62.48663594480604,145.08214779675473 61.91152073733974,145.33312385823228 61.38064516126178,145.13234302782803 60.82764976960607,145.05705017768196 60.36313364061061,144.8060738579661 59.85437788022682,145.1072454134992 59.345622119959444,145.35822145146085 59.146543778828345,145.8350752767583 59.146543778828345,146.33702575607458 58.59354838705622,146.61309811924002 58.084792626672424,146.9142676460906 57.5981566819828,147.19033941524685 57.08940092171542,147.46641090034973 56.55852534563746,147.7675794691022 55.96129032259341,148.0185530181625 55.54101382486988,147.64209260654752 55.032258064486086,147.7675794691022 54.50138248852454,148.06874769969727 53.97050691244658,148.36991559230955 53.50599078333471,148.67108314682264 53.30691244232003,149.1479310831055 53.50599078333471,149.72516692458885 53.41751152079087,150.20201298734173 52.842396313440986,150.5282755944936 52.48847926268354,150.85453780487296 52.73179723508656,151.40667294920422 52.15668202773668,151.68274009536253 51.62580645165872,151.95880695735104 51.05069124419242,152.20977658531046 50.519815668230876,152.33526131126564 50.011059907847084,152.71171513697482 49.480184331769124,152.91249029463506 48.94930875580758,153.21365274951677 48.55115207377821,152.91249029463506 48.285714285681024,152.3101643708069 47.71059907833114,152.3101643708069 47.15760368667543,152.53603675070917 46.604608295019716,152.56113367003854 45.9852534562815,152.41055211858475 45.41013824893162,152.20977658531046 44.901382488547824,152.08429180059466 44.39262672816403,151.98390393066802 43.95023041474633,151.65764309378574 43.397235023090616,151.63254608993884 42.800000000046566,151.5823520750564 42.42396313371137,151.90861300352844 42.31336405535694,152.4607459785475 42.401843317900784,153.03797469194978 42.62304147472605,153.5650085194793 42.755760368774645,154.09204131166916 42.755760368774645,154.6692665152368 42.93271889409516,155.22139380857698 43.021198156639,155.74842334692948 43.08755760372151,156.3256449867331 43.220276497653686,156.8024793176155 43.26451612904202,157.27931280102348 43.50783410144504,157.78124186804052 43.529953917022794,158.28316999602248 43.44147465447895,158.78509718499845 43.70691244234331,159.33721600839635 43.72903225803748,159.8893336954643 43.35299539170228,160.34106550354045 42.84423963131849,160.59202729046228 42.33548387105111,160.7426042498846 41.937327189021744,161.1190462789964 41.671889400924556,161.59587209080928 41.49493087560404,162.12288910747156 41.29585253458936,162.62480911333114 41.22949308762327,163.17692003535922 41.163133640540764,163.77922156368732 41.03041474649217,164.10546766026528 40.58801843319088,164.30623429184197 40.123502304195426,164.58228816490737 39.63686635938939,164.85834175397758 39.03963133646175,164.93362904715468 38.597235023160465,165.20968227472622 38.597235023160465,165.71159650626942 38.86267281102482,166.23860543908086 39.28294930886477,166.64013535980484 39.083870967733674,167.06676024207263 38.55299539165571,167.14204691560008 37.97788018430583,167.1922380195465 37.46912442392204,167.34281127509894 36.916129032266326,167.49338444616296 36.341013824916445,167.71924404418678 35.87649769592099,168.04548535030335 35.56682027655188,167.49338444616296 35.6110599078238,166.865995676053 35.279262672760524,166.43937047451618 34.70414746541064,166.21350979903946 34.195391705143265,166.23860543908086 33.90783410135191,166.74051774601685 33.57603686628863,167.24242911412148 33.11152073740959,167.59376651313505 32.64700460829772,167.920007971843 32.2267281106906,168.24624903386575 32.13824884791393,168.6226805355691 32.492165898671374,169.0994930129964 32.492165898671374,169.55120931530837 32.73548387107439,170.00292485722457 32.66912442399189,170.40444914496038 32.95668202766683,170.8812584563275 32.93456221197266,171.43335238992586 33.39907834096812,171.65920867180103 33.775115207303315,172.0105402878835 34.10691244248301,172.46225168986712 34.65990783413872,172.56263189815218 35.12442396313418,172.76339220203226 35.12442396313418,173.3154822633369 34.94746543781366,173.84247626233264 34.70414746541064,174.34437434669235 34.4165898617357,174.77098698043847 33.86359447007999,174.77098698043847 33.31059907830786,174.87136632509646 32.757603686652146,174.97174563226872 32.2267281106906,175.1725041338068 31.673732718918473,175.4234520496102 31.076497695874423,175.57402068641386 30.479262672830373,175.67439973072032 29.882027649786323,175.74968398927012 29.284792626742274,175.74968398927012 28.687557603698224,175.69949448588886 28.112442396348342,175.59911545104114 27.515207373187877,175.44854682826553 26.962211981532164,175.24778853321914 26.45345622114837,175.0219352716813 25.94470046076458,174.79608182009542 25.435944700497203,174.46984872122994 24.971428571501747,174.09342542188824 24.529032258084044,173.7420965328056 24.130875576054677,173.79228640225483 23.644239631365053,173.7420965328056 23.201843318063766,173.49114704472595 22.84792626730632,173.139817367075 22.383410138310865,172.88886731569073 21.874654377927072,172.63791702975868 21.43225806450937,172.28658623501542 21.100460829446092,171.88506476348266 20.613824884872884,171.91015987310675 20.19354838714935,171.60901840336737 19.817511520697735,171.2325910909858 19.28663594473619,171.18240074274945 18.888479262706824,170.80597283196403 18.733640553080477,170.25387760746526 18.379723502206616,169.90254369133618 17.91520737321116,170.1033059854817 17.671889400924556,170.58011583192274 17.2073732719291,170.90635365975322 16.632258064462803,170.9816392560606 16.123502304195426,170.9816392560606 15.813824884826317,170.52992536165402 15.43778801849112,170.1033059854817 15.105990783427842,169.72687656086055 14.884792626835406,169.22496983988094 14.685714285704307,168.69796677253908 14.486635944689624,168.12077174926526 14.376036866451614,167.54357548433472 14.24331797240302,166.9914735474449 14.132718894048594,166.38917922976543 14.066359447082505,165.7868835600675 14.022119815694168,165.18458653846756 14.0,164.60738395745284 14.022119815694168,164.05527597889886 14.132718894048594,163.50316686436418 14.176958525320515,162.95105661370326 14.199078341014683,162.3989452269161 14.221198156592436,161.89702479852713 14.309677419369109,161.319815145107 14.53087557607796,160.7426042498846 14.707834101398475,160.1653921130346 14.862672811024822,159.63837125129066 15.12811059912201,159.11134935429436 15.393548387219198,158.5843264220457 15.636866359505802,158.0322060493636 15.990783410146832,157.55537390403333 16.300460829399526,157.0283479153877 16.654377880273387,156.55151398590533 17.030414746608585,156.0746792089485 17.406451612943783,155.648036847997 17.804608294856735,155.2464904767985 18.247004608274437,154.97042699792655 18.578801843337715,154.61907306857756 18.97695852536708,154.19242839282379 19.485714285750873,153.8410734445206 20.06082949321717,153.5650085194793 20.569585253484547,153.21365274951677 21.122580645256676,152.937587178807 21.71981566818431,152.6866182317026 22.25069124426227,152.43564904975938 22.78156682034023,152.20977658531046 23.312442396301776,151.98390393066802 23.843317972379737,151.75803108586115 24.39631336403545,151.53215805086074 24.971428571501747,151.33138186018914 25.546543778735213,151.13060551913804 26.12165898620151,150.87963488153764 26.71889400924556,150.72905238624662 27.271889400901273,150.5282755944936 27.8248847926734,150.37769290202414 28.400000000023283,150.20201298734173 28.952995391678996,150.02633295758278 29.505990783451125,149.82555563989445 30.081105990801007,149.64987536359695 30.678341013845056,149.44909776409622 31.209216589923017,149.1981255534629 31.80645161285065,149.0224448662775 32.33732718892861,148.82166679715738 32.890322580584325,148.62088857780327 33.46543778805062,148.4201102081861 34.018433179706335,148.21933168827672 34.571428571478464,147.96835832711076 35.10230414744001,147.7926768345351 35.6110599078238,147.541703074181 36.14193548390176,147.36602130226674 36.69493087567389,147.19033941524685 37.22580645151902,146.98955997495796 37.69032258063089,146.8138778413704 38.19907834101468,146.63819559279364 38.641474654432386,146.48761071669287 39.17235023039393,146.23663573531667 39.70322580647189,146.0107580513577 40.25622119824402,145.73468506819336 40.7649769585114,145.35822145146085 41.317972350283526,145.03195255631 41.87096774193924,144.88136677851435 42.35760368662886,144.45470661568106 42.866359447012655,144.0531434896693 43.153917050687596,143.60138425428886 43.50783410144504,143.07433085137745 43.88387096778024,142.5974721183593 44.23778801842127,141.9951230333536 44.61382488475647,141.39277259566006 44.967741935513914,140.84061683964683 45.43225806450937,140.31355801221798 45.830414746538736,139.78649814904202 46.25069124426227,139.30963357104338 46.69308755767997,138.85786634663236 47.15760368667543,138.4060983613017 47.66635944705922,137.97942789876834 48.19723502302077,137.55275675741723 48.77235023037065,137.20138001380838 49.30322580644861,136.85000280986424 49.878341013914905,136.57392039813567 50.40921658987645,136.34803457715316 50.962211981532164,136.04685318662087 51.53732718899846,135.82096692177583 52.13456221204251,135.62017897109035 52.73179723508656,135.59508046659175 53.35115207382478,135.54488345078425 53.94838709675241,135.49468642557622 54.54562211979646,135.26879969568108 55.12073732726276,135.0680113316048 55.74009216600098,135.0429127755633 56.33732718892861,135.1935040768003 56.93456221197266,135.1935040768003 57.50967741943896,135.0429127755633 58.06267281109467,134.84212424239377 58.682027649716474,134.84212424239377 59.30138248845469,134.84212424239377 59.876497695804574,135.0429127755633 60.4294930875767,135.21860261872644 61.004608294926584,135.16840553242946 61.60184331797063,134.9676170932653 62.24331797240302,134.84212424239377 62.86267281114124,134.79192708566552 63.43778801849112,134.6915327439201 64.012903225841,134.6915327439201 64.61013824888505,134.56603976388578 65.18525345623493,134.46564533765195 65.82672811066732,134.4154481103178 66.49032258056104,134.31505362770986 67.10967741941568,134.21465910747065 67.75115207373165,134.08916590435547 68.39262672816403,133.98877129956963 68.98986175120808,133.91347532128566 69.58709677413572,133.96367264256696 70.14009216590784,133.76288330141688 70.40552995388862,133.31110673435614 70.2949308756506,132.75893434119644 70.11797235033009,132.15656316123204 70.02949308755342,131.6043883911043 69.89677419350483,131.07731141368276 69.76405529957265,130.5502334004268 69.63133640552405,130.04825337714283 69.52073732716963,129.4960742664116 69.38801843323745,128.99409227009164 69.25529953918885,128.46701016268344 69.12258064525668,127.814430880273 68.92350230412558,127.18694930354832 68.96774193551391,126.30847262957832 69.56497695855796,126.15787633942091 70.16221198160201,126.10767755718553 70.7373271889519,125.93198174555437 71.29032258060761,125.88178292108933 71.84331797237974,125.75628581878846 72.44055299542379,125.63078865784337 73.03778801846784,125.55549033300485 73.32534562214278,125.12879942654399 73.3695852534147,124.55151064888923" stroke="#4DD2FF" stroke-linecap="round" stroke-linejoin="round" stroke-width="0.5"><title>2025-04-22 10.2km</title><desc>1745324081000</desc></polyline><polyline fill="none" points="169.0305967888562,129.08881473954534 169.29233565588947,130.0787844309525 169.5758860950591,131.34099041306763 169.94668282335624,132.42994759630528 170.03392911236733,133.14766692457488 171.12450772488955,132.70218619148363 172.25870948191732,132.47944554346032 173.37109966669232,132.18245772106457 173.89457740075886,131.24199408316053 174.43986670707818,130.27677792464965 175.42138745833654,129.633298528468 176.5555892153643,129.38580603606533 177.7552256891504,129.21256115363212 178.91123901843093,129.633298528468 180.00181763095316,129.75704468775075 181.13601938798092,129.50955231118132 182.1829748559976,129.1878118753957 183.31717661314178,128.81657242472284 183.7752196303336,129.80654313528794 183.99333535286132,130.96975398485665 184.29869736428373,132.2319557146111 184.66949409258086,133.46940254294896 185.14934868214186,134.63259728241246 184.8003635260975,135.79578690600465 184.0805816418724,136.6867372004781 183.0554377459921,137.33019943538238 181.87761284445878,137.52818750045844 180.65616479853634,137.77567237336189 179.52196304139215,137.50343900048756 178.36594971222803,137.13221122213872 177.1881248105783,137.10746268506045 175.94486519240309,137.33019943538238 174.8106634352589,137.82516932010185 173.67646167823114,138.27064142440213 172.5204483489506,138.64186760483426 171.38624659192283,139.01309326427872 170.33929112390615,139.48331168477307 169.31414722802583,140.1762636229978 168.3108149045147,140.89396193085122 167.17661314748693,141.43842141708592 166.12965767947026,141.58691017341334 165.08270221133716,142.25510854503955 164.23205089359544,143.04704517006758 163.59951529826503,143.66574400858372 162.48712511349004,144.01221472601173 161.4183580732206,144.43292855852633 160.34959103295114,144.2101977893908 159.32444713718724,144.28444139991188 158.713723114226,145.00212856091093 158.05937594652642,145.79405696151662 156.92517418961506,146.43749704115908 155.7691608602181,147.00669273006497 154.8312632534653,146.75921649407246 153.7406846410595,147.37790664992644 152.9336564677069,148.19457543990575 153.10814904572908,149.28346323780715 152.1266282943543,149.87740014740848 151.77764313830994,150.7435557502904 150.75249924266245,151.26324775067042 149.72735534678213,151.63445569737814 148.70221145101823,152.20364020386478 148.00424113904592,151.38698379075504 146.93547409866005,151.51071977303945 145.82308391388506,151.46122538708732 144.6888821568573,151.1147644261946 143.59830354433507,150.6693139526178 142.44229021505453,150.71880848667934 142.11511663126294,151.70869722412317 142.48591335956007,152.77282348574954 142.57315964845475,153.83694546678453 142.7912753710989,154.92581003982923 142.9439563768683,155.96517658780795 143.38018782180734,157.05403240129817 143.44562253856566,158.09339058809564 143.20569524378516,159.18223764238064 142.1369282035157,159.65242021228187 141.43895789142698,160.56803650295478 141.0463495909935,161.65687337267445 141.0245380187407,162.84469030163018 140.173886700999,163.36435853119474 139.08330808836035,163.7850415885041 138.45077249314636,164.47792987182038 139.10511966061313,165.41827535393531 138.38533777638804,165.9379385286593 137.2947591637494,166.16065100530977 136.13874583458528,166.53183805002482 135.46258709486574,166.30912588571664 135.11360193882138,165.26979997364106 134.02302332618274,165.14607042641728 133.41229930322152,166.18539682452683 132.40896697971039,166.8782788218814 132.27809754619375,167.69488741789246 132.7143289911328,168.73420380413882 132.91063314140774,169.6497886668949 133.3468645864632,170.392152446002 134.1538927598158,171.2582408893213 135.11360193882138,171.70365669915918 134.65555892139673,172.94091890362324 133.6740381702548,173.53480270685395 132.43077855196316,173.78225389818544 131.25295365031343,174.22766545938794 129.94425931526348,174.52460608366528 128.72281126922462,174.40088086406467 127.50136322330218,174.15343025128823 126.41078461066354,173.70801856505568 125.40745228715241,173.08938997937366 124.4695546803996,172.4460147160571 123.46622235688847,172.37177900812821 122.57194789452478,171.7284019998915 121.56861557089724,171.08502342741122 120.67434110876638,170.6396065762383 119.75825507414993,169.99622535629896 118.84216903964989,169.3775880926696 118.0351408662973,169.35284257208696 116.96637382602785,169.77351610804908 115.96304150251672,169.3033515238203 115.24325961829163,168.4867478919041 114.82883974548895,167.39793912909226 114.52347773395013,166.284380078112 114.28355043916963,165.0965785913868 114.21811572252773,163.83453366887989 114.26173886703327,162.62197503366042 114.3926083004335,161.4341571047553 114.5452893062029,160.27108021531603 114.8724628899945,159.1327446916548 115.33050590730272,158.0438974337012 115.98485307476949,156.9302990117867 116.68282338685822,155.9156830353022 117.35898212657776,155.0000506429351 118.1223871554248,154.18340286251623 119.01666161767207,153.44099360177643 119.99818236881401,152.74807641195366 121.02332626469433,152.12939881594502 122.13571644946933,151.65920287530753 123.22629506199155,151.18900609889533 124.42593153577764,150.84254478145158 125.4946985761635,150.32285195458098 126.6070887609385,149.95164216737612 127.69766737357713,149.70416868652683 128.78824598598294,149.30821063564508 129.94425931526348,148.88750455711852 131.1875189335551,148.4667978095531 132.34353226295207,148.02134287694935 133.43411087535787,147.50164450745797 134.65555892139673,146.95719750138232 135.94244168431032,146.48699236707762 137.16388973034918,145.99203869115445 138.38533777638804,145.5465795910568 139.47591638891026,145.34859752794728 140.65374129044358,144.63091130700195 141.766131475335,143.86372733127791 142.74765222659335,143.04704517006758 143.44562253856566,142.00762786343694 144.2744622840546,140.91871011367766 144.97243259614334,139.80503959622 145.73583762487397,138.76560954915476 146.63011208712123,137.8746662576741 147.56800969399046,137.00846851366805 148.59315358975437,136.3402568870806 149.64010905788746,135.77103824392543 150.81793395942077,135.15232093801023 152.01757043320686,134.75634110256215 153.21720690687653,134.38510946842143 154.41684338077903,134.1871190505335 155.63829142670147,134.08812378597213 156.8815510449931,134.11287260553217 157.9939412297681,134.11287260553217 159.1717661313014,134.06337496399647 160.39321417745668,134.11287260553217 161.52741593448445,134.0386261398089 162.74886398063973,133.9396308196301 163.92668888217304,133.84063546246034 165.1263253558427,133.6673934982391 166.34777340199798,133.5189002957486 167.5255983035313,133.32090922931093 168.7906694940757,133.19716473756125 170.07755225687288,133.07342018789495 171.2553771584062,132.62793932962813 172.3459557709284,132.3804496397497 173.48015752795618,132.08346170611912 173.98182368965354,130.9450048711733 174.74522871850058,129.8560415734828 175.94486519240309,129.50955231118132 177.1008785215672,129.26205970306182 178.32232656760607,129.33630750980228 179.45652832463384,129.75704468775075 180.6779763707891,129.73229546050425 181.74674341094214,129.21256115363212 182.88094516808633,129.03931615769397 183.64435019693337,129.28680897431332 183.927900636103,130.47477126997546 184.21145107538905,131.61323012926732 184.38594365341123,132.77643303244258 184.887609815225,133.89013314567273 185.17116025439464,135.02857730310643 184.73492880933918,136.0927706710063 183.84065434720833,136.85997718694853 182.815510451328,137.45394199341536 181.65949712204747,137.6024329866632 180.5034837926505,137.6766784520296 179.30384731898084,137.42919348645955 178.16964556195308,137.0579656039772 177.01363223267253,137.10746268506045 175.81399575888645,137.37969646553393 174.76704029075336,137.8499177900958 173.74189639498945,138.29538985263207 172.62950621021446,138.56762241042452 171.51711602543946,138.93884817397338 170.64465313532855,139.43381504830904 169.5758860950591,139.97827754021273 168.6379884883063,140.72072458657203 167.56922144792043,141.2404362790694 166.5658891244093,141.3146807231824 165.6061799454037,142.00762786343694 164.79915177216753,142.70057318839827 164.29748561035376,143.46776053775102 163.25053014233708,143.7647356884554 162.1381399575621,144.1854499145993 161.06937291729264,144.3834328483208 160.04422902152874,143.96271893708035 159.01908512564842,144.48242425953504 158.6482883974677,145.47233633472933 157.57952135708183,146.1900202726829 156.53256588906515,146.6107306413469 155.5510451378068,147.13043076122995 154.6567706754431,146.88295464107068 153.6316267796792,147.42740179982502 152.97727961221244,148.2440704369219 153.06452590122353,149.28346323780715 152.10481672210153,149.85265280280146 151.84307785506826,150.71880848667934 150.77431081491522,151.28799496340798 149.79279006354045,151.63445569737814 148.74583459552377,152.1788930768962 148.00424113904592,151.38698379075504 146.93547409866005,151.53546696249396 145.80127234163228,151.46122538708732 144.71069372911006,151.13951165272738 143.6419266888406,150.6693139526178 142.50772493181285,150.6693139526178 142.09330505901016,151.63445569737814 142.42047864280175,152.6985822575225 142.57315964845475,153.81219849258196 142.7912753710989,154.9505569098401 142.92214480461553,155.96517658780795 143.38018782180734,157.029285727971 143.4238109664293,158.09339058809564 143.22750681603793,159.23173058382235 142.1369282035157,159.65242021228187 141.46076946367975,160.51854381154408 141.0245380187407,161.63212712996756 141.0245380187407,162.8199441700417 140.173886700999,163.36435853119474 139.08330808836035,163.7850415885041 138.4289609208936,164.4531838929397 139.061496516224,165.3440376741928 138.60345349879935,165.98743020629627 137.60012117528822,166.06166770550772 136.5967888518935,166.383363294648 135.6370796727715,166.8040415517753 135.44077552249655,165.64098826801637 134.54650106024928,165.04708674704307 133.76128445914946,165.66573413577862 132.8670099969022,166.53183805002482 131.95092396240216,167.1999734181736 132.36534383508842,168.21454612130765 132.4744016964687,169.10538723843638 132.75795213563833,170.11995263549034 133.5649803088745,170.68909737450304 134.48106634349097,171.38196757837432 135.02635564981028,172.09958123401157 134.56831263250206,173.16362548604957 133.7394728870131,173.68327344942372 132.6270827021217,173.83174410866923 131.53650408959948,174.20292039227206 130.3368676158134,174.45037095886073 129.11541956977453,174.49986104437266 127.93759466824122,174.37613581321784 126.82520448346622,174.02970485805417 125.75643744319677,173.48531244086917 124.84035140858032,172.71821213371004 123.85883065732196,172.5697408497217 122.92093305056915,171.95110960284364 121.89578915480524,171.38196757837432 121.00151469244156,170.66435197653482 120.08542865794152,170.21893441714928 119.12571947893593,169.79826158931246 118.6676764616277,168.85793167343945 117.86064828839153,169.20436939966748 117.03180854278617,169.84775254499982 116.11572250828613,169.55080667228322 115.37412905180827,168.80844053259352 114.85065131774172,167.86810709911515 114.45804301719181,166.75455002687522 114.21811572252773,165.59149652556516 114.06543471675832,164.35419995422126 114.02181157213636,163.11689759683213 114.08724628889468,161.80535078045796 114.28355043916963,160.61752918519778 114.56710087845568,159.4049558059487 115.09057861252222,158.3903493200778 115.70130263548344,157.35099229990738 116.33383823081385,156.36112467487692 116.9227506815223,155.42074700054945 117.59890942135826,154.55460671160836 118.44956073909998,153.7627045372792 119.38745834585279,152.97079999232665 120.28173280821647,152.40161713643465 121.37231142062228,151.9066745271557 122.44107846100815,151.41173099188018 123.55346864578314,150.99102825880982 124.57861254166346,150.5208302946994 125.71281429869123,150.12487346620765 126.7597697667079,149.902147489629 127.80672523472458,149.6546739625628 128.8973038472468,149.30821063564508 129.87882459850516,148.91225199197652 130.83853377762716,148.61528262041975 131.8200545287691,148.19457543990575 132.8670099969022,147.7986151293153 133.9794001816772,147.42740179982502 135.06997879419941,146.9819451168587 136.16055740683805,146.58598299112055 137.16388973034918,146.26426332749543 137.97091790358536,145.7445615059405 138.9742502270965,145.32384975958848 140.04301726748236,144.82889390722266 141.08997273549903,144.1607020374504 142.04968191450462,143.44301259348867 142.9439563768683,142.65107715394697 143.70736140559893,141.7353988463292 144.4489548620768,141.14144365448738 144.64525901235174,140.2505083658907 145.32141775207128,139.35957007625257 146.01938806416,138.54287400763133 146.78279309289064,137.7261754172796 147.6770675551379,136.93422286072746 148.6367767342599,136.3155082758458 149.57467434112914,135.8700328785926 150.38170251436532,135.32556192955235 151.40684641012922,134.97907983296318 152.5192365949042,134.63259728241246 153.58800363517366,134.38510946842143 154.6567706754431,134.1871190505335 155.57285670994315,134.1871190505335 156.5761890335707,134.1871190505335 157.57952135708183,134.16237023781287 158.6482883974677,134.11287260553217 159.6516207208624,134.08812378597213 160.6985761889955,134.06337496399647 161.76734322938137,134.06337496399647 162.8361102695344,134.16237023781287 163.9485004543094,134.21186786086764 165.0608906392008,133.84063546246034 166.12965767947026,133.5189002957486 167.13299000286497,133.37040700981743 168.2235686155036,133.22191364053288 169.2487125112675,133.2466625412344 170.38291426829528,132.99917343028937 171.36443501955364,132.52894348150585 172.38957891543396,132.4051986192062 173.3929112390615,132.10821071342798 173.8509542561369,131.24199408316053 174.30899727356154,130.30152710090624 175.11602544679772,129.65804776491132 176.14116934256162,129.53430155929527 177.1226900939364,129.28680897431332 178.12602241733111,129.3115582432365 179.06392002420034,129.75704468775075 180.1326870644698,129.83129235552042 181.0923962435918,129.58380004853825 182.07391699473374,129.21256115363212 183.07724931836128,128.94031896619708 183.99333535286132,128.39583375054644 184.93123295961414,128.14834010010236 185.9781884276308,127.67810152613674 185.84731899411418,126.71287236001808 185.6728264162084,125.67339085642016 184.77855195384473,125.64864124704036 183.64435019693337,125.92088682312169 182.5101484397892,126.24263123350102 181.44138139951974,126.58912477616104 180.37261435913388,126.88611888000742 179.32565889123362,127.18311265029479 178.2350802787114,127.52960496072774 177.2753710995894,127.82659800827969 176.92638594366144,126.86136938413256 176.66464707662817,125.84663805743912" stroke="yellow" stroke-linecap="round" stroke-linejoin="round" stroke-width="0.5"><title>2025-04-18 20.5km</title><desc>1744979276000</desc></polyline><polyline fill="none" points="70.43243243242614,213.91842136677587 70.76412776403595,213.8682394248899 71.36117936111987,213.64242057019146 71.98034398024902,213.36641948952456 72.71007371006999,213.2660553897731 73.35135135136079,213.0402360278822 74.0589680589037,212.9147807446716 74.41277641279157,212.33768568589585 74.7002457001945,211.6351335029467 75.09828009828925,211.00785321259173 75.65110565104987,210.4809366344998 76.33660933654755,210.28020623710472 77.06633906636853,210.12965834050556 77.77395577391144,209.95401902092271 78.50368550373241,209.92892768015736 79.21130221127532,210.12965834050556 79.89680589688942,210.40566275309538 80.51597051601857,210.50602792363497 81.24570024572313,210.4809366344998 81.86486486485228,210.2551149268984 82.48402948409785,209.95401902092271 83.23587223584764,209.85365364377503 83.92137592134532,209.62783140782267 84.42997543001547,209.70310550762224 84.56265356263611,210.4809366344998 84.7174447174184,211.1584006161429 84.85012285003904,211.8860452081426 85.07125307130627,212.6387789149885 85.20393120392691,213.4166015253286 85.46928746928461,214.14423998902203 85.75675675680395,214.8216947146284 86.0,215.49914772858028 85.88943488942459,216.2016897870344 85.55773955769837,216.85404862169526 85.07125307130627,217.33077138170484 84.4520884520607,217.7071308567247 83.87714987713844,218.10858038120205 83.23587223584764,218.33439547460875 82.55036855034996,218.3845765806036 81.86486486485228,218.56021037779283 81.15724815730937,218.43475767725613 80.47174447169527,218.23403323433013 79.7862407861976,218.0583992235479 79.07862407853827,217.8827650976309 78.37100737099536,217.80749329426908 77.70761670765933,217.9078556941531 77.02211302204523,218.03330864114105 76.33660933654755,218.20894266839605 75.7174447174184,218.61039144155802 75.00982800975908,218.7107535409741 74.39066339062992,219.036930104543 73.77149877150077,219.2627444161335 73.17444717430044,219.4383776380855 72.53316953312606,219.66419161163503 71.95823095820379,219.96527661383152 71.40540540544316,220.3165420224541 70.71990171994548,220.4670841995685 70.12285012286156,220.94380053618806 69.59213759202976,221.3703354873869 69.06142506143078,221.79686976023368 68.44226044218522,222.0979523678543 67.82309582305606,222.34885428257985 67.2481572481338,222.1983131619054 66.67321867321152,222.4993953188241 66.14250614249613,222.87574753945228 65.56756756757386,223.15173883226817 65.3243243242614,223.55318020566483 64.97051597060636,223.90444091439713 64.77149877150077,224.35606114959228 64.17444717441685,224.53169103563414 63.577395577332936,224.6822308464034 63.00245700252708,224.90804040405783 62.405405405326746,225.13384977166425 61.85257985256612,225.40983874042286 61.32186732185073,225.18402960529784 60.81326781318057,225.10875985131133 60.34889434883371,224.88295046260464 59.75184275186621,225.20911951857852 59.265356265357696,225.5101982950291 59.221130221150815,226.08726500504417 59.02211302204523,226.563971350668 58.46928746928461,226.839958847675 57.93857493856922,227.09085632566712 57.42997542989906,227.44211240060395 56.877149877138436,227.66791963443393 56.32432432437781,227.9689956503862 55.8378378378693,228.14462317022844 55.4619164619362,227.7431886701088 54.88697788689751,227.9689956503862 54.33415233402047,228.29516095289728 53.7592137590982,228.62132585872314 53.3832923831651,229.0729381502897 53.471744471695274,229.67508668944356 53.62653562647756,230.20196555214352 53.07371007360052,230.55321755216573 52.54299754288513,230.80411155632464 52.786240786197595,231.35607753912336 52.27764127764385,231.7324173305824 51.72481572488323,232.00839950877707 51.19410319405142,232.30947065190412 50.6412776412908,232.38473838483333 50.11056511045899,232.68580910554738 49.53562653565314,232.98687948822044 48.9828009827761,233.28794953296892 48.54054054047447,232.88652273151092 48.23095823090989,232.33455989859067 47.63390663382597,232.40982762453496 47.08108108106535,232.6105414571066 46.46191646181978,232.63563067559153 45.88697788689751,232.40982762453496 45.28992628993001,232.18402438334306 44.64864864863921,232.0836673262238 44.11793611792382,231.80768522553262 43.58722358720843,231.68223872227827 42.99017199012451,231.68223872227827 42.503685503616,231.90804238594137 42.34889434883371,232.46000609677867 42.45945945940912,233.03705785248894 42.614250614191405,233.56393011036562 42.83538083534222,234.06571225079824 42.79115479113534,234.6176715209731 42.92383292375598,235.19471863427316 43.05651105637662,235.7466755809437 43.122850122861564,236.4240757357329 43.23341523343697,236.95094133997918 43.36609336605761,237.47780590920593 43.63144963141531,238.00466944341315 43.47665847663302,238.53153194271727 43.58722358720843,239.0333047894528 43.80835380824283,239.61034240270965 43.697788697783835,240.16229026237852 43.23341523343697,240.53861769734067 42.63636363635305,240.73932544674608 42.083538083476014,241.09056364677963 41.75184275186621,241.6425084604707 41.55282555276062,242.21954046035535 41.309582309564576,242.79657121896162 41.26535626524128,243.42377715726616 41.26535626524128,244.05098162891227 40.80098280089442,244.2767748797487 40.33660933654755,244.6029203508515 39.73955773958005,244.85380121262278 39.1203931204509,245.02941767626908 38.65601965598762,245.330474203598 38.54545454541221,245.95767421694472 39.05405405408237,246.40925731847528 39.40786240785383,246.93610330938827 38.788697788724676,247.21206984401215 38.12530712527223,247.23715769677074 37.52825552818831,247.41277260001516 36.88697788689751,247.58838738829945 36.24570024572313,247.8643532518472 35.73710073705297,248.06505551980808 35.58230958227068,247.38768476370024 35.560196560109034,246.76048809406348 35.02948402939364,246.43434524623444 34.41031941026449,246.2587297023856 34.03439803433139,246.71031229713117 33.72481572476681,247.23715769677074 33.26044226041995,247.6887386442395 32.72972972970456,248.0399677444948 32.19901719898917,248.36610864009708 32.28746928740293,248.84277538966853 32.5970515969675,249.34452894778224 32.72972972970456,249.84628156744293 32.61916461912915,250.2978581226489 32.995085995062254,250.77452143962728 32.92874692869373,251.3013588571048 33.28255528246518,251.72784553247038 33.702702702605166,251.97871973077417 34.07862407853827,252.45538006103016 34.60933660925366,252.6811662375403 35.1621621621307,252.78151558846002 35.20638820633758,253.38361090506078 34.98525798518676,253.96061764881597 34.742014741990715,254.53762315146741 34.27764127764385,254.8386690079933 33.74692874692846,254.9139304193668 33.171990171889775,254.98919180961093 32.61916461912915,255.18988874700153 32.02211302216165,255.4407597076497 31.380835380754434,255.61636924056802 30.761670761625282,255.74180455078022 30.120393120334484,255.84215275666793 29.479115479043685,255.89232684558374 28.8378378378693,255.81706570874667 28.196560196462087,255.7167174933711 27.577395577332936,255.54110802622745 26.958230958203785,255.36549844412366 26.361179361119866,255.0895402971073 25.808353808359243,254.8135818662122 25.321867321850732,254.43727445759578 24.835380835225806,254.01079208956799 24.39312039304059,253.8100942701276 23.995085995062254,253.88535597003647 23.464373464346863,253.73483254906023 23.08845208841376,253.35852362716105 22.5798525797436,253.0323888011917 21.938574938452803,252.73134091764223 21.38574938569218,252.2546810778149 20.855036854976788,251.87837007959024 20.25798525789287,251.80310781660955 19.793611793546006,251.25118390950956 19.174447174416855,251.05048402538523 18.8206388206454,250.5738211988646 18.59950859937817,249.97171957566752 18.024570024455898,250.07206994009903 17.714987714891322,250.5989087370981 17.29484029475134,251.00030903090374 16.609336609370075,251.12574649957241 16.03439803433139,251.00030903090374 15.636363636236638,250.39820836498984 15.194103194051422,249.9466319787025 14.972972973017022,249.4197919005237 14.729729729704559,248.76751227502245 14.530712530715391,248.1403188316035 14.398034397978336,247.58838738829945 14.243243243079633,246.93610330938827 14.154791154782288,246.33399352096603 14.08845208841376,245.73188238107832 14.04422604420688,245.1046818397299 14.04422604420688,244.47747983201407 14.243243243079633,243.87536452469067 14.552825552644208,243.34851252203225 15.260442260303535,243.34851252203225 15.791154791135341,243.373600736144 16.343980343895964,243.3234243056504 16.65356265346054,242.9471007779648 16.742014741990715,242.29480541235534 16.87469287472777,241.6425084604707 17.05159705155529,241.04038678921643 16.808353808242828,240.53861769734067 16.189189189113677,240.3128212997981 15.592137592146173,240.11211323118187 15.083538083476014,239.86122793424875 15.061425061314367,239.23401366529288 15.326781326672062,238.6569752424548 15.658476658398286,238.1301129895728 15.990171990240924,237.6032497016713 16.366093366057612,237.02620777036645 16.675675675622188,236.4742534569814 17.09582309576217,236.04774252761854 17.515970515902154,235.59614198087365 17.936117936158553,235.11945168994134 18.400491400389,234.69293860610924 18.886977886897512,234.31660296896007 19.373464373406023,233.91517770721111 19.88206388207618,233.56393011036562 20.52334152336698,233.41339528514072 20.94348894339055,233.2628603754565 21.47420147410594,233.01196867154795 22.00491400482133,232.7359875261027 22.51351351349149,232.56036301294807 23.044226044090465,232.3596491429198 23.61916461912915,232.13384585949825 24.149877149844542,231.9833102315606 24.70270270272158,231.7825959296315 25.277641277527437,231.50661351913004 25.808353808359243,231.30589886035887 26.361179361119866,231.08009468970704 26.91400491388049,230.90446909226011 27.488943488919176,230.72884337973665 28.019656019634567,230.5783069631725 28.59459459455684,230.40268103708513 29.16953316947911,230.22705499600852 29.78869778860826,229.95107098473818 30.3415233414853,229.77544464787934 30.938574938569218,229.57472869346384 31.46928746928461,229.34892306529218 32.02211302216165,229.14820679169497 32.5970515969675,228.94749036780559 33.12776412779931,228.77186337372405 33.570024569984525,228.6464154504065 34.07862407853827,228.42060904053506 34.63144963141531,228.1948024404992 35.1179361178074,228.09444389055716 35.67076167068444,227.9188163378567 36.24570024572313,227.66791963443393 36.86486486485228,227.4922918023949 37.39557739556767,227.2413946999004 37.904176904121414,227.0406768488756 38.3243243242614,226.94031786706182 38.83292383281514,226.7145100205671 39.3415233414853,226.5388815641345 39.89434889424592,226.237803942553 40.402948402799666,225.86145644032513 41.02211302216165,225.48510840992094 41.6412776412908,225.0585800035915 42.2383292382583,224.6822308464034 42.746928746812046,224.23061116054305 43.211302211275324,223.7539006670413 43.56511056504678,223.30227941772318 44.02948402951006,222.85065740786376 44.42751842737198,222.34885428257985 44.7592137590982,221.79686976023368 45.11302211310249,221.21979381734855 45.42260442255065,220.6678069709451 45.599508599494584,220.19109014363494 45.97542997542769,219.71437246879213 46.395577395451255,219.2878348834056 46.793611793546006,218.83620611240622 47.23587223584764,218.43475767725613 47.67813267814927,217.98312746942975 48.18673218670301,217.60676838166546 48.71744471730199,217.2554994233069 49.27027027029544,216.9293206926959 49.778869778849185,216.55296012599138 50.309582309564576,216.2267805407464 50.92874692869373,215.95078212031513 51.481572481570765,215.77514661394525 52.012285012286156,215.64969261037186 52.58722358720843,215.5744201799971 53.184275184292346,215.52423854809604 53.8034398034215,215.47405690676533 54.400491400389,215.29842108808225 54.97542997542769,215.14787600908312 55.572481572511606,214.99733084553736 56.21375921368599,215.09769429726293 56.85503685497679,215.1729668614862 57.42997542989906,215.12278515438084 57.89434889436234,214.87187647804967 58.51351351349149,214.89696735623875 59.08845208841376,214.8467855975323 59.68550368538126,214.87187647804967 60.171990171889775,215.19805771147367 60.76904176897369,215.29842108808225 61.2997542998055,215.1729668614862 61.874692874611355,214.97223997680703 62.471744471695274,214.87187647804967 63.046683046617545,214.8467855975323 63.665847665746696,215.0224217120267 64.21867321862374,215.07260343784583 64.85995085991453,214.92205823209952 65.47911547904368,214.69624026495148 66.05405405396596,214.52060393677675 66.67321867321152,214.3951493461791 67.27027027017903,214.2195128207968 67.93366093363147,214.09405808939482 68.57493857492227,213.9686032992613 69.21621621621307,213.76787551297457 69.79115479113534,213.64242057019146 70.43243243242614,213.39151050854707 70.29975429968908,212.78932540278765 70.14496314502321,212.16204781271517 69.94594594603404,211.5849511337001 69.81326781329699,210.98276197043015 69.70270270272158,210.3554801537539 69.52579852577765,209.7532882290543 69.43734643736389,209.15109495187062 69.30466830462683,208.49871737512876 69.14987714984454,207.8965212799958 68.9729729729006,207.29432383232052 68.95085995085537,206.64194173755823 69.37100737099536,206.24047504397458 69.99017199012451,206.14010827674065 70.58722358720843,206.0648331765551 71.18427518429235,205.9142829128541 71.84766584751196,205.71354909645743 72.40049140050542,205.63827387656784 73.06388206384145,205.63827387656784 73.48402948398143,205.31208101272932 73.4619164619362,204.7851532404893 73.37346437340602,204.18294880411122 72.79852579848375,204.18294880411122" stroke="#4DD2FF" stroke-linecap="round" stroke-linejoin="round" stroke-width="0.5"><title>2025-04-13 10.2km</title><desc>1744542968000</desc></polyline><polyline fill="none" points="170.16707616695203,211.44687411843915 171.0515970515553,211.04541828288347 171.8697788696736,210.7192349738616 172.82063882052898,210.49341552748228 173.74938574933913,210.26759589085123 174.34643734642304,209.66540926354355 174.7002457001945,208.86249165653135 175.20884520874824,208.10975421618787 175.85012285003904,207.63301941094687 176.66830466827378,207.58283675054554 177.46437346434686,207.33192330767633 178.2825552825816,207.25664922906435 179.12285012274515,207.4573800584767 179.94103194097988,207.7584760207974 180.73710073716938,207.85884126648307 181.5552825551713,207.73338470357703 182.24078624078538,207.35701466255705 182.9926289926516,207.2315578648413 183.76658476656303,207.05591824935982 184.3857493858086,206.93046131069423 184.56265356263611,207.83374995854683 184.7174447174184,208.61157941122656 184.89434889436234,209.43958892958472 185.07125307118986,210.24250480846968 185.2039312039269,211.0956002951425 185.57985257986002,211.84832935300074 185.91154791146982,212.65123801870504 185.93366093363147,213.45414428022923 185.53562653565314,214.20686671684962 184.96068796073087,214.7839524872834 184.25307125307154,215.21049334539566 183.5454545454122,215.63703352498123 182.70515970513225,215.71230525098508 181.84275184269063,215.96321085156524 181.04668304673396,215.71230525098508 180.18427518429235,215.61194294499 179.43243243242614,215.3108558015956 178.70270270272158,215.18540272544487 177.9066339066485,215.28576519107446 177.110565110459,215.43630881907302 176.33660933654755,215.66212410264416 175.606879606843,216.0635730260983 174.83292383293156,216.18902569141937 174.213759213686,216.64065480054705 173.43980343965814,216.71592624482582 172.79852579848375,217.11737359050312 172.04668304661755,217.29300661530579 171.5380835380638,217.59409153301385 170.69778869778384,217.81990499940002 170.05651105649304,218.37189267229405 169.43734643736389,218.82351810493856 168.7960687960731,219.25005253736163 168.1105651105754,219.5762254690926 167.44717444712296,219.6013156781264 166.8280098278774,219.77694707596675 166.25307125307154,220.22857014232432 165.56756756745744,220.6300122293178 165.1253071251558,221.15690405658097 164.88206388195977,221.75906487714383 164.15233415237162,221.9848748362274 163.40049140050542,222.18559464032296 162.71498771489132,222.46158412549994 162.0073710073484,222.787753150973 161.3660933660576,222.63721365004312 160.70270270260517,222.26086452807067 159.9729729729006,222.56194386800053 159.26535626524128,222.98847235401627 159.28746928740293,223.6909883817425 158.690417690319,224.1175150721101 157.9828009827761,224.4185923274781 157.27518427511677,224.79493842134252 156.56756756745744,225.19637367263203 155.92628992616665,225.4974497166695 155.3513513513608,225.0960149160819 154.64373464370146,225.4723600592988 153.95823095820379,225.8487046743394 153.44963144953363,226.35049667285057 153.44963144953363,227.00282486714423 153.51597051590215,227.65515147481347 152.7862407861976,227.98131418364937 152.65356265346054,228.60854904705775 152.23341523343697,229.13542519885232 151.48157248157077,229.53685395300272 150.66339066333603,229.66230031551095 149.93366093363147,230.11390673439018 149.18181818176527,230.56551239299006 148.4963144962676,230.2895312475448 147.98771498759743,229.76265736317146 147.19164619164076,229.93828210627544 146.35135135124438,230.01354981822078 145.5552825552877,229.61212177752168 144.73710073705297,229.46158610738348 144.02948402939364,229.08524656234658 143.2555282554822,229.06015724057215 142.52579852577765,229.31105035272776 142.32678132667206,230.01354981822078 142.57002456998453,230.81640409689862 142.81326781318057,231.54398871102603 142.83538083534222,232.37192742267507 143.0343980343314,233.07441887058667 143.16707616706844,233.8772639866802 143.18918918911368,234.5044850614213 143.47665847663302,235.2320596704376 143.45454545447137,235.93454362716875 143.65356265346054,236.6119371285895 143.74201474199072,237.3896831131715 143.21130221127532,237.9416305081104 142.43734643724747,238.19251531225746 141.8624078623252,238.71937263704604 141.57493857492227,239.42184746015118 141.2653562653577,240.17449701487203 141.19901719898917,241.00240908568958 141.0663390662521,241.52926089122775 140.4692874692846,241.85540672845673 139.80589680583216,242.1564640722936 139.09828009817284,242.35716878055246 138.56756756757386,242.8840179250401 138.67813267814927,243.51121793838684 139.25307125307154,244.01297689316561 139.0319410318043,244.5649106593046 138.28009828005452,244.58999853077694 137.55036855034996,244.76561356545426 136.9754299754277,244.94122848514235 136.22358722356148,245.21719455523998 135.69287469272967,245.3677213829069 135.58230958227068,244.58999853077694 135.2727272727061,243.91262517721043 134.5208845208399,243.61156980445958 133.9901719900081,244.16350439653615 133.54791154782288,244.86596496225684 132.84029484027997,245.29245797955082 132.15479115466587,245.76912584362435 132.35380835365504,246.3461437036749 132.55282555276062,246.99842326826183 132.5970515969675,247.62561366154114 132.99508599506225,248.2778901148995 133.06142506131437,249.00542736495845 133.65847665839829,249.3064766843163 134.1449631449068,249.9085743095202 134.91891891881824,250.00892378247227 135.18427518429235,250.68628174217883 134.896805896773,251.43889969147858 134.54299754288513,252.19151552932453 133.81326781318057,252.26677699692664 133.0171990172239,252.3671255876543 132.22113022115082,252.64308401854942 131.4250614249613,252.9441292557749 130.5626535625197,253.14482589287218 129.72235872235615,253.2200870930683 128.9041769041214,253.14482589287218 128.10810810804833,253.09465174766956 127.2899262898136,252.84378088091034 126.51597051590215,252.54273553105304 125.80835380824283,252.16642836877145 125.16707616695203,251.71485907709575 124.57002456998453,251.2131145283929 123.99508599506225,251.28837627050234 123.39803439786192,251.0625909807277 122.91154791146982,250.6361071370775 122.22604422597215,250.28488463908434 121.56265356263611,249.85839955910342 121.03194103192072,249.3064766843163 120.30221130209975,249.23121438609087 119.793611793546,248.70437770767603 119.0859950860031,248.47859024303034 118.7764127763221,247.75105156414793 118.17936117923819,247.3496500691108 117.67076167068444,247.95175208643195 117.07371007371694,248.45350273518125 116.34398034389596,248.45350273518125 115.81326781318057,247.95175208643195 115.26044226041995,247.39982528888504 114.95085995073896,246.72245903065777 114.68550368538126,245.9949155888462 114.4422604420688,245.21719455523998 114.26535626524128,244.41438338111038 114.11056511057541,243.61156980445958 114.04422604420688,242.8338418606727 114.04422604420688,242.08119976797025 114.24324324319605,241.30346738695516 114.79606879607309,240.77661513799103 115.6142506141914,240.75152690988034 116.41031941026449,240.72643867932493 116.71990171982907,240.124320443545 116.87469287461136,239.32149402669165 117.02948402939364,238.51866520673502 116.67567567562219,237.9416305081104 115.87960687966552,237.6405684335332 115.26044226041995,237.28932891925797 115.14987714972813,236.58684851089492 115.59213759202976,235.88436626267503 116.01228501216974,235.20697092375485 116.43243243242614,234.55466268403688 116.94103194097988,234.0277971784235 117.38329238328151,233.40057498888928 117.89189189183526,232.8235292789468 118.46683046675753,232.29666037263814 119.13022113009356,231.79487949959002 119.793611793546,231.34327591117471 120.50122850108892,230.9167607127747 121.18673218670301,230.51533402406494 121.93857493856922,230.18917439703364 122.66830466827378,229.88810362003278 123.42014742013998,229.61212177752168 124.14987714972813,229.36122894697473 124.92383292375598,229.08524656234658 125.63144963141531,228.75908519609948 126.33906633907463,228.45801281370223 127.15724815719295,228.25729770425824 127.86486486485228,228.0314930266759 128.6830466829706,227.78059871745063 129.4348894348368,227.55479363843915 130.186732186703,227.25371990399435 130.91646191640757,226.92755631028558 131.53562653553672,226.6766609683109 132.26535626524128,226.47594452573685 133.08353808359243,226.1999591718486 133.79115479113534,225.89888391646673 134.5208845208399,225.62289796868572 135.20638820633758,225.3720014061255 135.93611793604214,225.12110460878466 136.6658476658631,224.8451178605901 137.39557739545126,224.64440004710923 138.12530712527223,224.4436820835108 138.78869778860826,224.1426048562862 139.4520884520607,223.81643747870112 140.0933660933515,223.465179859224 140.8452088451013,223.2142812779348 141.50859950855374,222.73757332673995 142.14987714984454,222.26086452807067 142.74692874681205,221.6587048342626 143.27764127764385,221.10672392710694 143.76412776403595,220.65510233977693 144.22850122849923,220.0027587042423 144.6928746928461,219.3504134816758 145.04668304661755,218.64788608264644 145.400491400389,218.0206279210106 145.7764127763221,217.41845870541874 146.26289926283062,216.7911976678297 146.81572481570765,216.18902569141937 147.39066339062992,215.66212410264416 147.98771498759743,215.16031210310757 148.6511056511663,214.70868050071294 149.33660933654755,214.2570481375442 150.04422604420688,213.98105020768708 150.68550368549768,213.67996123316698 151.41523341520224,213.32869033538736 152.12285012286156,213.00250980403507 152.87469287472777,212.87705564778298 153.6928746928461,212.9272373172862 154.40049140050542,212.67632887582295 155.1523341522552,212.4003293189744 155.99262899253517,212.45051107768086 156.76658476656303,212.52578369824914 157.42997542989906,212.47560195354163 158.02702702698298,212.2497839863936 158.7346437346423,212.17451128843823 159.39803439797834,212.22469308943255 160.03931203926913,212.5759654334688 160.70270270260517,212.70141973052523 161.43243243242614,212.55087456697947 162.206388206454,212.3501475508383 162.95823095820379,212.2497839863936 163.77641277643852,212.47560195354163 164.55036855034996,212.4003293189744 165.3243243242614,212.14942038437584 166.0761670761276,211.8734202851483 166.8722358723171,211.7479656007199 167.66830466827378,211.5974199018092 168.46437346434686,211.47196508821798 169.26044226041995,211.42178314633202 170.01228501228616,211.39669217189658 170.91891891893465,211.2210552848992 171.6486486486392,210.91996321096667 172.44471744459588,210.7192349738616 173.1965601964621,210.49341552748228 174.01474201469682,210.3930512680381 174.3243243242614,209.86613828962436 174.65601965598762,209.11340366699733 175.05405405408237,208.48612320053508 175.65110565104987,207.98429777065758 176.38083538087085,207.73338470357703 177.13267813262064,207.58283675054554 177.9066339066485,207.40719736521714 178.6584766585147,207.4573800584767 179.3660933659412,207.73338470357703 180.0958230958786,207.9592064745375 180.84766584762838,207.98429777065758 181.57739557733294,207.8839325720619 182.17444717441685,207.50756274236483 182.9041769041214,207.35701466255705 183.63390663382597,207.20646649826085 184.27518427511677,206.9555527031771 184.4963144962676,207.78356733571854 184.67321867321152,208.5864881737798 184.8280098279938,209.41449776964146 185.07125307118986,210.19232263643062 185.18181818176527,210.9952362611657 185.49140049132984,211.72287465678528 185.82309582305606,212.47560195354163 186.0,213.22832713721436 185.71253071259707,213.93086873547873 185.38083538075443,214.60831781907473 184.73955773946363,215.05994959062082 184.09828009828925,215.41121822028072 183.3685503685847,215.78757695577224 182.5724815723952,215.812667519378 181.8206388206454,216.03848248600843 181.09090909082443,215.86284863945912 180.36117936111987,215.73739582157577 179.58722358720843,215.46139941559522 178.81326781318057,215.3108558015956 178.10565110552125,215.33594640981755 177.39803439797834,215.46139941559522 176.64619164611213,215.58685236258316 175.93857493856922,215.96321085156524 175.186732186703,216.16393516300013 174.50122850132175,216.5152023465489 173.85995085991453,216.76610719584278 173.13022113009356,216.96683090631268 172.40049140050542,217.21773533307714 171.8697788696736,217.61918192749727 171.2727272727061,217.7697242455033 170.43243243242614,218.12098932545632 169.813267813297,218.5977054836112 169.21621621621307,219.02424027532106 168.55282555276062,219.42568416523864 167.86732186726294,219.72676668839995 167.2039312038105,219.62640588489012 166.62899262900464,220.0027587042423 166.03194103192072,220.37911099533085 165.36855036846828,220.7303726572427 165.01474201469682,221.23217423306778 164.81572481559124,221.78415488198516 164.15233415237162,222.0350548013521 163.37837837834377,222.2357745678455 162.67076167068444,222.48667406462482 161.94103194097988,222.83793296583463 161.29975429968908,222.73757332673995 160.63636363635305,222.48667406462482 159.92874692869373,222.56194386800053 159.26535626524128,222.93829256738536 159.26535626524128,223.74116802759818 158.5798525797436,224.16769463816308 157.8722358722007,224.49386158850393 157.14250614249613,224.89529729049536 156.45700245699845,225.27164271529182 155.77149877150077,225.4974497166695 155.1965601965785,225.1461942990427 154.57739557744935,225.52253937182832 153.93611793615855,225.92397353393608 153.33906633895822,226.37558624817757 153.3832923832815,227.07809340281528 153.44963144953363,227.65515147481347 152.76412776403595,228.00640360632678 152.56511056504678,228.55837031203555 153.07371007371694,228.2322083050385 153.6928746928461,227.80568815895822 153.84766584762838,227.32898836932145 153.75921375921462,226.70175051313709 153.58230958227068,226.04942158641643 154.2899262898136,225.67307725304272 154.9754299754277,225.32182206539437 155.63882063876372,225.1461942990427 156.14742014743388,225.4472703995125 156.8550368549768,225.045835523837 157.58476658468135,224.61931030993583 158.27027027017903,224.21787419481552 158.64619164611213,223.84152729113703 158.2481572481338,223.18919140694197 157.8722358722007,222.53685393586056 157.54054054059088,221.884514877951 157.29729729727842,221.1819941177091 157.1867321865866,220.37911099533085 157.05405405408237,219.62640588489012" stroke="#4DD2FF" stroke-linecap="round" stroke-linejoin="round" stroke-width="0.5"><title>2025-03-24 13.1km</title><desc>1742817466000</desc></polyline></svg>