<?xml version="1.0" encoding="utf-8" ?>
<svg baseProfile="full" height="300mm" version="1.1" viewBox="0,0,200,300" width="200mm" xmlns="http://www.w3.org/2000/svg" xmlns:ev="http://www.w3.org/2001/xml-events" xmlns:xlink="http://www.w3.org/1999/xlink"><defs /><rect fill="#222222" height="300" width="200" x="0" y="0" /><text fill="#FFFFFF" style="font-size:12px; font-family:Arial; font-weight:bold;" x="10" y="20">Running</text><text fill="#FFFFFF" style="font-size:4px; font-family:Arial" x="10" y="280">ATHLETE</text><text fill="#FFFFFF" style="font-size:9px; font-family:Arial" x="10" y="290">zhanyu</text><text fill="#FFFFFF" style="font-size:4px; font-family:Arial" x="65" y="280">SPECIAL TRACKS</text><rect fill="yellow" height="2.6" width="2.6" x="65" y="283" /><text fill="#FFFFFF" style="font-size:3px; font-family:Arial" x="70" y="285.5">Over 20.0 km</text><rect fill="red" height="2.6" width="2.6" x="65" y="287" /><text fill="#FFFFFF" style="font-size:3px; font-family:Arial" x="70" y="289.5">Over 40.0 km</text><text fill="#FFFFFF" style="font-size:4px; font-family:Arial" x="120" y="280">STATISTICS</text><text fill="#FFFFFF" style="font-size:3px; font-family:Arial" x="120" y="285">Number: 3</text><text fill="#FFFFFF" style="font-size:3px; font-family:Arial" x="120" y="290">Weekly: 1.0</text><text fill="#FFFFFF" style="font-size:3px; font-family:Arial" x="141" y="285">Total: 43.9 km</text><text fill="#FFFFFF" style="font-size:3px; font-family:Arial" x="141" y="290">Avg: 14.6 km</text><text fill="#FFFFFF" style="font-size:3px; font-family:Arial" x="167" y="285">Min: 10.2 km</text><text fill="#FFFFFF" style="font-size:3px; font-family:Arial" x="167" y="290">Max: 20.5 km</text><polyline fill="none" points="76.40942138747778,51.47491658196668 76.70387761294842,52.58863248481066 77.02287185692694,54.008614214661065 77.44001817621756,55.2336910458107 77.53817025141325,56.04112529012491 78.7650711905444,55.539959465386346 80.04104816715699,55.28937623638194 81.29248712502886,54.95526493617217 81.88139957597014,53.8972433435265 82.4948500454193,52.81137516521267 83.59906089061406,52.08746084451559 84.87503786734305,51.80903179055895 86.22462890029419,51.61413129779976 87.5251438957639,52.08746084451559 88.75204483477864,52.22667527370504 90.02802181150764,51.94824635004625 91.20584671304096,51.58628835980198 92.48182368976995,51.168643977784086 92.99712208413985,52.282361027173465 93.24250227201264,53.590973232960096 93.58603453496471,55.01095017892658 94.00318085425533,56.403077860799385 94.54301726748236,57.711671942670364 94.15040896693245,59.02026026925887 93.34065434720833,60.02257935050875 92.18736746429931,60.74647436477244 90.86231445008889,60.96921093799756 89.48818539839704,61.24763142000302 88.21220842166804,60.94136887550121 86.91169342631474,60.523737624898786 85.5866404119879,60.49589552069665 84.18797334143892,60.74647436477244 82.91199636470992,61.30331548510003 81.63601938798092,61.80447160243057 80.33550439262763,62.222101055434905 79.05952741589863,62.6397299222881 77.88170251436532,63.16872564537334 76.72841563157272,63.94829657583614 75.59966676763725,64.75570717218216 74.32368979090825,65.36822409418528 73.14586488937493,65.53527394507546 71.96803998784162,66.28699711317313 71.01105725532398,67.17792581630056 70.29945471067913,67.87396200964577 69.04801575280726,68.26374156674137 67.84565283241682,68.7370446283021 66.64328991214279,68.48647251306102 65.49000302935019,68.5699965748936 64.80293850344606,69.37739463098114 64.06679793994408,70.26831408168073 62.7908209633315,70.9921841712785 61.49030596786179,71.63252932130126 60.43517116014846,71.35411855581333 59.208270221133716,72.05014498115634 58.300363526213914,72.96889736986486 58.49666767648887,74.19389614250395 57.3924568311777,74.86207516581635 56.99984853062779,75.83650021904032 55.8465616479516,76.42115371947875 54.693274765159,76.83876265952131 53.53998788248282,77.47909522929695 52.754771281383,76.5603567645594 51.55240836099256,76.6995597446512 50.30096940312069,76.64387856045505 49.024992426508106,76.25410997946165 47.79809148737695,75.75297819665866 46.49757649190724,75.80865954747424 46.12950621021446,76.92228437712765 46.54665252950508,78.11942642144277 46.64480460458435,79.31656365009258 46.89018479245715,80.54153629479697 47.06195092399139,81.71082366126939 47.55271129950415,82.93578645144589 47.62632535584271,84.1050644115603 47.3564071492292,85.33001734764548 46.15404422907159,85.858972738788 45.36882762797177,86.88904106582049 44.92714328994043,88.11398254422238 44.9026052710833,89.45027658934123 43.94562253856566,90.03490334757953 42.7187215994345,90.50817178704892 42.00711905490607,91.28767110579065 42.74325961829163,92.34555977315176 41.933504998567514,92.93018084470532 40.70660405931994,93.18073238094803 39.40608906396665,93.59831780625973 38.64541048172396,93.34776662138756 38.25280218117405,92.17852497030981 37.02590124204289,92.03932922970853 36.33883671613876,93.20857142755995 35.21008785220329,93.98806367459474 35.06285973940976,94.90674834512174 35.553620115155354,96.07597927964525 35.77446228417102,97.10601225023856 36.2652226598002,97.94117150173406 37.173129354720004,98.91552100045374 38.25280218117405,99.41661378651042 37.73750378668774,100.80853376653977 36.63329294149298,101.47665304518887 35.234625870944,101.75503563543316 33.909572856733575,102.25612364179688 32.43729172972962,102.59018184410525 31.063162677921355,102.45099097202183 29.689033626229502,102.1726090326556 28.46213268698193,101.67152088566218 27.33338382304646,100.97556372679537 26.278249015449546,100.25176655556425 25.149500151514076,100.16825138410786 24.14344138139859,99.44445224985247 23.014692517346703,98.72065135580488 22.008633747464046,98.2195573982608 20.978036958375014,97.49575352581451 19.94744016963523,96.7997866042424 19.039533474715427,96.771947893576 17.837170554324985,97.24520562155521 16.708421690389514,96.71627046426875 15.898667070548981,95.79759137835936 15.432444713660516,94.57268152022152 15.088912450708449,93.31992758784327 14.818994244094938,91.98365091529558 14.745380187756382,90.56385037745349 14.79445622547064,89.19972191285342 14.941684338031337,87.86342674281332 15.113450469449162,86.55496524219052 15.481520751258358,85.27433777810074 15.996819145628251,84.04938461291022 16.732959709130228,82.7965863882273 17.518176310230047,81.65514341471135 18.278854892472737,80.62505697328015 19.13768554991111,79.70632822031621 20.143744319910184,78.87111780198757 21.247955164988525,78.09158596341149 22.40124204789754,77.39557366791996 23.65268100576941,76.8666032346955 24.87958194478415,76.3376318612136 26.229172977851704,75.9478628791112 27.43153589812573,75.36320844889269 28.6829748559976,74.94559743828722 29.90987579524517,74.66718977229903 31.13677673425991,74.2217369650898 32.43729172972962,73.74844262673287 33.83595880039502,73.27514753572177 35.13647379586473,72.77401073655346 36.36337473487947,72.18935007086839 37.73750378668774,71.57684718901874 39.18524689483456,71.04786641293322 40.55937594664283,70.49104352752329 41.933504998567514,69.98990203993162 43.160405937582254,69.76717221891158 44.48545895179268,68.95977522034082 45.736897909780964,68.0966932476731 46.841108754859306,67.17792581630056 47.62632535584271,66.00858134633745 48.55877006961964,64.78354887786554 49.34398667071946,63.53066954572569 50.20281732804142,62.36131074279547 51.20887609815691,61.35899953986518 52.26401090575382,60.384527077840175 53.41729778854642,59.63278899792931 54.595122690079734,58.99241802436882 55.920175704406574,58.296361055225134 57.26976673735771,57.85088374034967 58.61935777030885,57.433248151966836 59.968948803376406,57.21050893183565 61.34307785506826,57.09913925919682 62.741744925733656,57.12698168121278 63.993183883605525,57.12698168121278 65.31823689781595,57.0712968344742 66.69236594974063,57.12698168121278 67.96834292635322,57.04345440727775 69.34247197816148,56.932084672065685 70.66752499237191,56.82071489523514 72.01711602543946,56.625817685504444 73.39124507724773,56.45876283268444 74.71629809145816,56.23602288294933 76.13950318086427,56.096810329763684 77.58724628901109,55.95759771135636 78.91229930322152,55.45643174581346 80.13920024235267,55.178005844703875 81.41517721896525,54.843894419347635 81.97955165093299,53.56313048003358 82.83838230837137,52.338046770135406 84.18797334143892,51.94824635004625 85.48848833679222,51.66981716590817 86.86261738860048,51.75334594849846 88.13859436532948,52.22667527370504 89.51272341713775,52.19883239304181 90.71508633741178,51.61413129779976 91.99106331414077,51.419230677362066 92.84989397157915,51.69766009610612 93.16888821567409,53.034117678704206 93.48788245988544,54.314883895392995 93.6841866101604,55.62348716147244 94.24856104212813,56.87639978886 94.56755528622307,58.15714946598746 94.07679491059389,59.354367004852975 93.07073614059482,60.21747433528071 91.91744925780222,60.88568474256317 90.6169342623325,61.05273710997426 89.31641926674638,61.13626325849327 87.96682823379524,60.857842672237894 86.69085125718266,60.44021130443434 85.39033626171295,60.49589552069665 84.0407452287618,60.8021585237002 82.86292032711208,61.33115751380683 81.70963344431948,61.832313584163785 80.45819448644761,62.138575211691204 79.20675552857574,62.55620419571642 78.22523477731738,63.11304192934767 77.02287185692694,63.72556223272113 75.96773704933003,64.5608151598426 74.76537412893958,65.14549081394216 73.63662526500411,65.22901581355836 72.55695243866649,66.00858134633745 71.64904574374668,66.78814483692986 71.08467131166253,67.65123060494079 69.90684641024563,67.98532764948322 68.65540745237377,68.45863115391694 67.45304453198332,68.68136195430998 66.29975764919072,68.2080588041863 65.14647076639812,68.79272729196236 64.7293244471075,69.90637837653048 63.526961526833475,70.71377280674642 62.34913662530016,71.18707197147887 61.24492577998899,71.77173460635822 60.23886700998992,71.49332397119724 59.08558012719732,72.1058270247886 58.34943956369534,73.02457924152259 58.447591638891026,74.19389614250395 57.36791881243698,74.83423440315528 57.07346258696634,75.80865954747424 55.87109966669232,76.4489943337976 54.76688882149756,76.83876265952131 53.58906391996425,77.4512547114864 52.754771281383,76.5603567645594 51.55240836099256,76.7274003328057 50.276431384379975,76.64387856045505 49.04953044524882,76.28195060929283 47.84716752497479,75.75297819665866 46.57119054836221,75.75297819665866 46.10496819135733,76.83876265952131 46.473038473166525,78.03590503966552 46.64480460458435,79.28872330411104 46.89018479245715,80.56937652354827 47.037412905250676,81.71082366126939 47.55271129950415,82.90794644394191 47.60178733721841,84.1050644115603 47.38094516808633,85.38569690677105 46.15404422907159,85.858972738788 45.39336564671248,86.83336178795435 44.9026052710833,88.08614302120986 44.9026052710833,89.42243719127146 43.94562253856566,90.03490334757953 42.7187215994345,90.50817178704892 41.98258103604894,91.25983187952079 42.69418358069379,92.26204238343053 42.17888518620748,92.98585898207966 41.05013632227201,93.06937616868527 39.921387458452955,93.4312837064499 38.841714631882496,93.90454674570356 38.62087246286683,92.59611180148204 37.61481369275134,91.92797259040526 36.73144501657225,92.62395090272184 35.72538624657318,93.59831780625973 34.69478945771698,94.34997009541257 35.161011814605445,95.49136438645655 35.28370190854184,96.49356064322637 35.60269615263678,97.63494671491208 36.510602847556584,98.27523454630864 37.541199636412784,99.05471352563472 38.15465010609478,99.8620288882521 37.63935171160847,101.05907867179485 36.70690699783154,101.64368263055803 35.455468039843254,101.81071212221286 34.22856710082851,102.22828544129152 32.87897606776096,102.50666732870741 31.504847016069107,102.5623436748865 30.17979400185868,102.42315278985188 28.928355043986812,102.03341796528548 27.72599212359637,101.42097649598145 26.69539533474017,100.55798865039833 25.591184489428997,100.3909584559151 24.536049681948498,99.69499830316636 23.3827627991559,99.05471352563472 22.37670402904041,98.24739597356529 21.34610724018421,97.74630121927476 20.266434413846582,97.27304428795469 19.751136019360274,96.2151731326012 18.843229324440472,96.60491557460045 17.91078461066354,97.32872161309933 16.880187821923755,96.99465750632226 16.04589518334251,96.15949559916044 15.45698273240123,95.1016204864718 15.015298394369893,93.84886878021643 14.745380187756382,92.54043359126081 14.573614056338556,91.14847494848073 14.524538018740714,89.75650979639613 14.59815207507927,88.28101962798974 14.818994244094938,86.94472033332568 15.137988488306291,85.58057528166682 15.726900939131156,84.4391429850657 16.413965464918874,83.26986633735942 17.125568009680137,82.15626525919652 17.788094516843557,81.09834037561086 18.548773098969832,80.12393255054485 19.505755831487477,79.23304260443547 20.56089063908439,78.34214999133837 21.566949409316294,77.70181927847443 22.793850348331034,77.14500884304289 23.99621326860506,76.58819736583973 25.24765222647693,76.11490679113194 26.400939109385945,75.58593408152228 27.676916085998528,75.14048264946905 28.854740987648256,74.88991592582897 30.03256588918157,74.61150820789044 31.25946682819631,74.2217369650898 32.36367767339107,73.7762834909663 33.44335049984511,73.44219294792856 34.54756134492345,72.96889736986486 35.72538624657318,72.52344202046515 36.97682520444505,72.1058270247886 38.203726143576205,71.60468825645512 39.43062708270736,71.15923086498515 40.55937594664283,70.79729624342872 41.46728264156263,70.21263169415761 42.596031505498104,69.73933097950066 43.798394425888546,69.18250564561458 44.97621932742186,68.43078979209531 46.0558921538759,67.62338916765293 47.06195092399139,66.73246179815033 47.92078158131335,65.70232370210579 48.755074219894595,65.03412411129102 48.975916388910264,64.03182191160158 49.736594971152954,63.029516335751396 50.52181157225277,62.11073325856705 51.38064222957473,61.19194734442863 52.386700999573804,60.30100071828929 53.46637382614426,59.604946810315596 54.52150863374118,59.10378698838758 55.42941532866098,58.491257170710014 56.582702211337164,58.10146481206175 57.83414116920903,57.711671942670364 59.036504089599475,57.433248151966836 60.23886700998992,57.21050893183565 61.2694637987297,57.21050893183565 62.39821266278159,57.21050893183565 63.526961526833475,57.182666517503094 64.7293244471075,57.12698168121278 65.85807331104297,57.09913925919682 67.0358982126927,57.0712968344742 68.23826113308314,57.0712968344742 69.44062405324075,57.182666517503094 70.69206301111262,57.23835134343244 71.94350196910091,56.82071489523514 73.14586488937493,56.45876283268444 74.2746137533104,56.29170788603369 75.50151469255798,56.12465284555219 76.65480157523416,56.15249535886687 77.93077855196316,55.874070109042805 79.0349893970415,55.34506141667953 80.18827627995051,55.20584844658151 81.31702514388599,54.8717370525992 81.83232353825588,53.8972433435265 82.34762193274219,52.839217988512246 83.25552862766199,52.11530373551068 84.40881551045459,51.97608925419627 85.51302635564934,51.69766009610612 86.64177521958482,51.725503023626516 87.69691002729814,52.22667527370504 88.89927294745576,52.310203899949556 89.97894577402622,52.031775054580066 91.08315661922097,51.61413129779976 92.21190548315644,51.307858836924424 93.24250227201264,50.69531296932837 94.29763707960956,50.416882612596964 95.47546198114287,49.8878642169002 95.32823386846576,48.80198140497669 95.1319297181908,47.63256471345085 94.12587094819173,47.60472140289494 92.84989397157915,47.91099767599371 91.57391699485015,48.272960137663176 90.37155407445971,48.66276537318481 89.16919115406927,48.99688374000834 87.99136625265237,49.331001731567085 86.76446531352121,49.72080558081507 85.68479248706717,50.0549227593001 85.29218418663368,48.96904055713094 84.99772796116304,47.82746781458263" stroke="yellow" stroke-linecap="round" stroke-linejoin="round" stroke-width="0.5"><title>2025-04-18 20.5km</title><desc>1744979276000</desc></polyline><polyline fill="none" points="167.9864864863921,56.90822403761558 168.3596437345259,56.851769353001146 169.03132678125985,56.59772314145812 169.72788697772194,56.28722192568239 170.54883292375598,56.17431231349474 171.27027027017903,55.920265531371115 172.0663390662521,55.77912833774462 172.46437346434686,55.12989639659645 172.78777641267516,54.33952519079321 173.2355651105754,53.63383486412931 173.85749385738745,53.0410537137941 174.628685503616,52.81523201672826 175.44963144965004,52.64586563303601 176.2457002456067,52.448271398519864 177.06664619164076,52.42004364015884 177.86271498759743,52.64586563303601 178.6339066339424,52.956370597239584 179.33046683040448,53.06928141406388 180.1514127763221,53.0410537137941 180.8479729729006,52.78700429273886 181.5445331694791,52.448271398519864 182.3903562653577,52.335360349243274 183.16154791146982,52.0813103338005 183.7337223587092,52.165993696049554 183.88298525800928,53.0410537137941 184.0571253070375,53.80320069316076 184.20638820633758,54.6218008591386 184.45515970513225,55.46862627932569 184.60442260431591,56.34367671600194 184.90294840291608,57.16226998763159 185.2263513513608,57.92440655393875 185.5,58.68654119462008 185.37561425066087,59.476901010406436 185.00245700241067,60.21080469939625 184.45515970513225,60.747117804392474 183.75859950855374,61.170522213797085 183.11179361166432,61.622152928845026 182.3903562653577,61.876194908923935 181.61916461912915,61.932648653164506 180.8479729729006,62.13023667500238 180.05190417694394,61.989102386898594 179.28071253059898,61.76328738863231 178.50952088448685,61.565699126484105 177.71345208829734,61.36811073482386 176.91738329234067,61.283429956034524 176.17106879595667,61.39633765589679 175.39987714972813,61.537472221272765 174.628685503616,61.735060501931 173.9321253070375,62.1866903717455 173.1360565109644,62.29959773356677 172.4394963143859,62.66654636757448 171.74293611792382,62.92058746810653 171.07125307107344,63.118174842820736 170.3498157247668,63.372215563082136 169.7030098278774,63.710936190531356 169.08108108106535,64.10610977522447 168.3098894348368,64.27546972452546 167.63820638821926,64.81177560321521 167.04115479101893,65.29162742331391 166.44410319405142,65.77147848022287 165.74754299747292,66.11019641382154 165.05098280089442,66.39246106790961 164.4041769041214,66.22310230712174 163.7573710073484,66.56181973364437 163.1603194102645,66.98521598189836 162.51351351337507,67.29570618629805 162.23986486485228,67.7473277313693 161.84183046687394,68.14249602868222 161.61793611792382,68.65056879326585 160.94625307118986,68.84815241507022 160.2745700244559,69.01750970218563 159.6277641276829,69.27154545453959 158.95608108094893,69.52558099312591 158.33415233402047,69.83606858295389 157.73710073705297,69.58203330595279 157.1649262898136,69.4973548327107 156.64250614249613,69.24331927040475 155.97082309576217,69.61025945836445 155.42352579848375,69.94897308188956 155.37377149879467,70.59817313065287 155.14987714984454,71.1344677695015 154.52794840291608,71.44495370361255 153.93089680583216,71.7272133663646 153.3587223585928,72.12237645068672 152.73679361178074,72.3764095887309 152.11486486485228,72.71512010664446 151.56756756745744,72.91270106649608 151.14465601963457,72.46108725384693 150.49785012274515,72.71512010664446 149.8759213758167,73.08205607198761 149.22911547892727,73.44899159105262 148.8062039311044,73.95705541907228 148.90571253059898,74.63447252562037 149.0798525797436,75.22721124615055 148.45792383281514,75.62236974618281 147.86087223573122,75.9046255008434 148.13452088448685,76.52558723150287 147.56234643724747,76.94896949690883 146.94041769043542,77.25944944733055 146.3433660932351,77.59815448336303 145.72143734642304,77.68283068292658 145.1243857492227,78.02153524375171 144.47757985256612,78.36023942421889 143.85565110552125,78.69894322459004 143.3581081079319,78.24733807292068 143.00982800975908,77.6263798859145 142.33814496302512,77.7110560775618 141.71621621621307,77.93685913924128 141.01965601951815,77.96508451004047 140.37285012274515,77.7110560775618 139.7011670761276,77.4570274312573 138.97972972970456,77.34412574197631 138.38267813262064,77.03364587872056 137.78562653553672,76.89251856252667 137.11394348880276,76.89251856252667 136.56664619152434,77.14654768415494 136.39250614237972,77.76750685885781 136.51689189171884,78.41669008403551 136.69103194086347,79.00942137412494 136.93980343977455,79.57392628214438 136.89004913996905,80.19488046105835 137.03931203915272,80.84405846355367 137.1885749384528,81.4650100285362 137.26320638821926,82.22708520267042 137.38759213755839,82.81980900748749 137.53685503674205,83.4125316478312 137.8353808352258,84.00525312381797 137.6612407861976,84.5979734355642 137.78562653553672,85.16246788811986 138.03439803421497,85.81163520301925 137.91001228487585,86.43257654516492 137.38759213755839,86.85594490947551 136.71590909082443,87.08174112759298 136.09398034389596,87.47688410262344 135.72082309576217,88.09782201802591 135.49692874681205,88.74698301788885 135.22328009817284,89.3961426213209 135.17352579836734,90.10174930188805 135.17352579836734,90.80735433252994 134.65110565104987,91.06137173969182 134.128685503616,91.42828539470793 133.45700245699845,91.71052636418608 132.76044226041995,91.90809488578816 132.23802211286966,92.24678347902955 132.11363636364695,92.95238349406281 132.6858108107699,93.46041448327014 133.08384520874824,94.05311622304725 132.38728501216974,94.36357857449912 131.64097051590215,94.39180240884889 130.9692874691682,94.58936917499523 130.24785012274515,94.78693581180414 129.5264127763221,95.09739740833174 128.95423832908273,95.32318745975499 128.78009828005452,94.56114535915549 128.75522113009356,93.8555491057923 128.15816953300964,93.48863840202102 127.46160933654755,93.29107091517653 127.03869778849185,93.79910133423982 126.69041769031901,94.39180240884889 126.16799754288513,94.89983097475488 125.57094594580121,95.29496371254208 124.97389434883371,95.66187222008011 125.0734029483283,96.19812231336255 125.42168304650113,96.76259506624774 125.57094594580121,97.32706676333328 125.44656019646209,97.83509038796183 125.86947174440138,98.37133661957341 125.79484029475134,98.9640287142247 126.19287469272967,99.44382622401463 126.66554054047447,99.72605969710276 127.08845208829734,100.26230256864801 127.68550368538126,100.51631201722194 128.30743243230972,100.6292050369957 128.35718673211522,101.30656226817518 128.10841523332056,101.95569485489978 127.83476658468135,102.6048260453681 127.31234643724747,102.94350263397791 126.71529484016355,103.02817172178766 126.06848894339055,103.11284078579047 125.44656019646209,103.33862484034034 124.77487714984454,103.6208546711132 124.05343980330508,103.81841539559537 123.35687960672658,103.95953011960955 122.63544226030353,104.07242185121868 121.91400491388049,104.12886770127807 121.19256756745744,104.04419892231817 120.4711302210344,103.93130718002794 119.77457002457231,103.7337465294695 119.0780098278774,103.53618574963184 118.40632678125985,103.22573283422389 117.78439803433139,102.91527959945961 117.23710073705297,102.49193376477342 116.68980343965814,102.01214110074216 116.1922604420688,101.78635605386808 115.74447174440138,101.87102546627284 115.14742014731746,101.70168661768548 114.72450859937817,101.27833908054163 114.15233415225521,100.9114374013443 113.43089680571575,100.57275853233295 112.8089680589037,100.03651621253812 112.21191646181978,99.61316633952083 111.54023341520224,99.5284962936712 111.01781326765195,98.90758189818007 110.32125307107344,98.68179452855838 109.92321867321152,98.14554884869722 109.67444717430044,97.46818452261505 109.02764127752744,97.58107868258958 108.67936117923819,98.17377232923172 108.20669533160981,98.62534765974851 107.43550368549768,98.76646481201169 106.78869778860826,98.62534765974851 106.34090909070801,97.94798441059538 105.84336609323509,97.43996097604395 105.59459459455684,96.8472658880928 105.32094594580121,96.11345130938571 105.0970515969675,95.40785868553212 104.94778869766742,94.78693581180414 104.7736486485228,94.05311622304725 104.67414004914463,93.3757427110977 104.59950859949458,92.69836767870584 104.54975429968908,91.99276706969249 104.54975429968908,91.28716481098672 104.7736486485228,90.60978509028791 105.12192874669563,90.01707658727537 105.91799754288513,90.01707658727537 106.51504913996905,90.04530082814745 107.13697788689751,89.98885234384215 107.48525798518676,89.56548837517039 107.58476658468135,88.83165608890704 107.73402948398143,88.09782201802591 107.9330466829706,87.42043513787212 107.65939803421497,86.85594490947551 106.96283783775289,86.60192396224011 106.29115479101893,86.37612738506868 105.71898034389596,86.09388142600073 105.694103193935,85.38826537344721 105.99262899253517,84.73909714774345 106.36578624066897,84.14637711326941 106.73894348891918,83.55365591438022 107.16185503685847,82.90448374164407 107.5101351350313,82.28353513911134 107.98280098265968,81.80371034354903 108.45546683028806,81.29565972846467 108.92813267803285,80.75938315116218 109.45055282535031,80.27955593186198 109.99785012274515,79.85617834006553 110.54514742002357,79.40457492059795 111.11732186726294,79.00942137412494 111.83875921368599,78.84006969575421 112.31142506131437,78.67071792235947 112.90847665839829,78.38846475546598 113.50552825536579,78.07798596684006 114.07770270260517,77.88040838955203 114.67475429957267,77.65460528575932 115.32156019646209,77.40057659189915 115.91861179342959,77.23122401049477 116.54054054047447,77.0054204208136 117.18734643724747,76.69494020901038 117.78439803433139,76.46913621790009 118.40632678125985,76.21510652592406 119.0282555280719,76.01752772877808 119.67506142496131,75.81994880217826 120.27211302204523,75.6505953335436 120.91891891881824,75.45301616669167 121.56572481559124,75.2554368704732 122.26228501216974,74.94495485781226 122.8842137590982,74.7473752288497 123.55589680583216,74.52156978013227 124.15294840279967,74.26753844844643 124.77487714984454,74.04173264061683 125.42168304650113,73.81592666375218 126.01873464370146,73.61834629543591 126.5162776412908,73.47721738170367 127.08845208829734,73.22318517058739 127.71038083534222,72.96915274552885 128.25767813250422,72.85624937686953 128.8796068795491,72.65866838005604 129.5264127763221,72.3764095887309 130.2229729729006,72.17882827765425 130.82002456998453,71.8965690373443 131.3921990171075,71.67076145496685 131.86486486473586,71.55785760044819 132.43703931185883,71.30382377313799 133.0092137590982,71.1062417596113 133.63114250602666,70.76752943536849 134.20331695314962,70.34413849536213 134.89987714984454,69.92074696114287 135.59643734642304,69.44090250402223 136.2681203930406,69.01750970218563 136.84029484016355,68.50943755559274 137.36271498771384,67.97313825038145 137.76074938557576,67.46506434492767 138.28316953312606,66.95698958385037 138.73095823079348,66.39246106790961 139.10411547904368,65.77147848022287 139.50214987713844,65.1222680445062 139.85042997531127,64.50128284230595 140.04944717441685,63.96497641157475 140.47235872223973,63.42866902737296 140.9450245698681,62.94881424383493 141.39281326776836,62.44073187644244 141.89035626524128,61.989102386898594 142.38789926283062,61.481018403108465 142.96007371007,61.05761442935909 143.55712530692108,60.66243685121299 144.17905405408237,60.29548577926471 144.75122850108892,59.87208014173666 145.34828009817284,59.50512810834334 146.04484029475134,59.1946298853436 146.6667690416798,58.99703994067386 147.26382063876372,58.855904186639236 147.91062653553672,58.77122270248947 148.58230958227068,58.71476836659713 149.27886977884918,58.65831402008189 149.95055282546673,58.46072372409981 150.59735872223973,58.291360510193044 151.2690417690901,58.12199720120407 151.99047911539674,58.23490608439897 152.71191646181978,58.31958771913196 153.3587223585928,58.26313329866389 153.88114250614308,57.980861037794966 154.57770270260517,58.0090882757504 155.22450859949458,57.95263379722019 155.8961916459957,57.980861037794966 156.44348894339055,58.34781492539332 157.1151719900081,58.46072372409981 157.71222358720843,58.31958771913196 158.35902948386502,58.09376997387153 159.03071253059898,57.980861037794966 159.67751842737198,57.95263379722019 160.37407862395048,58.15022442600457 160.99600737099536,58.20667886757292 161.717444717302,58.037315511115594 162.4140049138805,57.78327029806678 163.0608108106535,57.585679428855656 163.7573710073484,57.44454301445512 164.42905405396596,57.246951923385495 165.17536855023354,57.10581535054371 165.896805896773,56.96467871166533 166.61824324307963,56.7388599520782 167.26504913996905,56.59772314145812 167.9864864863921,56.31544932210818 167.83722358720843,55.637991078110645 167.6630835380638,54.932303789275466 167.4391891892301,54.283070025383495 167.28992628993,53.60560721671209 167.16554054047447,52.8999151729804 166.96652334136888,52.22244925767882 166.86701474199072,51.54498182082898 166.71775184269063,50.811057046987116 166.543611793546,50.13358643997344 166.34459459455684,49.4561143113242 166.3197174447123,48.72218445473118 166.79238329234067,48.27053442446049 167.48894348891918,48.15762181131868 168.16062653553672,48.0729373236245 168.83230958227068,47.90356827696087 169.57862407842185,47.67774273347459 170.20055282558315,47.59305811111699 170.94686732173432,47.59305811111699 171.4195331694791,47.226091139309574 171.39465601963457,46.633297395543195 171.29514742002357,45.95581740461057 170.64834152325056,45.95581740461057" stroke="#4DD2FF" stroke-linecap="round" stroke-linejoin="round" stroke-width="0.5"><title>2025-04-13 10.2km</title><desc>1744542968000</desc></polyline><polyline fill="none" points="77.68796068790834,204.1277333832404 78.6830466829706,203.67609556825482 79.60350122838281,203.30913934559794 80.6732186730951,203.0550924684212 81.71805896807928,202.8010453771858 82.38974201469682,202.12358542147558 82.78777641279157,201.2203031136014 83.35995085991453,200.3734734932077 84.08138820633758,199.8371468373225 85.00184275174979,199.78069134437828 85.89742014743388,199.4984137211577 86.8178746929625,199.41373038268648 87.76320638810284,199.6395525657863 88.68366093363147,199.97828552339342 89.57923832931556,200.09119642479345 90.49969287461136,199.95005779151688 91.27088452095632,199.52664149538032 92.11670761671849,199.38550259792828 92.9874078623252,199.18790803055163 93.68396805902012,199.04676897454192 93.88298525800928,200.0629687033652 94.05712530715391,200.93802683762624 94.25614250614308,201.86953754577553 94.45515970513225,202.77281790954294 94.60442260443233,203.73255033203168 95.02733415237162,204.5793705221149 95.40049140050542,205.4826427710359 95.42536855034996,206.3859123152797 94.97757985256612,207.23272505647037 94.33077395579312,207.88194654820836 93.53470515972003,208.36180501358467 92.73863636364695,208.8416627155966 91.79330466827378,208.9263434073655 90.82309582305606,209.2086122080218 89.92751842760481,208.9263434073655 88.95730958227068,208.81343581312103 88.11148648650851,208.47471277680597 87.29054054059088,208.33357806614367 86.39496314502321,208.44648583995877 85.49938574933913,208.61584742146078 84.628685503616,208.86988961548195 83.80773955769837,209.3215196543606 82.93703931209166,209.46265390282497 82.24047911539674,209.97073665063363 81.36977886967361,210.0554170254327 80.64834152325056,210.50704528932692 79.8025184274884,210.70463244221173 79.23034398036543,211.04335297463695 78.28501228499226,211.29739312431775 77.56357493856922,211.91837925635627 76.86701474199072,212.42645786804496 76.14557739556767,212.90630910452455 75.37438574933913,213.27325365273282 74.62807125307154,213.30148013788857 73.93151105637662,213.4990654604626 73.28470515972003,214.00714141011122 72.51351351337507,214.45876375798252 72.01597051590215,215.0515170636645 71.74232186726294,215.72894798679044 70.92137592134532,215.98298419074854 70.07555282558315,216.20879397034878 69.3043611793546,216.51928214117652 68.50829238328151,216.8862222948228 67.78685503685847,216.71686535628396 67.04054054047447,216.29347259408678 66.21959459455684,216.63218685149332 65.42352579848375,217.11203139828285 65.4484029483283,217.90236192947486 64.77671990159433,218.38220445613842 63.98065110563766,218.7209163684165 63.184582309564576,219.14430572398123 62.38851351349149,219.59592038171832 61.66707616695203,219.93463093126775 61.02027027029544,219.4830167806067 60.22420147410594,219.90640506669297 59.45300982799381,220.32979275862454 58.880835380754434,220.8943087569496 58.880835380754434,221.62817797556636 58.955466830404475,222.36204540915787 58.13452088448685,222.72897845660918 57.98525798518676,223.43461767793633 57.512592137558386,224.02735334870522 56.666769041796215,224.4789606971317 55.74631449626759,224.62008785494254 54.92536855034996,225.12814507618896 54.07954545447137,225.6362014421029 53.30835380824283,225.325722653477 52.736179361119866,224.73298953357153 51.840601965552196,224.9305673695635 50.895270270179026,225.01524354549474 49.99969287472777,224.5636369997228 49.07923832919914,224.39428437079187 48.283169533126056,223.970902382629 47.41246928740293,223.9426768956473 46.5915233414853,224.22493164683692 46.367628992535174,225.01524354549474 46.64127764117438,225.9184546089964 46.91492628981359,226.736987299897 46.93980343977455,227.6684183505131 47.163697788724676,228.4587212294282 47.31296068802476,229.3619219850225 47.337837837752886,230.06754569412442 47.661240786197595,230.88606712926412 47.63636363623664,231.67636158055393 47.86025798518676,232.43842926967773 47.95976658468135,233.31339350229246 47.362714987713844,233.93433432161692 46.4920147418743,234.216579726286 45.8452088451013,234.80929421665496 45.521805896773,235.5995783926628 45.17352579848375,236.4463091417274 45.09889434883371,237.3777102213935 44.949631449533626,237.97041850263486 44.27794840291608,238.33733256949927 43.53163390653208,238.67602208134485 42.73556511045899,238.90181487810332 42.13851351349149,239.49452016566647 42.262899262830615,240.20012018069974 42.90970515972003,240.7645990048186 42.66093366080895,241.3855244917213 41.81511056504678,241.41374834711314 40.99416461912915,241.61131526113604 40.34735872235615,241.80888204579242 39.50153562647756,242.1193438746268 38.90448402939364,242.28868655578117 38.78009828005452,241.41374834711314 38.431818181765266,240.65170332437265 37.585995086003095,240.3130160300061 36.98894348880276,240.9339424460777 36.49140049132984,241.72421058252803 35.695331695256755,242.20401522700558 34.92414004902821,242.74026657408103 35.148034397978336,243.38941166663426 35.371928746812046,244.12322617680184 35.421683046617545,244.8288153692265 35.86947174440138,245.56262637925101 35.94410319405142,246.38110578557826 36.61578624078538,246.7197862698522 37.1630835380638,247.3971460982284 38.033783783670515,247.51003925528494 38.33230958227068,248.27206695993664 38.00890663382597,249.11876215290977 37.61087223584764,249.96545497048646 36.78992628981359,250.05012412153883 35.89434889436234,250.16301628609654 34.99877149879467,250.47346952086082 34.10319410311058,250.81214541275403 33.13298525789287,251.03792912949575 32.187653562636115,251.12259797970182 31.267199017107487,251.03792912949575 30.371621621539816,250.98148321610643 29.451167076127604,250.69925349100959 28.580466830404475,250.3605774724274 27.78439803433139,249.93723191486788 27.062960687908344,249.4292164617509 26.3912776412908,248.8647538444493 25.74447174440138,248.9494233043224 25.07278869766742,248.69541485331138 24.525491400389,248.21562052922673 23.75429975427687,247.82049521896988 23.00798525789287,247.34069950398407 22.410933660925366,246.7197862698522 21.589987714891322,246.63511618436314 21.01781326776836,246.04242492112098 20.221744471695274,245.78841402338003 19.873464373406023,244.96993300967733 19.201781326672062,244.51835632775328 18.6296068795491,245.1957210972323 17.957923832931556,245.76019057707163 17.136977886897512,245.76019057707163 16.539926289813593,245.1957210972323 15.917997543001547,244.5748034499702 15.56971744459588,243.81276640950819 15.271191646112129,242.99428003747016 14.997542997356504,242.1193438746268 14.798525798367336,241.21618130375282 14.624385749339126,240.3130160300061 14.5497542998055,239.4380720932386 14.5497542998055,238.59134973894106 14.773648648522794,237.71640081031364 15.39557739556767,237.12369203023263 16.316031940979883,237.09546777361538 17.211609336547554,237.06724351426237 17.55988943472039,236.38986049898085 17.73402948398143,235.48668078004266 17.90816953300964,234.58349835756235 17.510135135031305,233.93433432161692 16.61455773958005,233.59563948772848 15.917997543001547,233.20049503416521 15.793611793546006,232.4102045747568 16.291154791018926,231.61991204551305 16.76382063876372,230.85784228923148 17.23648648650851,230.12399551953422 17.808660933631472,229.53127182574826 18.306203931220807,228.82564686247497 18.878378378227353,228.17647043880424 19.52518427511677,227.58374291920336 20.27149877138436,227.01923943703878 21.01781326776836,226.51118540007155 21.813882063725032,226.03135580188246 22.58507371006999,225.5797507770476 23.430896805948578,225.2128211966774 24.25184275174979,224.87411657255143 25.097665847628377,224.5636369997228 25.91861179342959,224.2813825653575 26.789312039269134,223.970902382629 27.58538083534222,223.60397084560827 28.381449631415308,223.265264415415 29.301904176943935,223.03945991728688 30.097972972900607,222.7854296550213 31.018427518429235,222.50317355711013 31.864250614191405,222.2491428432404 32.71007371006999,221.91043489199365 33.53101965598762,221.5435008490458 34.22757985244971,221.26124358936795 35.04852579848375,221.03543759146123 35.96898034401238,220.7249540683406 36.76504913996905,220.38624440602143 37.585995086003095,220.07576021476416 38.357186732115224,219.79350158188026 39.17813267814927,219.5112426848791 39.9990786240669,219.20075759317842 40.820024569984525,218.97495005300152 41.64097051601857,218.7491423439642 42.38728501216974,218.41043046332197 43.13359950867016,218.0434921635606 43.85503685497679,217.64832734165248 44.700859950855374,217.36606643768027 45.44717444712296,216.82976999258972 46.168611793546006,216.29347259408678 46.84029484016355,215.61604293851997 47.437346437363885,214.99506441800622 47.98464373452589,214.48699013225269 48.50706388207618,213.75310354225803 49.02948402939364,213.0192151668598 49.427518427488394,212.2288718429627 49.82555282546673,211.5232064111624 50.24846437340602,210.84576604361064 50.79576167068444,210.1400973763084 51.41769041772932,209.46265390282497 52.064496314385906,208.86988961548195 52.736179361119866,208.30535111599602 53.48249385750387,207.7972655633057 54.25368550373241,207.28917915472994 55.0497542998055,206.97868148365524 55.771191646228544,206.63995638731285 56.59213759214617,206.24477662731078 57.38820638821926,205.87782352953218 58.234029484097846,205.73668760375585 59.15448402951006,205.79314198193606 59.95055282546673,205.51086998530081 60.796375921345316,205.2003704838571 61.74170761660207,205.25682496238733 62.612407862441614,205.34150666050846 63.3587223587092,205.28505219775252 64.03040540532675,205.0310069847037 64.82647420151625,204.94632519950392 65.57278869766742,205.0027797256189 66.29422604420688,205.3979611126415 67.04054054047447,205.53909719682997 67.86148648650851,205.369733887841 68.73218673223164,205.1439159946749 69.57800982799381,205.0310069847037 70.49846437352244,205.28505219775252 71.36916461912915,205.2003704838571 72.23986486485228,204.91809793244465 73.08568796061445,204.60759782078094 73.98126535629854,204.4664613008208 74.8768427518662,204.29709738952806 75.77242014743388,204.1559607242525 76.66799754300155,204.09950603963807 77.51382063888013,204.07127869335818 78.53378378378693,203.87368719553342 79.35472972970456,203.53495861231931 80.25030712527223,203.30913934559794 81.0961302210344,203.0550924684212 82.01658476644661,202.9421826765174 82.36486486473586,202.34940557580558 82.73802211298607,201.5025791253429 83.18581081076991,200.79688860059832 83.85749385738745,200.23233499200433 84.6784398034215,199.95005779151688 85.52426289930008,199.78069134437828 86.39496314502321,199.5830970358802 87.24078624078538,199.6395525657863 88.03685503674205,199.95005779151688 88.8578009827761,200.2041072838765 89.70362407865468,200.23233499200433 90.5245700244559,200.11942414357327 91.19625307130627,199.6960080851568 92.01719901710749,199.52664149538032 92.83814496314153,199.35727481055073 93.55958230956458,199.0749967910815 93.80835380835924,200.00651325267972 94.00737100734841,200.9097991955059 94.18151105649304,201.84130999085028 94.45515970513225,202.71636296596262 94.57954545447137,203.61964079382597 94.92782555276062,204.43823398888344 95.30098280101083,205.28505219775252 95.5,206.13186802936252 95.1765970516717,206.92222732742084 94.8034398034215,207.68435754644452 94.08200245699845,208.19244328944478 93.36056511057541,208.58762049782672 92.53961916465778,209.01102407526923 91.6440417689737,209.03925095929299 90.79821867321152,209.29329279676313 89.9772727272939,209.09570471939514 89.15632678125985,208.95457029927638 88.28562653565314,208.6440743425337 87.41492628993001,208.47471277680597 86.6188574937405,208.50293971106294 85.82278869778384,208.6440743425337 84.97696560190525,208.7852089079097 84.18089680594858,209.2086122080218 83.33507371006999,209.43442705838243 82.56388206395786,209.82960263988934 81.8424447174184,210.1118705953122 81.02149877138436,210.33768476961995 80.20055282558315,210.61995224971906 79.60350122838281,211.07157966843806 78.93181818188168,211.2409397761803 77.9864864863921,211.63611299113836 77.28992628993001,212.17241866906988 76.61824324319605,212.65227030974347 75.87192874692846,213.10389468588983 75.10073710069992,213.4426125244354 74.35442260431591,213.3297066204832 73.70761670754291,213.75310354225803 73.03593366092537,214.17649986973265 72.28961916454136,214.5716692393762 71.89158476656303,215.13619601220125 71.6676904176129,215.75717424222967 70.92137592134532,216.0394366515393 70.05067567562219,216.26524638882256 69.2546068795491,216.54750832272111 68.43366093363147,216.9426745865494 67.71222358720843,216.82976999258972 66.96590909094084,216.54750832272111 66.16984029486775,216.63218685149332 65.42352579848375,217.05557913830853 65.42352579848375,217.95881403106614 64.65233415225521,218.43865646794438 63.856265356298536,218.8055942870851 63.03531941026449,219.25720945178182 62.26412776415236,219.6805980547215 61.49293611792382,219.93463093126775 60.846130221150815,219.53946858641575 60.14957002457231,219.9628567932814 59.42813267814927,220.414470225689 58.75644963129889,220.92253452917794 58.80620393110439,221.71285507819266 58.880835380754434,222.36204540915787 58.109643734642304,222.7572040571249 57.88574938569218,223.37816660106182 58.457923832931556,223.01123434316833 59.15448402951006,222.53139917881344 59.32862407853827,221.99511191548663 59.2291154791601,221.28946932725376 59.03009828005452,220.55559928470757 59.826167076127604,220.1322119096876 60.59735872235615,219.73704982356867 61.343673218623735,219.53946858641575 61.91584766586311,219.87817919946974 62.71191646181978,219.42656496429117 63.53286240785383,218.94672409867053 64.30405405396596,218.49510846918565 64.72696560190525,218.07171820252552 64.27917690412141,217.33784033279517 63.856265356298536,216.60396067783586 63.48310810816474,215.8700792376767 63.20945945940912,215.07974338243366 63.085073709953576,214.17649986973265 62.93581081076991,213.3297066204832" stroke="#4DD2FF" stroke-linecap="round" stroke-linejoin="round" stroke-width="0.5"><title>2025-03-24 13.1km</title><desc>1742817466000</desc></polyline></svg>