<?xml version="1.0" encoding="utf-8" ?>
<svg baseProfile="full" height="200mm" version="1.1" viewBox="0,0,200,200" width="200mm" xmlns="http://www.w3.org/2000/svg" xmlns:ev="http://www.w3.org/2001/xml-events" xmlns:xlink="http://www.w3.org/1999/xlink"><defs /><rect fill="#1a1a1a" height="200" width="200" x="0" y="0" /><text alignment-baseline="middle" fill="#e1ed5e" style="dominant-baseline: central; font-size:9.0px; font-family:Arial;" text-anchor="middle" x="100.0" y="100.0">2025</text><line stroke="#e1ed5e" stroke-width="0.3" x1="100.0" x2="100.0" y1="15.0" y2="10.0" /><path d="M 100.0 14.0 a86.0,86.0 0 0,1 42.46469731375804,11.215312516191453" fill="none" id="id1" stroke="none" /><text fill="#e1ed5e" style="font-size:6.75px; font-family:Arial;" text-anchor="middle"><textPath startOffset="22.20632615414155" xlink:href="#id1">January</textPath></text><line stroke="#e1ed5e" stroke-width="0.3" x1="143.23703022742887" x2="145.7803849466894" y1="26.81831364943548" y2="22.513508569990506" /><path d="M 143.74570117128098 25.957352633546492 a86.0,86.0 0 0,1 28.547481713284135,27.462654790039103" fill="none" id="id2" stroke="none" /><text fill="#e1ed5e" style="font-size:6.75px; font-family:Arial;" text-anchor="middle"><textPath startOffset="19.985693538727396" xlink:href="#id2">February</textPath></text><line stroke="#e1ed5e" stroke-width="0.3" x1="172.23445277983987" x2="176.4835382374775" y1="55.19839476539836" y2="52.563006222186495" /><path d="M 173.08426987136738 54.67131705675599 a86.0,86.0 0 0,1 12.851231095245387,41.99856678651699" fill="none" id="id3" stroke="none" /><text fill="#e1ed5e" style="font-size:6.75px; font-family:Arial;" text-anchor="middle"><textPath startOffset="22.20632615414155" xlink:href="#id3">March</textPath></text><path d="M 120.37134235888165 94.90015583598534 l 5.75600640026328 -1.4409819015002394 a26.93363619716638,26.93363619716638 0 0,0 0.10871851996322328,0.4507084535617646 l -5.77995772048732 1.3416882162790686" fill="#ff0000" stroke="none" /><path d="M 120.45610955862082 95.25157060432595 l 8.522916240292028 -1.9784048328590889 a29.749524954059723,29.749524954059723 0 0,0 0.11149783799559286,0.4998229452052561 l -8.555708465289658 1.8314037181038687" fill="#ff2c04" stroke="none" /><path d="M 120.53481517161879 95.60439243477599 l 14.747234794128783 -3.1567392394551184 a36.08131084153756,36.08131084153756 0 0,0 0.12477381893439586,0.6084414536439745 l -14.799387908978176 2.902422129647732" fill="#ff8b0c" stroke="none" /><path d="M 120.67395015179393 96.31383870115 l 6.551223711761032 -1.1680819160873543 a27.654543371579322,27.654543371579322 0 0,0 0.07952411403418717,0.46935582263175785 l -6.570359687315442 1.0551403051397588" fill="#ff0b01" stroke="none" /><path d="M 120.73433829027371 96.67025291283417 l 37.603896601653204 -6.038845485325922 a59.08570196836953,59.08570196836953 0 0,0 0.15262148160885738,1.005584872782484 l -37.702273976701356 5.390661500151356" fill="#4fff2b" stroke="none" /><path d="M 120.83666639777658 97.38593545837742 l 11.164157688046116 -1.4005997020962317 a32.25167082744031,32.25167082744031 0 0,0 0.0643645780677368,0.5514363980989582 l -11.186612619117442 1.2082195656724208" fill="#ff5207" stroke="none" /><line stroke="#e1ed5e" stroke-width="0.3" x1="184.98032266829074" x2="189.97916517819016" y1="98.17113171792111" y2="98.06355123074" /><path d="M 185.9800911702706 98.14961562048488 a86.0,86.0 0 0,1 -9.607161424134198,41.387399972396054" fill="none" id="id4" stroke="none" /><text fill="#e1ed5e" style="font-size:6.75px; font-family:Arial;" text-anchor="middle"><textPath startOffset="21.466115282336823" xlink:href="#id4">April</textPath></text><path d="M 120.76222939487914 103.15116336523771 l 9.381372974382447 1.4238470383048727 a30.488809159897933,30.488809159897933 0 0,0 -0.08321738345994424,0.5181947262422686 l -9.355473836561215 -1.5851209942403461" fill="#ff3705" stroke="none" /><path d="M 120.64145759157962 103.86396538481128 l 29.17326715385062 5.461072404611339 a50.68000721425699,50.68000721425699 0 0,0 -0.16789578565188976,0.8560969938740565 l -29.074941435223067 -5.96243312555334" fill="#b0ff20" stroke="none" /><path d="M 120.49622156327973 104.57218783832717 l 20.682448490048422 4.613730348350883 a42.190804214819224,42.190804214819224 0 0,0 -0.1642215456882938,0.7074621207480057 l -20.599966378429574 -4.969061126447453" fill="#ffe015" stroke="none" /><path d="M 120.23288151984713 105.62410040840565 l 57.21944097278727 15.905192793627737 a80.38888433908112,80.38888433908112 0 0,0 -0.38206678902628693,1.3300246150543102 l -56.93718154687488 -16.88777488418663" fill="#48f6ff" stroke="none" /><path d="M 119.79798401119884 107.00284435728193 l 27.985529815043773 9.898902304394635 a50.68464495089428,50.68464495089428 0 0,0 -0.2980154281428274,0.8200104657156383 l -27.810990125895717 -10.379160567116406" fill="#b0ff20" stroke="none" /><path d="M 119.41010516605496 108.01547362559984 l 58.230315498164885 24.046420876799505 a84.0,84.0 0 0,0 -0.5633960752307643,1.331701897335346 l -57.80776844174181 -25.045197299801014" fill="#4dd2ff" stroke="none" /><path d="M 118.81262510543309 109.33194174019688 l 26.588464678493214 13.189121770641329 a50.67994924254902,50.67994924254902 0 0,0 -0.39438974858960607,0.7781683897324362 l -26.35749626011734 -13.64484437207646" fill="#b0ff20" stroke="none" /><line stroke="#e1ed5e" stroke-width="0.3" x1="174.80103733775053" x2="179.2010983576182" y1="140.37084112569926" y2="142.7455964860345" /><path d="M 175.68104954172406 140.8457921977663 a86.0,86.0 0 0,1 -30.038265399797805,32.042727171017184" fill="none" id="id5" stroke="none" /><text fill="#e1ed5e" style="font-size:6.75px; font-family:Arial;" text-anchor="middle"><textPath startOffset="22.206326154141568" xlink:href="#id5">May</textPath></text><path d="M 118.48025628344425 109.97397251340804 l 26.123640572471047 14.099180716092127 a50.68554351236776,50.68554351236776 0 0,0 -0.4209883089680499,0.7642160650974523 l -25.87707585405149 -14.546767299587383" fill="#b0ff20" stroke="none" /><path d="M 118.12598468904814 110.60418214915192 l 27.53854126770896 16.110777578950845 a52.90499035185146,52.90499035185146 0 0,0 -0.46661980876969833,0.7820816394192681 l -27.257140583241036 -16.58242131225622" fill="#95ff23" stroke="none" /><path d="M 117.55443506779137 111.5257021239791 l 28.24999126116104 18.54807534527629 a54.79486803154765,54.79486803154765 0 0,0 -0.5244570625604907,0.7839921492592568 l -27.926531093189826 -19.031604408741355" fill="#7fff26" stroke="none" /><path d="M 116.93607887273984 112.41649034213515 l 23.753643199587962 17.414708776122655 a50.45348276537929,50.45348276537929 0 0,0 -0.5195236763812677,0.69598686385853 l -23.450358256511603 -17.8210085194905" fill="#b3ff20" stroke="none" /><path d="M 116.27256486870786 113.27417163493432 l 23.01217510744657 18.771936970847364 a50.69757264177073,50.69757264177073 0 0,0 -0.5574415389844057,0.6714742439031149 l -22.68563756856862 -19.16527247186425" fill="#b0ff20" stroke="none" /><line stroke="#e1ed5e" stroke-width="0.3" x1="143.8653032363475" x2="146.44561519142675" y1="172.8068346515853" y2="177.08958963109032" /><path d="M 144.38136562736335 173.6633856474863 a86.0,86.0 0 0,1 -40.68145358897372,12.25698825130547" fill="none" id="id6" stroke="none" /><text fill="#e1ed5e" style="font-size:6.75px; font-family:Arial;" text-anchor="middle"><textPath startOffset="21.466115282336833" xlink:href="#id6">June</textPath></text><line stroke="#e1ed5e" stroke-width="0.3" x1="102.19456741930631" x2="102.32365962044197" y1="184.97166512339345" y2="189.96999836594603" /><path d="M 102.22038585953345 185.97133177190398 a86.0,86.0 0 0,1 -42.740103519485714,-10.115201625700543" fill="none" id="id7" stroke="none" /><text fill="#e1ed5e" style="font-size:6.75px; font-family:Arial;" text-anchor="middle"><textPath startOffset="22.20632615414155" xlink:href="#id7">July</textPath></text><line stroke="#e1ed5e" stroke-width="0.3" x1="58.666819895761336" x2="56.23545636021788" y1="174.27360380694188" y2="178.64263932499728" /><path d="M 58.180547188652646 175.14741091055294 a86.0,86.0 0 0,1 -31.652253787137756,-30.449443065178592" fill="none" id="id8" stroke="none" /><text fill="#e1ed5e" style="font-size:6.75px; font-family:Arial;" text-anchor="middle"><textPath startOffset="22.20632615414155" xlink:href="#id8">August</textPath></text><line stroke="#e1ed5e" stroke-width="0.3" x1="26.63291911575756" x2="22.317208475507996" y1="142.92168965132927" y2="145.44649492493687" /><path d="M 25.769776987707644 143.4266507060508 a86.0,86.0 0 0,1 -11.730757126820373,-40.83630448921669" fill="none" id="id9" stroke="none" /><text fill="#e1ed5e" style="font-size:6.75px; font-family:Arial;" text-anchor="middle"><textPath startOffset="21.46611528233685" xlink:href="#id9">September</textPath></text><line stroke="#e1ed5e" stroke-width="0.3" x1="15.007084014347285" x2="10.007500721073583" y1="101.09737516637583" y2="101.16192664675087" /><path d="M 14.007167355692545 101.11028546245083 a86.0,86.0 0 0,1 10.666146001902534,-42.60595125391555" fill="none" id="id10" stroke="none" /><text fill="#e1ed5e" style="font-size:6.75px; font-family:Arial;" text-anchor="middle"><textPath startOffset="22.20632615414155" xlink:href="#id10">October</textPath></text><line stroke="#e1ed5e" stroke-width="0.3" x1="26.266209847984257" x2="21.92892807433627" y1="57.711370442889674" y2="55.22380399835377" /><path d="M 25.39875349325466 57.213857153982495 a86.0,86.0 0 0,1 29.58750427330802,-30.492523968695096" fill="none" id="id11" stroke="none" /><text fill="#e1ed5e" style="font-size:6.75px; font-family:Arial;" text-anchor="middle"><textPath startOffset="21.46611528233685" xlink:href="#id11">November</textPath></text><line stroke="#e1ed5e" stroke-width="0.3" x1="56.762969772571076" x2="54.21961505331055" y1="26.818313649435495" y2="22.513508569990535" /><path d="M 56.25429882871897 25.957352633546506 a86.0,86.0 0 0,1 42.265352541879196,-11.944610805530505" fill="none" id="id12" stroke="none" /><text fill="#e1ed5e" style="font-size:6.75px; font-family:Arial;" text-anchor="middle"><textPath startOffset="22.20632615414155" xlink:href="#id12">December</textPath></text></svg>